<svg width="40" height="20" viewBox="0 0 40 20" fill="none" xmlns="http://www.w3.org/2000/svg">
<path d="M0.458282 8.89397C0.458752 8.89351 0.459141 8.89296 0.459686 8.89249L8.62406 0.767495C9.2357 0.158823 10.225 0.161088 10.8338 0.772807C11.4426 1.38445 11.4402 2.37374 10.8286 2.98249L5.34703 8.43749H38.4375C39.3005 8.43749 40 9.13702 40 9.99999C40 10.863 39.3005 11.5625 38.4375 11.5625H5.34711L10.8285 17.0175C11.4402 17.6262 11.4425 18.6155 10.8337 19.2272C10.2249 19.839 9.23555 19.8411 8.62398 19.2325L0.45961 11.1075C0.459141 11.107 0.458748 11.1065 0.458202 11.106C-0.153751 10.4952 -0.151798 9.50272 0.458282 8.89397Z" fill="#F54E5A"/>
</svg>
