<svg width="40" height="20" viewBox="0 0 40 20" fill="none" xmlns="http://www.w3.org/2000/svg">
<path d="M39.5417 8.89397C39.5412 8.89351 39.5409 8.89296 39.5403 8.89249L31.3759 0.767495C30.7643 0.158823 29.775 0.161088 29.1662 0.772807C28.5574 1.38445 28.5598 2.37374 29.1714 2.98249L34.653 8.43749H1.5625C0.699531 8.43749 0 9.13702 0 9.99999C0 10.863 0.699531 11.5625 1.5625 11.5625H34.6529L29.1715 17.0175C28.5598 17.6262 28.5575 18.6155 29.1663 19.2272C29.7751 19.839 30.7645 19.8411 31.376 19.2325L39.5404 11.1075C39.5409 11.107 39.5413 11.1065 39.5418 11.106C40.1538 10.4952 40.1518 9.50272 39.5417 8.89397Z" fill="#F54E5A"/>
</svg>
