<svg width="15" height="25" viewBox="0 0 15 25" fill="none" xmlns="http://www.w3.org/2000/svg">
<path d="M6.64373 0.343726L6.64258 0.344781L0.352254 6.46806C-0.118976 6.92679 -0.117222 7.66876 0.356367 8.12538C0.829895 8.58194 1.5958 8.58019 2.06709 8.12146L6.29032 4.01029L6.29032 23.8281C6.29032 24.4754 6.8319 25 7.5 25C8.16811 25 8.70968 24.4754 8.70968 23.8281L8.70968 4.01034L12.9329 8.1214C13.4042 8.58013 14.1701 8.58189 14.6436 8.12532C15.1173 7.6687 15.1189 6.92667 14.6477 6.468L8.35742 0.344722L8.35627 0.343667C7.88341 -0.115298 7.11502 -0.113832 6.64373 0.343726Z" fill="#3A3C63"/>
</svg>
