<svg width="25" height="30" viewBox="0 0 25 30" fill="none" xmlns="http://www.w3.org/2000/svg">
<path d="M23.9396 3.92879L13.0021 0.118657C12.6771 0.00345707 12.3229 0.00345707 11.9979 0.118657L1.06042 3.92879C0.425 4.14852 0 4.75652 0 5.44346V14.0152C0 24.4771 11.4042 29.5629 11.8896 29.7741C12.2813 29.9448 12.7167 29.9448 13.1104 29.7741C13.5958 29.5608 25 24.4771 25 14.0152V5.44346C25 4.75652 24.575 4.14852 23.9396 3.92879Z" fill="#4CAF50"/>
<path d="M19.3458 12.0184L13.6167 19.4851C12.8854 20.4387 11.5209 20.5773 10.6229 19.788L6.9771 16.588C6.1021 15.8221 6.00002 14.4739 6.7521 13.58C7.50002 12.6861 8.81668 12.5837 9.68752 13.3496L11.6834 15.1011L16.0688 9.38587C16.7792 8.46001 18.0875 8.29574 18.9938 9.02747C19.9 9.75067 20.0584 11.0925 19.3458 12.0184Z" fill="white"/>
<path d="M12.5 0.0333405C12.3292 0.0333405 12.1604 0.0610737 11.9979 0.118674L1.06042 3.92881C0.425 4.14854 0 4.75654 0 5.44347V14.0152C0 24.4771 11.4042 29.5629 11.8896 29.7741C12.0854 29.8573 12.2937 29.9 12.5 29.9V20.2317C12.3292 20.2765 12.1542 20.3 11.9771 20.3C11.4979 20.3 11.0167 20.1315 10.625 19.7859L6.97917 16.5859C6.10417 15.82 6.00208 14.4717 6.75417 13.5779C7.16458 13.0872 7.74792 12.8333 8.33541 12.8333C8.81458 12.8333 9.29583 13.0019 9.6875 13.3453L11.6833 15.0968L12.5 14.0344V0.0333405Z" fill="#429846"/>
<path d="M8.33541 12.8333C7.74791 12.8333 7.16458 13.0851 6.75208 13.5779C6.00208 14.4717 6.10416 15.82 6.97708 16.5859L10.6229 19.7859C11.0146 20.1315 11.4958 20.3 11.975 20.3C12.1521 20.3 12.3271 20.2765 12.4979 20.2317V14.0344L11.6812 15.0968L9.68541 13.3453C9.29583 13.0019 8.81458 12.8333 8.33541 12.8333Z" fill="#DEDEDE"/>
</svg>
