<svg width="429" height="394" viewBox="0 0 429 394" fill="none" xmlns="http://www.w3.org/2000/svg">
<path opacity="0.5" d="M242.27 383.63C242.27 388.98 226.93 393.32 208.01 393.32C189.09 393.32 173.75 388.98 173.75 383.63C173.75 378.28 189.09 373.94 208.01 373.94C226.93 373.93 242.27 378.27 242.27 383.63Z" fill="#86B6E6"/>
<path opacity="0.5" d="M173.74 367.27C173.74 372.62 138.26 376.96 94.49 376.96C50.72 376.96 15.24 372.62 15.24 367.27C15.24 361.92 50.72 357.58 94.49 357.58C138.26 357.58 173.74 361.91 173.74 367.27Z" fill="#86B6E6"/>
<path opacity="0.5" d="M340.5 367.27C340.5 372.62 322.14 376.96 299.49 376.96C276.84 376.96 258.48 372.62 258.48 367.27C258.48 361.92 276.84 357.58 299.49 357.58C322.14 357.57 340.5 361.91 340.5 367.27Z" fill="#86B6E6"/>
<path d="M157.03 84.51C156.96 84.51 156.89 84.48 156.85 84.42C156.77 84.32 156.79 84.17 156.89 84.1C156.92 84.08 159.9 81.83 164.03 83.83C164.14 83.89 164.19 84.02 164.14 84.14C164.08 84.25 163.95 84.3 163.83 84.25C159.97 82.38 157.28 84.38 157.17 84.47C157.13 84.5 157.08 84.51 157.03 84.51Z" fill="#6292CC"/>
<path d="M222.27 324.22C137.46 279.9 108.54 233.97 99.33 202.78H153.81C153.5 207.67 152.05 212.48 149.59 216.72C148.38 218.72 147.74 221.03 147.74 223.39C147.74 230.51 153.53 236.31 160.66 236.31C167.78 236.31 173.58 230.51 173.58 223.39C173.58 221.03 172.94 218.72 171.72 216.7C169.27 212.47 167.82 207.67 167.51 202.78H222.29V253.53L223.29 253.44C228.15 253.01 232.95 251.49 237.17 249.04C238.91 247.99 240.89 247.44 242.92 247.44C249.03 247.44 253.99 252.41 253.99 258.51C253.99 264.62 249.02 269.58 242.92 269.58C240.89 269.58 238.91 269.03 237.19 267.98C232.96 265.52 228.16 264 223.3 263.57L222.3 263.48V324.22H222.27Z" fill="#5474B1"/>
<path d="M224.11 265.52C228.4 266.04 232.47 267.4 236.22 269.57C238.22 270.78 240.53 271.42 242.89 271.42C250.01 271.42 255.81 265.62 255.81 258.5C255.81 251.38 250.02 245.58 242.89 245.58C240.53 245.58 238.21 246.22 236.2 247.44C232.46 249.61 228.39 250.97 224.11 251.49V202.77H288.61L288.64 201.88C288.85 195.57 287.29 189.35 284.12 183.9C283.07 182.16 282.52 180.18 282.52 178.15C282.52 172.04 287.49 167.08 293.59 167.08C299.7 167.08 304.66 172.05 304.66 178.15C304.66 180.18 304.11 182.16 303.06 183.88C299.89 189.35 298.33 195.57 298.53 201.88L298.56 202.77H347.03C337.82 233.96 308.91 279.89 224.09 324.21V265.52H224.11Z" fill="#86B6E6"/>
<path d="M223.88 324.6V265.25L224.14 265.28C228.46 265.8 232.56 267.17 236.34 269.36C238.31 270.55 240.57 271.18 242.89 271.18C249.89 271.18 255.58 265.49 255.58 258.49C255.58 251.49 249.89 245.8 242.89 245.8C240.57 245.8 238.3 246.43 236.32 247.63C232.55 249.82 228.45 251.19 224.13 251.71L223.87 251.74V202.53H288.38L288.4 201.86C288.61 195.6 287.06 189.42 283.91 184C282.84 182.23 282.27 180.21 282.27 178.14C282.27 171.91 287.34 166.84 293.57 166.84C299.8 166.84 304.87 171.91 304.87 178.14C304.87 180.21 304.31 182.23 303.24 183.99C300.09 189.42 298.54 195.6 298.75 201.86L298.77 202.53H347.33L347.24 202.83C338.12 233.72 309.37 279.9 224.19 324.41L223.88 324.6ZM224.35 265.78V323.84C308.85 279.6 337.57 233.78 346.75 203.01H298.36L298.32 201.89C298.11 195.54 299.68 189.27 302.88 183.77C303.9 182.08 304.44 180.14 304.44 178.16C304.44 172.18 299.58 167.32 293.6 167.32C287.62 167.32 282.76 172.18 282.76 178.16C282.76 180.14 283.3 182.09 284.33 183.79C287.52 189.29 289.09 195.55 288.88 201.9L288.84 203.02H224.34V251.24C228.5 250.7 232.45 249.36 236.09 247.26C238.13 246.02 240.49 245.37 242.89 245.37C250.14 245.37 256.04 251.27 256.04 258.52C256.04 265.77 250.14 271.67 242.89 271.67C240.48 271.67 238.14 271.02 236.1 269.78C232.46 267.66 228.51 266.31 224.35 265.78Z" fill="#A9D3C4"/>
<path d="M160.65 234.46C154.54 234.46 149.58 229.49 149.58 223.39C149.58 221.36 150.13 219.38 151.18 217.66C153.96 212.86 155.52 207.41 155.71 201.89L155.74 200.94H98.8C96.4 192.25 95.19 183.52 95.19 174.97C95.19 155.1 101.48 136.52 112.9 122.65C124.66 108.37 140.94 100.5 158.73 100.5C180.55 100.5 196.69 109.59 206.38 117.22C215.97 124.76 221.33 132.4 222.26 133.78V157.25C218.36 156.64 214.65 155.33 211.22 153.34C209.22 152.13 206.91 151.49 204.55 151.49C197.43 151.49 191.63 157.29 191.63 164.41C191.63 171.53 197.43 177.33 204.55 177.33C206.91 177.33 209.22 176.69 211.24 175.47C214.66 173.49 218.37 172.18 222.27 171.57V200.94H165.57L165.6 201.89C165.78 207.42 167.34 212.87 170.12 217.65C171.17 219.39 171.73 221.37 171.73 223.39C171.72 229.5 166.75 234.46 160.65 234.46Z" fill="#86B6E6"/>
<path d="M159.04 95.59C156.44 96.01 156.59 96.43 156.25 96.48C155.85 96.53 151.15 94.18 151.15 94.18C151.15 94.18 137.25 87.34 136.51 86.94L126.47 74.35L118.74 77.91C118.74 77.91 130.03 91.3 130.74 91.89C131.45 92.48 151.39 99.45 153.12 100.12C153.12 100.12 154.87 101.71 156 102.68C157.13 103.64 158.64 104.02 159 104.24C159.05 104.27 160.3 104.93 162.06 105.31C163.58 105.64 162.31 104.61 162.31 104.61C162.31 104.61 159.62 103.48 159.75 103.27C159.85 103.11 161.28 103.82 162.96 104.2C163.39 104.3 163.82 104.39 164.21 104.48C165.24 104.7 165.69 104.11 164.66 103.71C164.29 103.57 163.68 103.34 163.22 103.25C162.72 103.15 162.3 102.89 161.9 102.73C161.1 102.43 160.51 102.21 160.54 102.19C160.58 102.15 160.47 101.98 160.93 102.07C161.48 102.18 162.6 102.68 163.43 102.77C163.9 102.82 164.88 103 164.88 103C164.88 103 166.61 103.16 166.62 102.92C166.65 102.39 165.58 102.1 164.93 102.11C164.52 101.9 163.49 101.75 163.49 101.75C163.49 101.75 161.49 100.96 161.61 100.67C161.66 100.55 162.87 100.73 164.15 100.82C165.51 100.91 166.49 100.91 166.57 100.65C166.68 100.23 165.6 100.08 165.6 100.08C165.6 100.08 164.65 99.94 164.33 99.87C163.96 99.79 162.89 99.45 162.89 99.45C162.89 99.45 159.21 98.1 159.34 97.83C159.47 97.56 160.08 96.99 160.34 96.99C160.6 96.99 161.06 97.25 161.32 97.25C161.58 97.25 162.14 97.2 162.18 96.88C162.22 96.55 160.78 95.88 160.78 95.88C160.78 95.88 159.79 95.46 159.04 95.59Z" fill="#FFE3CD"/>
<path d="M133.46 82.14C133.46 82.14 130.96 84.41 129.91 85.15C129.04 85.77 124.83 87.8 124.83 87.8C124.83 87.8 120.63 81.39 118.8 78.18C116.57 74.28 115.03 68.48 115.56 68.33C117.04 67.89 119.07 67.62 120.95 68.48C127.43 71.45 133.46 82.14 133.46 82.14Z" fill="#5474B1"/>
<path d="M156.6 98.94C157.71 99.12 158.85 98.9 159.35 97.89C159.46 99.09 157.63 99.69 156.6 98.94Z" fill="#DB8765"/>
<path d="M92.48 179.88C92.48 179.88 92.2 184.79 92.2 184.8C92.1 185.42 91.7 186.96 91.7 187.53C91.7 189.66 101.17 185.72 99.04 184.78C98.85 184.69 97.84 184.05 97.78 183.33C97.68 182.21 97.44 179.96 97.44 179.96L92.48 179.88Z" fill="#FFE3CD"/>
<path d="M99.01 184.75C99.01 184.75 96.79 185.4 95.65 185.56C94.51 185.72 93.01 184.35 92.21 184.72C91.32 185.13 91.36 188.79 91.36 188.79C91.36 188.79 103.28 189.83 106.63 188.75C107.95 188.34 103.56 186.27 99.01 184.75Z" fill="#3A3C63"/>
<path d="M77.26 179.58C77.26 179.58 76.98 184.49 76.98 184.5C76.88 185.12 76.48 186.66 76.48 187.23C76.48 189.36 85.95 185.42 83.82 184.48C83.63 184.39 82.32 183.27 82.26 182.54C82.16 181.42 82.21 179.65 82.21 179.65L77.26 179.58Z" fill="#FFE3CD"/>
<path d="M83.8 184.46C83.8 184.46 81.58 185.11 80.44 185.27C79.3 185.43 77.8 184.06 77 184.43C76.11 184.84 76.08 188.5 76.08 188.5C76.08 188.5 87.91 188.98 91.42 188.46C92.79 188.27 88.34 185.97 83.8 184.46Z" fill="#3A3C63"/>
<path d="M79.41 102.19C79.41 102.19 77.81 110.47 78.46 116.74C79.11 123.02 79.17 145.31 79.17 145.31L76.68 180.98L82.6 181.12C82.6 181.12 89.62 145.47 89.49 146.38C89.36 147.3 91.84 121.28 91.84 121.28L83.47 101.41L79.41 102.19Z" fill="#3B3859"/>
<path d="M81.65 96.84C81.65 96.84 74.38 104.47 77.09 112.81C78.18 116.16 88.3 148.15 88.44 150.77C88.57 153.38 91.87 182.29 91.87 182.29L98.75 182.08L100.24 149.94L98.27 106.64L94.09 99.34L81.65 96.84Z" fill="#3A3C63"/>
<path d="M125.77 72.09C123.39 69.44 118.21 65.59 118.21 65.59C118.21 65.59 115.12 62.96 113.87 62.53C112.02 61.89 108.85 60.2 104.26 67.13C100.98 72.09 80.27 97.77 76.86 98.64L99.06 109.23C99.67 104.17 110.64 94.61 112.22 92.83C115.76 88.84 128.03 74.59 125.77 72.09Z" fill="#6292CC"/>
<path d="M124.74 61.24L117.82 65.28C117.82 65.28 117.63 71.17 119.89 72.7C121.79 73.98 123.23 70.9 123.23 70.9C123.23 70.9 125.8 67.35 127.76 66.24C129.71 65.13 124.74 61.24 124.74 61.24Z" fill="#FFE3CD"/>
<path d="M123.58 63.83C123.84 65.06 124.44 66.83 125.38 68.3C126.14 67.48 127 66.67 127.76 66.24C128.66 65.73 128.09 64.63 127.21 63.59C125.97 62.3 124.74 61.25 124.74 61.25L123.41 62.03C123.32 62.51 123.49 63.42 123.58 63.83Z" fill="#BD916C"/>
<path d="M128.34 51.12C128.22 50.98 122.54 58.03 123.24 61.34C123.94 64.65 127.38 67.67 129.77 66.84C132.41 65.92 137.33 57.61 135.56 53.58C133.8 49.55 128.34 51.12 128.34 51.12Z" fill="#FFE3CD"/>
<path d="M134.57 48.89C132.09 47.52 128.05 47.12 125.03 48.7C121.32 50.64 120.47 55.52 121.63 58.49C122.79 61.47 121.46 63.15 121.46 63.15L123.43 62C123.43 62 124.58 60.21 124.73 58.78C124.88 57.35 126.97 57.61 127.99 56.96C128.78 56.46 129.78 54.84 131.05 54C131.05 54 134.25 53.61 135.82 54.49C138.5 55.99 138.12 50.86 134.57 48.89Z" fill="#4F372B"/>
<path d="M145.55 105.98C142.83 105.65 142.84 105.87 142.49 105.82C142.08 105.76 137.86 102.14 137.86 102.14C137.86 102.14 125.35 91.54 124.69 90.95L117.82 75.78L108.76 77.13C108.76 77.13 117.21 94.97 117.8 95.74C118.39 96.52 136.95 107.34 138.55 108.48C138.55 108.48 139.96 110.53 140.89 111.78C141.82 113.04 143.26 113.84 143.58 114.15C143.63 114.2 144.74 115.19 146.43 116.06C147.89 116.81 146.84 115.45 146.84 115.45C146.84 115.45 144.38 113.59 144.56 113.43C144.7 113.31 145.98 114.4 147.59 115.25C148 115.47 148.41 115.68 148.79 115.87C149.78 116.38 150.36 115.93 149.41 115.24C149.07 115 148.51 114.6 148.06 114.38C147.58 114.14 147.22 113.77 146.84 113.5C146.1 112.98 145.59 112.64 145.63 112.62C145.68 112.6 145.56 112.36 146.01 112.58C146.55 112.84 147.56 113.64 148.38 113.97C148.84 114.16 149.79 114.6 149.79 114.6C149.79 114.6 151.18 114.78 151.24 114.7C151.52 114.27 150.69 113.93 150.03 113.76C149.66 113.44 148.66 113 148.66 113C148.66 113 146.82 111.67 147 111.41C147.07 111.31 148.16 112.05 149.49 112.55C151.01 113.12 151.74 112.81 151.88 112.57C152.09 112.2 151.16 111.97 151.16 111.97C151.16 111.97 149.88 111.66 149.58 111.5C149.23 111.32 145.15 108.23 145.35 108.01C145.54 107.78 146.17 107.78 146.43 107.86C146.69 107.94 147.15 108.12 147.41 108.2C147.67 108.27 148.13 107.97 148.24 107.67C148.35 107.36 147.37 106.81 147.37 106.81C147.37 106.81 146.33 106.07 145.55 105.98Z" fill="#FFE3CD"/>
<path d="M110.19 84.49C110.19 84.49 112.8 83.66 114.47 82.9C115.59 82.39 120.48 79.96 120.48 79.96C120.48 79.96 118.37 71.1 116.95 67.91C111.72 56.22 105.78 64.28 104.98 66.16C103.17 70.37 110.19 84.49 110.19 84.49Z" fill="#86B6E6"/>
<path d="M300.38 200.94C300.35 195.29 301.82 189.74 304.67 184.84C305.88 182.84 306.52 180.53 306.52 178.17C306.52 171.05 300.73 165.25 293.6 165.25C286.48 165.25 280.68 171.04 280.68 178.17C280.68 180.53 281.32 182.84 282.54 184.86C285.37 189.75 286.85 195.29 286.82 200.95H224.11V169.47L223.08 169.6C218.55 170.15 214.25 171.6 210.3 173.89C208.56 174.94 206.58 175.49 204.56 175.49C198.45 175.49 193.49 170.52 193.49 164.42C193.49 158.31 198.46 153.35 204.56 153.35C206.59 153.35 208.57 153.9 210.29 154.95C214.25 157.25 218.55 158.69 223.09 159.24L224.12 159.37V133.8C225.05 132.42 230.41 124.78 240 117.24C249.7 109.61 265.84 100.52 287.65 100.52C305.44 100.52 321.72 108.39 333.48 122.67C344.9 136.54 351.19 155.12 351.19 174.99C351.19 183.54 349.98 192.28 347.58 200.96H300.38V200.94Z" fill="#5474B1"/>
<path d="M347.98 241.89H329.19C328.26 241.89 327.5 241.14 327.5 240.2C327.5 239.27 328.25 238.51 329.19 238.51H347.98C348.91 238.51 349.67 239.26 349.67 240.2C349.67 241.14 348.91 241.89 347.98 241.89Z" fill="#7FC4E2"/>
<path d="M349.83 244.55H327.35C326.42 244.55 325.66 243.8 325.66 242.86C325.66 241.93 326.41 241.17 327.35 241.17H349.83C350.76 241.17 351.52 241.92 351.52 242.86C351.51 243.8 350.76 244.55 349.83 244.55Z" fill="#3A3C63"/>
<path d="M283.9 356.71C283.9 356.71 282.17 358.42 282.13 359.05C282.09 359.68 281.98 366.41 282.68 367.04C283.39 367.67 285.46 368.11 284.79 368.82C284.29 369.35 280.41 369.24 277.84 369.1C277.09 369.06 276.15 362.99 275.85 362.1C275.42 360.8 273.86 357.98 274.26 357.08C274.45 356.64 275.87 355.64 277.16 354.79C278.52 353.9 279.81 351.93 279.81 351.93L283.9 356.71Z" fill="#FFE3CD"/>
<path d="M307.06 360.91C307.06 360.91 305.51 365.34 305.51 365.36C305.4 366.06 304.94 367.8 304.94 368.44C304.94 370.84 315.62 366.4 313.22 365.34C313 365.24 312.32 364.48 312.25 363.66C312.14 362.4 313.15 360.82 313.15 360.82L307.06 360.91Z" fill="#FFE3CD"/>
<path d="M321.79 276.71L325.65 286.72C325.65 286.72 328.17 310.61 326.7 324.91C326.09 330.89 312.79 362.91 312.79 362.91L306.19 361.97L315.03 324.06L311.78 309.56L307.17 280.9L321.79 276.71Z" fill="#3B3859"/>
<path d="M303.58 277.23L300.26 288.38L295.22 322.02L278.16 353.49C278.16 353.49 280.72 357.43 283.48 358.05L307.69 326.24L320.81 286.42L320.35 277.57L303.58 277.23Z" fill="#3A3C63"/>
<path d="M354.49 258.68C352.5 259.58 352.71 259.95 352.45 260.06C352.15 260.19 347.97 258.86 347.97 258.86C347.97 258.86 335.63 255.04 334.97 254.81L324.6 244.8L319.14 249.66C319.14 249.66 330.65 260.18 331.33 260.61C332.01 261.03 349.16 263.81 350.66 264.12C350.66 264.12 352.35 265.29 353.43 265.99C354.51 266.69 355.78 266.76 356.11 266.89C356.16 266.91 357.27 267.29 358.75 267.32C360.02 267.34 358.82 266.61 358.82 266.61C358.82 266.61 356.47 266.05 356.54 265.83C356.59 265.66 357.86 266.06 359.26 266.1C359.62 266.11 359.98 266.12 360.3 266.12C361.16 266.13 361.41 265.49 360.51 265.3C360.19 265.23 359.66 265.14 359.28 265.14C358.86 265.14 358.48 264.97 358.13 264.9C357.44 264.77 356.93 264.68 356.95 264.65C356.98 264.61 356.85 264.46 357.24 264.46C357.7 264.46 358.68 264.71 359.36 264.64C359.74 264.6 360.55 264.58 360.55 264.58C360.55 264.58 361.85 264.37 361.86 264.27C361.9 263.76 360.93 263.59 360.42 263.73C360.05 263.61 359.21 263.67 359.21 263.67C359.21 263.67 357.47 263.31 357.51 263.01C357.54 262.76 361.83 262.64 361.84 262.13C361.85 261.71 360.56 261.68 360.56 261.68C360.56 261.68 359.78 261.73 359.52 261.72C359.21 261.71 358.3 261.6 358.3 261.6C358.3 261.6 355.12 261.03 355.18 260.75C355.23 260.47 355.61 259.81 355.81 259.76C356.02 259.71 356.43 259.87 356.64 259.82C356.85 259.77 357.08 259.49 357.05 259.17C357.02 258.85 355.95 258.62 355.95 258.62C355.95 258.62 355.06 258.42 354.49 258.68Z" fill="#DDA192"/>
<path d="M328.32 247.33L323.13 254.38C323.13 254.38 318.54 248.88 316.48 246.12C313.98 242.77 311.23 238.13 311.64 237.88C312.79 237.17 314.21 236.43 315.88 236.86C321.68 238.37 328.32 247.33 328.32 247.33Z" fill="#5474B1"/>
<path d="M277.25 354.74C277.25 354.74 280.9 365.9 282.46 366.45C282.87 366.6 285.21 367.19 285.58 368.08C285.59 368.1 285.6 368.13 285.6 368.16C285.72 368.72 285.25 369.25 284.67 369.25H277.26C277.26 369.25 276.21 364.23 275.79 362.03C275.79 362.03 273.59 356.65 273.83 356.16C274.08 355.66 277.25 354.74 277.25 354.74Z" fill="#3A3C63"/>
<path d="M304.33 369.23L305.52 365.32C305.52 365.32 308.12 366.42 309.4 366.24C310.68 366.06 313.19 365.32 313.19 365.32C318.31 367.03 322.51 367.86 321.75 369.23H304.33Z" fill="#3A3C63"/>
<path d="M352.9 262.09C353.85 262.06 354.61 261.65 355.16 260.72C354.96 262.01 353.74 262.55 352.9 262.09Z" fill="#DB8765"/>
<path d="M304.91 236.65C304.91 236.65 298.72 237.3 296.64 238.03C294.91 238.64 292.57 244.29 292.57 244.29C292.57 244.29 301.96 271.42 301.59 276.28C301.22 281.13 300.18 288.32 300.18 288.32C300.18 288.32 318.66 289.49 325.67 286.72C325.67 286.72 323.46 275.73 323.46 272.84C323.46 269.95 322.22 241.1 321.33 239.59C320.45 238.08 318.67 237.22 315.29 236.48C311.9 235.75 304.91 236.65 304.91 236.65Z" fill="#6292CC"/>
<path d="M306.14 228.58L304.91 236.65C304.91 236.65 308.62 240.93 311.31 240.09C313.57 239.39 312.97 236.22 312.97 236.22C312.97 236.22 311.74 231.65 312.11 229.37C312.47 227.09 306.14 228.58 306.14 228.58Z" fill="#FFE3CD"/>
<path d="M312.1 229.37C312.47 227.08 306.13 228.58 306.13 228.58L306.03 229.25C306.22 229.7 306.44 230.08 306.72 230.38C308.13 231.89 310.35 232.8 312.26 232.87C312.07 231.63 311.95 230.31 312.1 229.37Z" fill="#BD916C"/>
<path d="M305.1 217.16C304.92 217.1 303.66 226.36 306.05 228.9C308.43 231.45 313.08 232.28 314.74 230.28C316.58 228.06 316.49 218.11 312.78 215.49C309.08 212.86 305.1 217.16 305.1 217.16Z" fill="#FFE3CD"/>
<path d="M311.37 210.53C308.51 211.11 306.65 212.85 305.97 213.59C304.67 213.74 302.9 214.46 301.08 217.46C298.83 221.15 300.49 225.24 303.11 227.25C305.72 229.26 305.69 231.57 305.69 231.57L306.1 230.38C306.4 229.47 306.53 228.51 306.43 227.56C306.37 226.99 306.25 226.37 306.01 225.86C305.38 224.52 307.36 223.63 307.92 222.51C308.35 221.65 308.37 219.69 309.04 218.27L309.84 217.19C309.84 217.19 311.69 215.76 313.51 216.16C315.31 216.56 315.05 209.78 311.37 210.53Z" fill="#2A2A2A"/>
<path d="M307.78 224.15C307.8 225.28 307.28 226.21 306.62 226.22C305.96 226.23 305.42 225.32 305.4 224.19C305.38 223.06 305.9 222.14 306.55 222.12C307.21 222.12 307.76 223.02 307.78 224.15Z" fill="#FFE3CD"/>
<path d="M316.159 275.846H353.469V243.486H316.159V275.846Z" fill="#BA696F"/>
<path d="M339.375 275.846H371.735V243.486H339.375V275.846Z" fill="#FF818A"/>
<path d="M338.74 275.16C336.84 274.61 315.02 269.02 314.2 268.48C313.38 267.94 299.9 255.35 299.9 255.35L307.62 251.27L319.68 263.15C320.5 263.5 335.95 269.37 335.95 269.37C335.95 269.37 340.67 271.3 341.08 271.22C341.43 271.15 341.72 270.84 344.41 270.24C345.19 270.07 346.29 270.4 346.29 270.4C346.29 270.4 347.65 270.81 347.64 271.14C347.64 271.47 347.3 271.72 347.02 271.73C346.75 271.75 346.23 271.52 345.95 271.54C345.68 271.56 345.1 272.16 345 272.44C344.93 272.61 348.76 275.4 348.94 275.78C349.03 275.87 353.61 275.56 353.42 275.85C353.42 276.32 352.87 276.18 352.87 276.25C352.8 277.5 346.31 278.44 345.86 278.31C345.16 278.1 338.74 275.16 338.74 275.16Z" fill="#FFE3CD"/>
<path d="M304.06 261.15L312.9 255.36C312.9 255.36 302.66 239.83 299.16 238.23C296.75 237.13 293.76 238.79 292.58 242.87C291.31 247.3 304.06 261.15 304.06 261.15Z" fill="#5474B1"/>
<path d="M285.42 27.44C284.08 29.71 281.7 29.62 279.14 30.26C277.42 30.69 276.36 33.52 276.53 35.66C276.95 41.08 272.7 40.16 269.28 42.4C261.09 47.77 266.37 61.79 275.32 62.7C277.11 62.88 279.15 62.59 280.74 61.7C282.01 60.99 282.92 60.07 284.36 59.56C287.38 58.49 290.73 58.12 293.14 55.8C296.59 52.48 293.73 50.86 294.62 48.45C295.51 46.04 299.34 47.25 300.07 42.24C300.86 36.83 299.99 32.16 298 29.48C294.7 25.03 288.89 24.73 286.78 26.08C286.15 26.48 285.72 26.95 285.42 27.44Z" fill="#4F372B"/>
<path d="M323 37.6C322.68 36.93 319.85 38.92 319.22 38.54C318.59 38.16 321.76 34.97 321.43 34.41C320.84 33.38 317.75 37.69 317.45 37.24C317.15 36.78 320.11 32.19 319.05 31.93C317.99 31.68 316.47 37.02 315.93 36.68C315.39 36.34 317.79 31.84 316.76 30.92C316.21 30.43 313.63 39.13 312.7 39.49C311.76 39.85 310.71 36.05 309.83 36.2C308.95 36.35 312.72 43.18 312.54 43.72C312.36 44.25 308.9 55.41 306.86 58.78C305.63 58.19 304.44 57.6 303.3 57.03C302.84 59.62 302.79 62.34 302.19 64.88C306.14 66.62 309.67 67.88 310.82 67.46C314.32 66.17 316.04 49.19 316.6 46.03C317.16 42.86 318.66 42.24 319.51 40.57C320.37 38.9 323.32 38.27 323 37.6Z" fill="#FFE3CD"/>
<path d="M293.75 51.89L287.9 57.79C287.9 57.79 295.63 61.98 302.19 64.87C302.79 62.33 302.84 59.61 303.3 57.02C297.88 54.29 293.75 51.89 293.75 51.89Z" fill="#7FC4E2"/>
<path d="M330.27 117.47C332.84 120.5 334.7 123.66 334.9 124.05C335 124.24 335.04 125.32 335.13 125.51C339.13 128.14 343.36 127.41 346.83 126.33C344.54 125.34 341.36 124.19 341.06 123.71C340.58 122.95 338.4 120.18 336.16 115.21C334.38 116.99 332.69 116.79 330.27 117.47Z" fill="#FFE3CD"/>
<path d="M334.94 124.19C334.59 125.79 334.73 129.02 335.05 129.1C335.43 129.18 348.84 131.17 350.56 129.44C351.59 128.4 349.64 127.61 346.84 126.33C343.37 127.41 335.07 125.27 334.94 124.19Z" fill="#6292CC"/>
<path d="M331.41 129.57C333.98 132.6 335.84 135.76 336.04 136.15C336.14 136.34 336.18 137.42 336.27 137.61C340.27 140.24 344.5 139.51 347.98 138.43C345.69 137.44 342.51 136.29 342.21 135.81C341.73 135.05 339.56 132.28 337.31 127.31C335.51 129.09 333.83 128.89 331.41 129.57Z" fill="#FFE3CD"/>
<path d="M336.08 136.29C335.73 137.89 335.87 141.12 336.19 141.2C336.57 141.28 349.98 143.27 351.7 141.54C352.73 140.5 350.78 139.71 347.98 138.43C344.5 139.51 336.21 137.38 336.08 136.29Z" fill="#6292CC"/>
<path d="M337.97 117.33L330.99 119.75L293.43 88.59C293.43 88.59 302.59 88.47 319.02 90.15C323.94 90.65 337.97 117.33 337.97 117.33Z" fill="#BA696F"/>
<path d="M279.34 86.01C279.34 86.01 278.34 88.65 278.21 90.08C277.8 94.73 280.2 100.63 282.79 101.53C285.44 102.46 301.74 107 311.56 105.62L332.84 133.99L339.93 130.88L323.31 101.7C323.31 101.7 320.11 96.67 317.47 95.49C314.84 94.31 293.43 88.6 293.43 88.6L290.12 83.78L279.34 86.01Z" fill="#FF818A"/>
<path d="M296.64 56.6C295.46 54.42 294.25 52.7 294.25 52.7C293.03 50.52 289.88 49.42 289.88 49.42C289.88 49.42 288.83 49.44 287.62 49.5C287.54 49.7 287.47 49.85 287.39 49.9C286.93 50.24 284.33 49.8 282.64 50.95C277 55.81 278.56 79.34 279 86.77L292.71 87.27C292.71 87.27 294.02 70.94 297.51 66.83C299.95 63.97 298.38 59.83 296.64 56.6Z" fill="#7FC4E2"/>
<path d="M288.89 41.46C288.89 41.46 287.95 48.23 287.28 49.88C286.62 51.53 290.91 55.04 294.48 56.11C298.05 57.18 293.39 52.48 293.54 50.72C293.69 48.96 294.34 40.63 294.34 40.63L288.89 41.46Z" fill="#FFE3CD"/>
<path d="M294.16 43.02C294.26 41.64 294.34 40.63 294.34 40.63L288.89 41.46C288.89 41.46 288.75 42.26 288.6 43.38C290.81 44.66 292.79 44.26 294.16 43.02Z" fill="#BD916C"/>
<path d="M290.6 29.09C290.6 29.09 288.45 29.58 287.13 31.6C285.8 33.63 284.89 39.61 289.26 42.39C293.63 45.18 297.02 41.23 297.08 37.39C297.13 33.55 296.31 28.41 290.6 29.09Z" fill="#FFE3CD"/>
<path d="M298.07 36.19C297.7 37.12 296.96 37.69 296.42 37.48C295.88 37.26 295.75 36.33 296.12 35.4C296.49 34.47 297.23 33.9 297.77 34.11C298.31 34.33 298.45 35.26 298.07 36.19Z" fill="#FFE3CD"/>
<path d="M287.06 36.95C287.38 37.95 287.09 38.94 286.41 39.15C285.74 39.36 284.93 38.73 284.62 37.73C284.3 36.73 284.59 35.74 285.27 35.53C285.94 35.32 286.74 35.95 287.06 36.95Z" fill="#FFE3CD"/>
<path d="M305.14 59.17C305.14 59.17 306.61 59.21 307.03 59.17C309.44 58.94 308.44 62.5 308.44 62.5C308.44 62.5 307.26 61.35 306.79 61.35C306.32 61.35 305.66 61.48 305.66 61.48L305.14 59.17Z" fill="#3A3C63"/>
<path d="M313.29 82.94C313.29 82.94 314.28 84.48 315.39 83.79C316.5 83.1 318.43 81.75 318.78 82.77C319.14 83.78 319.07 84.62 318.68 84.83C318.29 85.03 315.42 86.59 313.86 86.7C312.3 86.81 311.01 85.33 311.01 85.33L313.29 82.94Z" fill="#5474B1"/>
<path d="M315.62 86.42C315.57 85.2 315.33 83.85 314.66 82.7C312.96 79.75 305.77 71.82 304.7 71.2C303.64 70.58 304.4 68.19 304.4 68.19L300.14 65.89L297.92 64.69C297.92 64.69 292.89 72.37 292.5 73.1C292.11 73.83 292.8 76.2 292.29 77.66C291.79 79.12 292.31 87.05 291.59 87.92C291.03 88.48 290.5 88.56 290.33 88.9C290.25 89.05 290.15 89.31 290.36 89.58C290.94 90.32 293.89 89.7 293.89 89.7C293.91 89.65 295.13 87.95 294.94 86.93C294.75 85.95 295.35 80.03 295.76 80.03C296.12 80.03 297.82 82.66 298.5 83.16C298.58 83.21 298.64 83.25 298.69 83.25C299.18 83.25 302.33 83.94 303.02 84.64C303.21 84.83 303.28 85.32 303.28 85.95C303.29 86.37 303.27 86.84 303.23 87.32C303.16 88.2 303.04 89.1 302.95 89.69C303.7 89.7 304.45 89.7 305.2 89.69C305.82 88.58 307.12 87.81 308.62 87.81C310.04 87.81 311.27 88.49 311.93 89.5C313.19 89.43 313.67 90.05 314.75 89.94C314.79 89.57 315.64 86.9 315.62 86.42Z" fill="#6292CC"/>
<path d="M305.57 59.51C305.1 59.06 304.43 58.86 303.78 58.96C303.43 59.02 302.92 59.05 302.22 58.98C300.66 58.84 299.05 58.97 298.04 59.98C297.03 60.99 296.9 64.59 298.04 66.28C299.18 67.97 302.39 68.4 302.68 69.17C302.96 69.94 305.75 70.31 306.15 69.37C306.15 69.37 306.45 69.57 306.89 69.45C307.93 69.15 308.31 68.12 307.94 67.01C307.57 65.9 306.01 63.62 306.29 61.58C306.43 60.63 306.03 59.96 305.57 59.51Z" fill="#5474B1"/>
<path d="M304.91 66.45C304.73 66.64 304.72 66.93 304.89 67.13C305.22 67.52 305.8 68.14 306.21 68.38C306.83 68.74 307.42 67.23 307.42 66.56C307.42 65.9 306 65.33 304.91 66.45Z" fill="#3A3C63"/>
<path d="M304.28 77.24C304.27 76.91 303.99 76.66 303.66 76.68H303.65C301.99 76.78 300.85 78.29 301.07 79.94C301.08 80.03 301.08 80.11 301.07 80.18C301.01 80.47 300.52 81.45 299.99 82.44C300.98 82.69 301.98 82.94 302.97 83.19C303.7 81.93 304.42 80.75 304.42 80.75L304.28 77.24Z" fill="#5474B1"/>
<path d="M298.61 84.96C298.61 84.96 297.48 88.34 297.16 89.63C298.07 90.15 298.62 89.13 300.69 89.69C300.74 89.28 301.47 86.78 301.47 86.16C301.47 85.86 302.39 84.45 303.12 83.2C303.17 83.11 303.13 82.99 303.02 82.96C302.12 82.71 300.97 82.25 300.07 82C299.96 81.97 299.84 82.02 299.78 82.12C299.16 83.36 298.61 84.96 298.61 84.96Z" fill="#5474B1"/>
<path d="M296.32 89.31C296.54 88.83 297.2 88.26 298.17 88.26C299.14 88.26 300.68 89.71 300.68 89.71C300.68 89.71 300.22 90.16 298.96 90.16C297.7 90.15 295.89 90.25 296.32 89.31Z" fill="#5474B1"/>
<path d="M302.02 89.1C302.24 88.62 302.9 88.05 303.87 88.05C304.23 88.05 304.68 88.25 305.09 88.51C305.75 88.92 305.47 89.94 304.7 89.95C304.69 89.95 304.68 89.95 304.66 89.95C303.4 89.95 301.58 90.04 302.02 89.1Z" fill="#5474B1"/>
<path d="M311.11 89.1C311.38 88.62 312.17 88.05 313.34 88.05C313.78 88.05 314.31 88.25 314.81 88.51C315.6 88.92 315.27 89.94 314.34 89.95C314.33 89.95 314.31 89.95 314.29 89.95C312.77 89.95 310.58 90.04 311.11 89.1Z" fill="#5474B1"/>
<path d="M301.36 60.26C300.9 59.8 301.19 59.26 301.44 58.95C300.14 58.92 298.88 59.15 298.04 59.99C297.03 61 296.9 64.6 298.04 66.29C299.06 67.81 301.76 68.31 302.5 68.95C303.27 67.64 302.09 66.53 301.81 65.91C301.53 65.29 303.2 63.73 303.39 62.5C303.59 61.26 302.06 60.95 301.36 60.26Z" fill="#3A3C63"/>
<path d="M299.17 59.27C299.17 59.27 298.16 59.62 296.89 59.17C295.62 58.72 294.36 60.98 294.36 60.98C294.36 60.98 295.53 63.52 296.47 64.14C297.42 64.76 299.17 59.27 299.17 59.27Z" fill="#5474B1"/>
<path d="M315.27 80.87C315.27 80.31 313.54 78.68 312.72 78.95C311.92 79.2 308.65 81.25 308.65 81.25L294.22 77.86C294.22 77.86 290.58 69.55 290.22 62.42C287.21 62.83 285.16 63.58 282.54 65.03C283.8 71.85 286.87 82.92 290.26 84.99C291.69 85.86 308.72 83.94 308.72 83.94C308.72 83.94 312.26 84.44 313.14 84.19C316.75 83.19 315.27 82 315.27 80.87Z" fill="#FFE3CD"/>
<path d="M290.3 54.78C289.85 52.63 289.33 50.46 287 49.78C285.56 49.36 283.94 49.76 282.78 50.71C281.41 51.83 281.02 53.64 281.03 55.35C281.04 59.23 281.31 63.25 282.01 67.06C284.63 65.6 288.44 65.77 291.45 65.36C291.74 61.91 290.88 57.59 290.3 54.78Z" fill="#3A3C63"/>
<path d="M173.3 42.65C171.77 50.76 166.9 67.82 158.95 67.55C158.56 56.42 158.02 46.86 157.25 43.84C157.08 43.21 156.86 42.61 156.62 42.02C161.57 42.45 164.55 34.9 165.69 29.58C164.67 32.95 162.37 38.36 159.36 40.17C157.65 41.2 156.39 40.68 155.92 40.54C153.05 35.19 147.62 31.61 144.99 28.42C142.92 25.87 144.25 15.67 144.76 12.44C144.03 16.19 143.25 21.69 143.58 25.52C143.99 29.84 146.22 30.12 151.33 35.92C155.42 40.5 156.85 42.97 156.99 60.52C156.68 60.58 156.28 60.65 155.86 60.67C151.67 60.75 147.82 56.68 145.68 53.12C147.37 56.36 150.35 60.02 153.86 61.14C154.5 61.34 155.17 61.46 155.85 61.49C156.22 61.5 156.63 61.47 156.99 61.42C157.08 62.96 157.55 93.11 157.13 112.59C158.37 112.6 158.14 112.03 159.35 112.12C159.3 106.84 159.57 87.11 159.01 69.8C168.29 69.42 172.18 52.27 173.3 42.65Z" fill="#7FC4E2"/>
<path d="M139.29 16.03C141.18 17.55 144 17.17 144 17.17L137.15 11.68C137.15 11.68 137.4 14.52 139.29 16.03Z" fill="#69BA6C"/>
<path d="M137.15 11.68L144 17.17C144 17.17 143.75 14.34 141.86 12.82C139.97 11.31 137.15 11.68 137.15 11.68Z" fill="#81FFC3"/>
<path d="M171.09 66.26C173.51 66.17 175.4 64.04 175.4 64.04L166.63 64.37C166.63 64.38 168.67 66.36 171.09 66.26Z" fill="#69BA6C"/>
<path d="M166.63 64.38L175.4 64.05C175.4 64.05 173.36 62.07 170.94 62.16C168.52 62.25 166.63 64.38 166.63 64.38Z" fill="#81FFC2"/>
<path d="M173.63 57.44C175.29 56.37 175.72 54.1 175.72 54.1L169.73 57.97C169.73 57.98 171.98 58.51 173.63 57.44Z" fill="#69BA6C"/>
<path d="M169.73 57.98L175.72 54.11C175.72 54.11 173.47 53.57 171.82 54.64C170.17 55.71 169.73 57.98 169.73 57.98Z" fill="#81FFC2"/>
<path d="M165.07 57.11C165.75 58.96 167.87 59.88 167.87 59.88L165.4 53.19C165.4 53.19 164.38 55.26 165.07 57.11Z" fill="#69BA6C"/>
<path d="M165.4 53.19L167.87 59.88C167.87 59.88 168.88 57.8 168.2 55.95C167.52 54.11 165.4 53.19 165.4 53.19Z" fill="#81FFC2"/>
<path d="M145.63 21.12C144.15 22.15 143.82 24.24 143.82 24.24L149.18 20.51C149.19 20.51 147.11 20.09 145.63 21.12Z" fill="#69BA6C"/>
<path d="M149.19 20.51L143.83 24.24C143.83 24.24 145.9 24.66 147.38 23.63C148.86 22.6 149.19 20.51 149.19 20.51Z" fill="#81FFC2"/>
<path d="M166.11 36.08C164.31 35.94 162.73 37.35 162.73 37.35L169.24 37.86C169.25 37.86 167.91 36.22 166.11 36.08Z" fill="#69BA6C"/>
<path d="M169.25 37.86L162.74 37.35C162.74 37.35 164.08 38.99 165.88 39.13C167.67 39.27 169.25 37.86 169.25 37.86Z" fill="#81FFC2"/>
<path d="M146.87 56.59C145.07 56.45 143.49 57.86 143.49 57.86L150 58.37C150.01 58.36 148.67 56.73 146.87 56.59Z" fill="#69BA6C"/>
<path d="M150.01 58.36L143.5 57.85C143.5 57.85 144.84 59.49 146.64 59.63C148.43 59.77 150.01 58.36 150.01 58.36Z" fill="#81FFC2"/>
<path d="M150.25 54.76C149.59 53.08 147.64 52.27 147.64 52.27L150.02 58.36C150.01 58.36 150.9 56.44 150.25 54.76Z" fill="#69BA6C"/>
<path d="M150.01 58.36L147.63 52.27C147.63 52.27 146.74 54.19 147.39 55.87C148.06 57.56 150.01 58.36 150.01 58.36Z" fill="#81FFC2"/>
<path d="M163.11 33.77C162.71 32.69 161.47 32.16 161.47 32.16L162.93 36.07C162.92 36.07 163.51 34.85 163.11 33.77Z" fill="#69BA6C"/>
<path d="M162.92 36.07L161.46 32.16C161.46 32.16 160.87 33.38 161.27 34.46C161.68 35.54 162.92 36.07 162.92 36.07Z" fill="#81FFC2"/>
<path d="M141.49 25.06C139.8 24.42 137.89 25.33 137.89 25.33L144 27.65C144 27.65 143.17 25.7 141.49 25.06Z" fill="#69BA6C"/>
<path d="M144 27.65L137.89 25.33C137.89 25.33 138.71 27.28 140.4 27.92C142.09 28.55 144 27.65 144 27.65Z" fill="#81FFC2"/>
<path d="M162.98 112.19H163.93V74.82C163.93 74.56 163.72 74.34 163.45 74.34C163.19 74.34 162.97 74.55 162.97 74.82V112.19H162.98Z" fill="#BA696F"/>
<path d="M151.89 113.53C151.89 113.53 156.27 108.26 159.8 109.76C163.33 111.26 163.9 108.55 165.75 109.44C167.6 110.33 169.9 112.59 169.9 112.59L151.89 113.53Z" fill="#5474B1"/>
<path d="M160.35 85.38C159.35 85.38 158.18 85.15 156.92 84.49C156.81 84.43 156.76 84.29 156.82 84.18C156.88 84.07 157.02 84.02 157.13 84.08C160.92 86.08 163.66 83.95 163.78 83.86C163.88 83.78 164.02 83.8 164.1 83.9C164.18 84 164.16 84.14 164.06 84.22C164.05 84.23 162.59 85.38 160.35 85.38Z" fill="#6292CC"/>
<path d="M157.18 84.54L156.77 84.3C156.46 84.12 153.75 82.48 153.66 81.22C153.64 80.92 153.76 80.66 154.01 80.45C154.46 80.09 154.9 79.99 155.31 80.15C156.61 80.67 157.07 83.71 157.12 84.06L157.18 84.54ZM154.92 80.54C154.73 80.54 154.52 80.63 154.3 80.81C154.17 80.92 154.11 81.04 154.12 81.18C154.17 81.91 155.65 83.02 156.58 83.63C156.38 82.59 155.9 80.88 155.14 80.58C155.07 80.56 154.99 80.54 154.92 80.54Z" fill="#6292CC"/>
<path d="M154.28 87.33C154.12 87.33 153.89 87.27 153.72 86.98C153.58 86.74 153.55 86.48 153.65 86.23C154.02 85.23 156.19 84.47 156.43 84.39L156.99 84.2L156.7 84.72C156.46 85.15 155.21 87.32 154.29 87.33H154.28ZM155.96 85.06C155.23 85.37 154.26 85.88 154.07 86.39C154.02 86.52 154.03 86.63 154.1 86.75C154.18 86.88 154.24 86.88 154.27 86.88C154.68 86.86 155.41 85.94 155.96 85.06Z" fill="#6292CC"/>
<path d="M157.39 84.2C157.39 84.42 157.21 84.6 156.99 84.6C156.77 84.6 156.59 84.42 156.59 84.2C156.59 83.98 156.77 83.8 156.99 83.8C157.21 83.8 157.39 83.98 157.39 84.2Z" fill="#6292CC"/>
<path d="M1.53 243L2.92 244.18L4.61 243.4L6.08 244.84L7.63 243.45L9.36 245.01L10.94 243.91L12.85 245.13L12.39 245.85L10.96 244.94L9.29 246.1L7.63 244.61L6.06 246.02L4.44 244.43L2.78 245.19L1.49 244.09L0.51 244.82L0 244.13L1.53 243Z" fill="#FF818A"/>
<path d="M201.71 23.33L196.06 22.02L194.57 26.04L188.95 24.95L186.92 28.62L182.6 28.34L182.58 30.07L188.36 30.45L190.29 26.97L196.13 28.11L197.6 24.16L202.71 25.34L201.71 23.33Z" fill="#FF818A"/>
<path d="M362.05 114.54L364.09 111.1L362.41 107.47C362.22 107.06 362.58 106.6 363.03 106.7L366.93 107.57L369.86 104.85C370.19 104.54 370.74 104.75 370.78 105.2L371.15 109.18L374.64 111.13C375.04 111.35 375.01 111.93 374.59 112.11L370.92 113.7L370.15 117.62C370.06 118.07 369.5 118.22 369.2 117.88L366.56 114.88L362.59 115.36C362.13 115.42 361.82 114.93 362.05 114.54Z" fill="#7FC4E2"/>
<path d="M26.37 210.14C26.37 210.14 27 208.36 29.12 207.72C31.01 207.15 32.76 208.26 33.28 210.01C33.89 212.03 32.84 214.95 28.86 218.41C23.64 217.72 21.15 215.86 20.54 213.84C20.02 212.09 20.86 210.21 22.75 209.64C24.86 209 26.37 210.14 26.37 210.14Z" fill="#7FC4E2"/>
<path d="M11.02 215.63C12.94 215.38 14.47 215.08 15.96 214.71C16.45 214.59 17.34 214.52 17.58 214.02C17.7 213.76 17.67 213.48 17.41 213.31C16.95 212.99 16.25 213.33 15.75 213.46C14.24 213.83 12.51 214.18 10.75 214.43C10.42 214.48 10.21 214.86 10.28 215.17C10.36 215.51 10.69 215.67 11.02 215.63Z" fill="#7FC4E2"/>
<path d="M37.19 213.32C37.92 213.15 38.64 212.98 39.36 212.8C40.05 212.63 40.9 212.55 41.5 212.16C41.94 211.87 41.83 211.22 41.27 211.16C40.55 211.09 39.78 211.4 39.09 211.57C38.37 211.75 37.64 211.93 36.93 212.12C36.15 212.31 36.41 213.49 37.19 213.32Z" fill="#7FC4E2"/>
<path d="M20 223.47C20.54 221.73 21.53 220.99 22.23 220.2C22.61 219.78 22.19 219.17 21.66 219.39C20.2 220 19.25 221.67 18.82 223.11C18.59 223.87 19.76 224.23 20 223.47Z" fill="#7FC4E2"/>
<path d="M29.26 225.26C29.05 224.52 28.99 223.76 29.09 223C29.15 222.53 29.73 221.13 28.82 221.12C27.97 221.1 27.86 222.52 27.8 223.12C27.72 223.93 27.81 224.75 28.04 225.53C28.27 226.29 29.48 226.03 29.26 225.26Z" fill="#7FC4E2"/>
<path d="M34.29 219.22C34.76 219.41 35.24 219.61 35.71 219.8C36.18 219.99 36.67 220.33 37.17 220.09C37.45 219.96 37.5 219.63 37.4 219.37C37.22 218.9 36.51 218.76 36.08 218.59C35.61 218.4 35.13 218.21 34.66 218.01C34.34 217.88 33.97 218.13 33.88 218.43C33.76 218.79 33.97 219.09 34.29 219.22Z" fill="#7FC4E2"/>
<path d="M20.32 206.91C17.89 203.59 17.92 203.56 17.53 203.33C17.14 203.1 16.61 203.45 16.72 203.91C16.83 204.37 16.82 204.29 19.39 207.78C19.59 208.06 20.06 208.03 20.29 207.81C20.56 207.56 20.53 207.19 20.32 206.91Z" fill="#7FC4E2"/>
<path d="M26.91 205.28C27 204.61 27.02 203.93 26.97 203.26C26.92 202.63 26.93 201.66 26.27 201.38C26.13 201.32 25.9 201.38 25.8 201.49C25.37 201.96 25.68 202.76 25.72 203.34C25.77 203.97 25.75 204.61 25.68 205.24C25.65 205.57 25.95 205.87 26.27 205.88C26.63 205.88 26.86 205.61 26.91 205.28Z" fill="#7FC4E2"/>
<path d="M36.37 203.63C36.41 203.32 36.12 203.11 35.85 203.07C35.3 202.99 34.77 203.64 34.41 203.98C33.99 204.39 33.62 204.83 33.27 205.3C33.07 205.57 33.2 205.99 33.47 206.16C33.78 206.35 34.12 206.22 34.33 205.96C35.7 204.24 36.27 204.39 36.37 203.63Z" fill="#7FC4E2"/>
<path d="M410.4 160.69C409.8 165.44 414.74 169.21 419.14 168.91C424 168.58 428.13 164.59 428.84 159.82C429.61 154.65 426.5 150.51 421.7 150.13C417.02 149.76 414.03 153.93 415.38 158.13C416.35 161.14 419.1 162.27 420.48 161.44C421.56 160.79 421.49 159.16 420.19 158.87C419.67 158.75 419.13 159.05 418.85 159.45C417.71 159 416.62 156.91 417.36 154.66C418.3 151.79 421.94 151.62 424.19 152.96C427.06 154.67 427.51 158.34 426.46 161.27C425.35 164.34 422.34 166.76 419.05 167C415.33 167.26 412.05 164.41 411.75 160.7C411.67 159.82 410.5 159.84 410.4 160.69Z" fill="#7FC4E2"/>
<path d="M29.1 262.98C28.79 265.41 31.32 267.34 33.58 267.19C36.07 267.02 38.18 264.98 38.55 262.53C38.94 259.88 37.35 257.76 34.89 257.57C32.49 257.38 30.96 259.51 31.65 261.67C32.15 263.21 33.55 263.79 34.26 263.36C34.81 263.03 34.78 262.19 34.11 262.04C33.84 261.98 33.57 262.13 33.42 262.34C32.83 262.11 32.28 261.04 32.65 259.89C33.13 258.42 34.99 258.33 36.15 259.02C37.62 259.89 37.85 261.78 37.31 263.27C36.74 264.84 35.2 266.08 33.51 266.2C31.6 266.34 29.93 264.87 29.77 262.97C29.75 262.54 29.16 262.55 29.1 262.98Z" fill="#FF818A"/>
<path d="M202.74 68.51C202.43 70.94 204.96 72.87 207.22 72.72C209.71 72.55 211.82 70.51 212.19 68.06C212.58 65.41 210.99 63.29 208.53 63.1C206.13 62.91 204.6 65.04 205.29 67.2C205.79 68.74 207.19 69.32 207.9 68.89C208.45 68.56 208.42 67.72 207.75 67.57C207.48 67.51 207.21 67.66 207.06 67.87C206.47 67.64 205.92 66.57 206.29 65.42C206.77 63.95 208.63 63.86 209.79 64.55C211.26 65.42 211.49 67.31 210.95 68.8C210.38 70.37 208.84 71.61 207.15 71.73C205.24 71.87 203.57 70.4 203.41 68.5C203.39 68.07 202.79 68.08 202.74 68.51Z" fill="#FF818A"/>
<path d="M40.74 157.65L40.7 153.1L36.93 150.55C36.5 150.26 36.59 149.6 37.08 149.44L41.4 148L42.66 143.62C42.8 143.12 43.46 143 43.76 143.42L46.47 147.08L51.02 146.93C51.54 146.91 51.85 147.5 51.55 147.92L48.9 151.62L50.45 155.9C50.63 156.39 50.17 156.87 49.67 156.71L45.33 155.34L41.74 158.14C41.34 158.45 40.74 158.17 40.74 157.65Z" fill="#6292CC"/>
<path d="M370.73 213.89C370.58 211.79 372.17 209.98 374.26 209.83C376.36 209.68 378.17 211.27 378.32 213.36C378.47 215.46 376.88 217.27 374.79 217.42C372.69 217.57 370.87 215.98 370.73 213.89Z" fill="#86B6E6"/>
<path d="M377.18 224.63C376.95 223.53 376.82 222.34 376.44 221.28C376.12 220.37 374.69 220.64 374.76 221.63C374.85 222.83 375.22 224.05 375.48 225.23C375.58 225.71 376.21 225.93 376.63 225.78C377.14 225.6 377.28 225.11 377.18 224.63Z" fill="#86B6E6"/>
<path d="M383.7 219.92C382.44 219.18 381.34 218.26 380.18 217.38C379.27 216.69 378.29 217.87 379.04 218.69C380.11 219.86 381.52 220.78 382.88 221.58C383.31 221.83 383.91 221.59 384.12 221.16C384.35 220.68 384.13 220.17 383.7 219.92Z" fill="#86B6E6"/>
<path d="M381.31 213.11C381.02 213.34 380.97 213.67 381.14 213.99C381.57 214.76 382.65 214.72 383.42 214.7C384.22 214.67 385.02 214.51 385.78 214.25C386.9 213.87 386.29 212.13 385.17 212.51C382.97 213.26 382.14 212.44 381.31 213.11Z" fill="#86B6E6"/>
<path d="M380.1 205.71C378.99 207.33 378.09 207.88 378.23 208.77C378.31 209.29 378.72 209.54 379.23 209.43C379.82 209.29 380.15 208.66 380.51 208.22C380.85 207.8 381.19 207.37 381.49 206.92C381.77 206.51 381.81 205.98 381.4 205.63C381.05 205.33 380.38 205.3 380.1 205.71Z" fill="#86B6E6"/>
<path d="M375.79 205.43C375.44 204.45 375.36 204.09 374.9 203.63C374.5 203.23 373.66 203.49 373.6 204.07C373.54 204.75 373.68 205 374.05 206.04C374.22 206.51 374.75 206.77 375.23 206.6C375.69 206.44 375.96 205.9 375.79 205.43Z" fill="#86B6E6"/>
<path d="M371.13 207.81C369.53 206.6 369.21 206.26 368.58 206.32C368.21 206.36 367.8 206.71 367.88 207.12C368.03 207.89 368.48 208.09 369.94 209.17C370.33 209.46 370.87 209.47 371.21 209.08C371.52 208.73 371.52 208.1 371.13 207.81Z" fill="#86B6E6"/>
<path d="M364.72 213.36C364.09 213.69 364.34 214.78 365.03 214.87C365.68 214.96 365.94 214.85 369.1 214.27C369.59 214.18 369.99 213.82 369.96 213.29C369.93 212.84 369.47 212.35 368.98 212.43C365.68 213.03 365.35 213.03 364.72 213.36Z" fill="#86B6E6"/>
<path d="M369.68 218.55C367.94 220.23 367.69 219.93 367 220.96C366.69 221.43 367.2 222.18 367.75 222.08C368.45 221.95 368.64 221.83 369.55 221.11C370.08 220.69 370.59 220.24 371.08 219.77C371.44 219.42 371.34 218.77 370.99 218.46C370.58 218.1 370.04 218.2 369.68 218.55Z" fill="#86B6E6"/>
<path d="M72.35 366.42H76.07V168.84C76.07 167.81 75.24 166.98 74.21 166.98C73.18 166.98 72.35 167.81 72.35 168.84V366.42Z" fill="#6292CC"/>
<path d="M97.49 366.42H101.21V165.49C101.21 164.46 100.38 163.63 99.35 163.63C98.32 163.63 97.49 164.46 97.49 165.49V366.42Z" fill="#6292CC"/>
<path d="M100.61 188.4H75V190.63H100.61V188.4Z" fill="#6292CC"/>
<path d="M100.61 218.27H75V220.5H100.61V218.27Z" fill="#6292CC"/>
<path d="M100.61 248.15H75V250.38H100.61V248.15Z" fill="#6292CC"/>
<path d="M100.61 278.03H75V280.26H100.61V278.03Z" fill="#6292CC"/>
<path d="M82.14 296.99H65.99C64.66 296.99 63.57 298.07 63.57 299.4V308.47H66.27V299.87H82.14V296.99Z" fill="#39445A"/>
<path d="M85.23 290.87L80.22 285.59C80.22 285.59 74.86 288.54 68.61 291.35C66.89 288.36 64.09 278.53 63.94 278.06C63.79 277.59 67.22 271.68 66.46 271.53C65.69 271.38 64.69 274.68 63.88 274.35C63.07 274.01 60.98 266.35 60.49 266.77C59.58 267.55 61.59 271.54 61.11 271.83C60.63 272.12 59.4 267.41 58.47 267.62C57.54 267.82 60.04 271.9 59.77 272.3C59.5 272.69 56.88 268.86 56.34 269.75C56.05 270.23 58.75 273.09 58.2 273.41C57.64 273.73 55.2 271.93 54.91 272.51C54.62 273.09 57.19 273.7 57.9 275.17C58.61 276.64 59.91 277.22 60.34 280C60.77 282.78 61.95 297.68 64.98 298.87C67.63 299.91 85.23 290.87 85.23 290.87Z" fill="#FFE3CD"/>
<path d="M131.42 359.53C131.82 356.72 131.78 351.53 131.58 346.06C134.03 345.94 136.1 345.78 138.55 345.62C137.53 352.61 136.84 359.8 136.84 359.8L137.01 361.18L137.1 365.27L123.23 365.37C123.23 365.37 126.15 364.07 130.24 361.51C130.55 361.34 131.25 360.73 131.42 359.53Z" fill="#FFE3CD"/>
<path d="M137.48 366.16L122.86 366.33C122.33 366.28 122.2 365.85 122.39 365.59C122.77 365.05 124.44 364.65 126.32 363.78C129.61 364.12 136.5 361.87 137.02 361.12C137.31 362.63 137.78 366.09 137.48 366.16Z" fill="#3A3C63"/>
<path d="M156.27 356.63C155.13 354.03 152.36 349.64 149.31 345.1C151.33 343.7 153.33 342.28 155.32 340.85C158.14 347.33 161.03 354 161.03 354L161.9 355.09L164.13 358.52L152.4 365.92C152.4 365.92 154.2 363.28 156.33 358.95C156.48 358.63 156.76 357.75 156.27 356.63Z" fill="#FFE3CD"/>
<path d="M164.74 359.38L152.57 366.93C152.09 367.17 151.76 366.87 151.78 366.55C151.81 365.89 153.02 364.67 154.16 362.94C157.14 361.5 161.78 355.92 161.82 355C162.88 356.13 164.96 359.17 164.74 359.38Z" fill="#3A3C63"/>
<path d="M150.56 242.41C151.64 237.12 148.24 231.88 143.47 229.91C143.5 226.9 142.53 223.09 140.47 221.03C136.42 216.97 128.68 215.54 125.7 220.72C121.76 222.95 118.67 227.77 119.84 232.17C116.02 236.12 117.47 243.27 123.04 246.65C122.95 251.08 125.3 255.49 129.17 257.39C130.1 257.85 131.56 258.48 131.74 258.68C131.5 258.45 134.61 267.12 144.29 263.15C154.17 259.09 157 247.69 150.56 242.41Z" fill="#4F372B"/>
<path d="M131.16 355.56C132.36 348.9 128.19 332.38 125.64 325.12C122.99 317.57 121.31 285.6 121.31 285.6L124.31 282.09L136.56 281.36C136.56 281.36 131.35 297.37 131.35 302.87C131.35 308.37 133.88 322.57 136.86 329.96C139.61 336.78 138.47 351.07 137.63 355.77C135.43 356.13 133.33 356 131.16 355.56Z" fill="#BA696F"/>
<path d="M139.66 282.85C140.22 283.41 143.51 287.31 143.51 290.03C143.51 292.75 137.31 317.27 138.8 318.76C140.29 320.25 145.8 323.97 149.31 329.15C152.27 333.52 159.06 346.14 160.36 349.15C157.8 350.93 155.58 351.74 153.02 352.6C152.61 350.36 132.55 328.26 130.26 323.63C127.97 319.01 126.73 297.87 125.57 295.07C124.41 292.26 121.32 285.13 121.32 285.13L139.66 282.85Z" fill="#FF818A"/>
<path d="M121.8 264.78C121.8 264.78 114.24 273.41 105.87 276.65C104.56 277.16 103.44 278.15 103.44 278.15C103.44 279.03 105.01 278.39 105.01 278.39C105.01 278.39 104.48 279.25 104.76 280.29C105.04 281.34 106.86 280.64 107.85 280.64C108.3 280.64 110.64 278.03 113.79 276.49C117.52 274.67 121.92 272.9 122.45 272.36C123.44 271.39 122.09 264.46 121.8 264.78Z" fill="#FFE3CD"/>
<path d="M137.17 240.5C137.17 240.5 129.56 239.73 125.59 242.26C121.62 244.79 119.08 253.82 119.08 257.67C119.08 261.52 121.94 281.78 120.84 285.63C120.84 285.63 133.41 285.08 137.71 285.08C142.01 285.08 142.89 283.43 142.89 283.43C142.89 283.43 133.96 274.62 133.96 270.77C133.97 266.92 137.17 240.5 137.17 240.5Z" fill="#3A3C63"/>
<path d="M33.28 344.27V357.47H34.71V345.47H44.17V349.59C40.51 349.98 37.66 353.36 37.66 357.47C37.66 361.84 40.9 365.39 44.89 365.39C48.88 365.39 52.12 361.85 52.12 357.47C52.12 353.36 49.26 349.98 45.61 349.59V345.47H47.57V343.91H45.61V339.16H47.57V337.6H45.61V332.31H71.49V329.96H57.19V316.52C57.19 312.93 60.49 308.92 64.9 308.92H77.19V306.57H64.89C59.64 306.57 55.03 311.22 55.03 316.52V329.96H45.59V322.42H44.16V337.59H39.37C36.01 337.59 33.28 340.59 33.28 344.27ZM44.17 343.91H34.72C34.89 341.26 36.91 339.16 39.38 339.16H44.17V343.91Z" fill="#3A3C63"/>
<path d="M38.88 346.34C38.88 346.34 39.17 351.43 39.17 351.44C39.28 352.09 39.69 353.68 39.69 354.27C39.69 356.48 29.87 352.4 32.07 351.42C32.27 351.33 33.4 350.11 33.69 349.41C34.2 348.17 34.42 345.73 34.42 345.73L38.88 346.34Z" fill="#D58B7F"/>
<path d="M32.1 351.4C32.1 351.4 34.4 352.08 35.59 352.24C36.77 352.41 38.33 350.99 39.16 351.37C40.08 351.79 40.13 355.67 40.13 355.67C40.13 355.67 27.79 356.08 24.21 355.55C22.78 355.35 27.39 352.97 32.1 351.4Z" fill="#556CAA"/>
<path d="M88.03 335.47H90.74V283.81C90.74 282.07 92.45 280.65 94.54 280.65H118.93C119.58 280.65 120.11 280.15 120.11 279.52C120.11 278.9 119.58 278.39 118.93 278.39H94.54C90.95 278.39 88.02 280.82 88.02 283.8V335.47H88.03Z" fill="#3A3C63"/>
<path d="M75.31 324.64C84.35 324.64 91.67 332.03 91.67 341.15C91.67 350.27 84.34 357.66 75.31 357.66C66.27 357.66 58.95 350.27 58.95 341.15C58.95 332.03 66.27 324.64 75.31 324.64Z" fill="#3A3C63"/>
<path d="M55.39 341.15C55.39 352.25 64.31 361.25 75.32 361.25C86.32 361.25 95.25 352.25 95.25 341.15C95.25 330.05 86.33 321.05 75.32 321.05C64.31 321.04 55.39 330.04 55.39 341.15ZM57.27 341.15C57.27 331.1 65.35 322.95 75.31 322.95C85.27 322.95 93.35 331.1 93.35 341.15C93.35 351.2 85.27 359.35 75.31 359.35C65.35 359.35 57.27 351.2 57.27 341.15Z" fill="#3A3C63"/>
<path d="M88.3861 318.242H96.3961V287.222H88.3861V318.242Z" fill="#7FC4E2"/>
<path d="M62.13 337.59H55.36C51.71 337.59 48.74 340.59 48.74 344.27V357.47H50.29V344.27C50.29 341.45 52.56 339.15 55.36 339.15H62.13V337.59Z" fill="#7FC4E2"/>
<path d="M38.2759 323.845H59.3259V320.234H38.2759V323.845Z" fill="#3A3C63"/>
<path d="M62.01 343.91H49.51V345.47H62.01V343.91Z" fill="#7FC4E2"/>
<path d="M90.2 329.96H61.33V332.31H90.2V329.96Z" fill="#7FC4E2"/>
<path d="M58.8144 323.849H96.4044V320.179H58.8144V323.849Z" fill="#3A3C63"/>
<path d="M95.24 338.24H97.56V286.58C97.56 284.84 99.02 283.42 100.82 283.42H122.75V281.17H100.82C97.74 281.17 95.23 283.6 95.23 286.58V338.24H95.24Z" fill="#7FC4E2"/>
<path d="M52.61 357.47C52.61 361.84 56.52 365.39 61.33 365.39C66.15 365.39 70.05 361.85 70.05 357.47C70.05 353.1 66.14 349.55 61.33 349.55C56.51 349.55 52.61 353.09 52.61 357.47Z" fill="#3A3C63"/>
<path d="M56.02 357.47C56.02 360.13 58.4 362.29 61.33 362.29C64.26 362.29 66.64 360.13 66.64 357.47C66.64 354.81 64.26 352.65 61.33 352.65C58.4 352.65 56.02 354.8 56.02 357.47Z" fill="#7FC4E2"/>
<path d="M40.06 306.58C42.58 304.06 77.75 305.27 77.75 305.27C77.75 305.27 47.96 312.54 46.22 313.49C44.48 314.44 38.01 346.43 38 346.85C36.2 346.42 35.12 346.75 33.29 346.37C33.57 340.81 35.99 310.64 40.06 306.58Z" fill="#5474B1"/>
<path d="M43.48 346.5C43.48 346.5 43.77 351.59 43.77 351.6C43.88 352.25 44.29 353.84 44.29 354.43C44.29 356.64 34.47 352.56 36.67 351.58C36.87 351.49 38.22 350.32 38.29 349.57C38.39 348.41 38.34 346.57 38.34 346.57L43.48 346.5Z" fill="#DDA191"/>
<path d="M36.7 351.56C36.7 351.56 39 352.24 40.18 352.4C41.36 352.57 42.92 351.15 43.75 351.53C44.67 351.95 44.72 355.83 44.72 355.83C44.72 355.83 32.38 356.24 28.8 355.72C27.38 355.51 31.99 353.13 36.7 351.56Z" fill="#556CAA"/>
<path d="M83.22 312.49C83.22 312.49 82.92 320.47 80.26 320.57C77.6 320.67 60.55 321.05 50.95 320.18L44.49 348.73L36.9 348C36.9 348 39.19 328.93 40 321.68C40.8 314.54 43.1 308.56 47.14 308.41C51.17 308.26 77.7 304.16 77.7 304.16L83.22 312.49Z" fill="#6292CC"/>
<path d="M90.37 275.23C90.37 275.23 94.67 276.32 94.09 284.73C93.51 293.14 88.86 318.57 80.26 320.57C71.66 322.57 66.06 304.46 66.06 304.46C66.06 304.46 71.48 302.68 73.74 294.26C75.31 288.43 79.5 275.27 80.55 274.64C83.17 273.07 90.37 275.23 90.37 275.23Z" fill="#FF818A"/>
<path d="M72.35 331.77H74.68V316.53C74.68 312.94 78.26 308.93 83.05 308.93H96.4V306.58H83.05C77.35 306.58 72.35 311.23 72.35 316.53V331.77Z" fill="#7FC4E2"/>
<path d="M96.4 362.29C106.777 362.29 115.19 353.801 115.19 343.33C115.19 332.859 106.777 324.37 96.4 324.37C86.0226 324.37 77.61 332.859 77.61 343.33C77.61 353.801 86.0226 362.29 96.4 362.29Z" fill="#7FC4E2"/>
<path d="M73.52 343.33C73.52 356.08 83.77 366.42 96.41 366.42C109.05 366.42 119.3 356.08 119.3 343.33C119.3 330.58 109.05 320.24 96.41 320.24C83.77 320.24 73.52 330.57 73.52 343.33ZM75.68 343.33C75.68 331.79 84.96 322.43 96.4 322.43C107.84 322.43 117.12 331.79 117.12 343.33C117.12 354.87 107.84 364.23 96.4 364.23C84.96 364.23 75.68 354.87 75.68 343.33Z" fill="#7FC4E2"/>
<path d="M80.9 343.33C80.9 351.97 87.84 358.97 96.4 358.97C104.96 358.97 111.9 351.97 111.9 343.33C111.9 334.69 104.96 327.69 96.4 327.69C87.84 327.69 80.9 334.69 80.9 343.33Z" fill="#3A3C63"/>
<path d="M92.91 343.33C92.91 345.27 94.47 346.85 96.4 346.85C98.33 346.85 99.89 345.27 99.89 343.33C99.89 341.39 98.33 339.81 96.4 339.81C94.47 339.81 92.91 341.38 92.91 343.33Z" fill="#7FC4E2"/>
<path d="M27.2744 359.875H50.9344V355.775H27.2744V359.875Z" fill="#3A3C63"/>
<path d="M37.5047 359.875H50.9347V355.775H37.5047V359.875Z" fill="#7FC4E2"/>
<path d="M62.11 323.8H60.56V359.87H62.11V323.8Z" fill="#7FC4E2"/>
<path d="M60.41 357.93C60.41 358.46 60.84 358.9 61.37 358.9C61.9 358.9 62.33 358.47 62.33 357.93C62.33 357.4 61.9 356.96 61.37 356.96C60.84 356.96 60.41 357.39 60.41 357.93Z" fill="#3A3C63"/>
<path d="M87.78 252.72C87.78 252.72 90.8 250.68 92.07 254.25C92.06 254.22 93.13 254.23 93.28 254.28C93.9 254.49 94.5 255.14 95.05 255.49C97.02 256.75 97.93 259.2 98.03 261.45C98.16 264.18 97.03 266.18 95.24 268.15C94.71 268.73 94.15 269.3 93.45 269.67C92.61 270.12 91.95 269.76 91.17 269.95C90.51 270.11 90.28 270.81 89.5 270.56C88.41 270.21 87.26 268.84 85.9 269.04C84.55 269.24 81.42 268.02 81.41 268.02C77.39 266.45 80.11 258.68 80.88 255.92C81.6 253.33 85.29 251.78 87.78 252.72Z" fill="#2A2A2A"/>
<path d="M84.15 270.38L83.11 273.23L82.55 274.82C82.55 274.82 82.51 277.67 83.17 278.41C84.31 279.68 89.01 274.97 89.01 274.97L90.5 266.02L84.15 270.38Z" fill="#FFE3CD"/>
<path d="M90.01 268.91C88.22 271.68 85.14 272.95 83.09 273.25L84.14 270.38L90.49 266.01L90.01 268.91Z" fill="#BD916C"/>
<path d="M89.28 256.82C86.89 255.36 83.75 256.47 82.76 259.05C82.33 260.17 81.85 261.6 81.47 263.19C80.55 267.01 81.71 271.18 83.46 271.57C85.2 271.95 90.57 270.53 91.94 265.13C92.79 261.78 91.79 258.35 89.28 256.82Z" fill="#FFE3CD"/>
<path d="M90.56 265.26C90.37 266.11 90.78 266.92 91.47 267.07C92.16 267.22 92.87 266.66 93.06 265.81C93.25 264.96 92.84 264.15 92.15 264C91.46 263.86 90.75 264.42 90.56 265.26Z" fill="#FFE3CD"/>
<path d="M85.18 266.85C85.18 266.85 87.48 267.6 87.66 268.44C87.85 269.28 87.57 270.5 86.44 271.44C85.32 272.38 82.91 271.8 82.25 271.28C81.59 270.76 81.09 268.58 81.75 267.36C82.42 266.15 85.18 266.85 85.18 266.85Z" fill="#2A2A2A"/>
<path d="M85.93 268.62C85.93 268.62 85.92 269.56 85.6 269.73C85.3 269.89 84.91 270.03 84.55 270.07C83.97 270.12 83.45 269.88 83.15 269.43C83.12 269.39 83.09 269.34 83.07 269.29C82.84 268.82 82.79 267.99 82.79 267.99C82.79 267.99 83.76 267.76 84.32 267.85C84.88 267.94 85.93 268.62 85.93 268.62Z" fill="#FFE3CD"/>
<path d="M110.76 279.58C111.67 278.67 115.89 277.27 119.09 274.96C120.5 273.94 123.22 272.59 125.87 271.13C127.8 272.2 129.55 273.55 130.86 275.15C126.07 277.35 120.88 279.56 120.09 280.35C118.6 281.84 116.01 285.19 115.4 285.19C114.79 285.19 110.19 283.84 109.5 283.15C108.8 282.46 109.85 280.48 110.76 279.58Z" fill="#FFE3CD"/>
<path d="M125.87 271.12C129.21 269.27 132.43 267.24 132.76 265.43C133.37 262.18 130.61 248.15 132.15 245.45C133.69 242.75 137.17 240.5 137.17 240.5C137.72 240.5 139.71 241.71 140.26 244.13C140.81 246.55 139.82 268.35 139.27 270.33C139.01 271.26 135.24 274.96 131 276.91C129.69 275.3 127.8 272.19 125.87 271.12Z" fill="#7FC4E2"/>
<path d="M91.49 300.51L78.19 304C78.19 304 74.28 306.82 72.52 307.38C70.76 307.94 68.61 309.88 69.03 310.47C69.45 311.06 71.66 309.04 72.02 309.11C72.38 309.17 70.72 311.56 70.45 313.13C70.18 314.7 69.64 316.22 70.54 316.1C71.44 315.98 72.09 312.45 72.09 312.45C72.09 312.45 73.47 309.78 73.7 310.1C73.92 310.41 72.78 312.25 72.78 312.25C72.78 312.25 72.51 314.23 72.39 314.93C72.3 315.45 72.78 317.01 73.19 316.44C73.43 316.1 73.32 314.81 73.6 314.08C74.17 312.57 75.1 311.38 75.1 311.38C75.1 311.38 74.1 315.9 74.73 316C75.36 316.11 76.01 312.37 76.01 312.37C76.01 312.37 77.55 309.25 78.22 308.98C78.89 308.7 80.73 307.52 82.16 307.02C83.58 306.53 89.47 308.15 92.1 308.19C94.73 308.22 98.99 306.6 99.34 304.54C99.45 303.91 99.06 303.21 98.46 302.55C96.71 300.6 94 299.86 91.49 300.51Z" fill="#FFE3CD"/>
<path d="M90.37 275.23C90.37 275.23 94.39 274.51 98.04 281.07C101.68 287.62 99.32 304.52 99.32 304.52L91.49 300.52L90.37 275.23Z" fill="#BA696F"/>
<path d="M108.3 280.88C107.83 280.88 105.35 281.04 104.96 280.65C104.57 280.26 106.24 279.27 106.41 279.43C106.58 279.6 107.29 279.23 107.52 279.46C107.76 279.7 108.47 279.43 108.67 279.63C108.87 279.84 108.77 280.88 108.3 280.88Z" fill="#FFE3CD"/>
<path d="M133.22 233.71C133.22 233.71 132.37 238.37 132.54 240.21C132.71 242.05 131.89 247.97 128.23 247.99C124.57 248.01 127.06 241.84 127.4 240.04C127.74 238.24 128.3 231.29 128.3 231.29L133.22 233.71Z" fill="#FFE3CD"/>
<path d="M128.09 233.92C128.15 232.4 128.42 231.18 128.42 231.18L133.22 233.71C133.22 233.71 133.05 234.66 132.87 235.88C130.73 236.33 129.02 235.33 128.09 233.92Z" fill="#BD916C"/>
<path d="M133.32 220.18C133.32 220.18 135.38 220.91 136.5 223.16C137.62 225.4 137.99 231.68 133.47 234.09C128.95 236.5 125.96 232.05 126.24 228.07C126.53 224.08 127.79 218.86 133.32 220.18Z" fill="#FFE3CD"/>
<path d="M124.91 226.95C124.79 227.98 125.16 228.86 125.73 228.92C126.3 228.97 126.86 228.18 126.98 227.15C127.1 226.12 126.73 225.24 126.16 225.18C125.59 225.12 125.03 225.92 124.91 226.95Z" fill="#FFE3CD"/>
<path d="M136.11 228.69C135.71 229.69 135.91 230.74 136.55 231.03C137.19 231.32 138.03 230.75 138.43 229.75C138.83 228.75 138.63 227.7 137.99 227.41C137.35 227.12 136.51 227.69 136.11 228.69Z" fill="#FFE3CD"/>
<path d="M358.41 49.4L367.24 61.52L373.08 55.13L358.41 49.4Z" fill="#3A3C63"/>
<path d="M373.88 51.78L373.08 55.13L358.41 49.4L373.88 51.78Z" fill="#7FC4E2"/>
<path d="M373.08 56.4L358.41 49.4L372.05 61.52L373.08 56.4Z" fill="#7FC4E2"/>
<path d="M382 70.92C381.89 70.91 379.31 70.64 376.04 68.61C372.76 66.57 371.53 63 371.53 62.43C371.53 62.21 371.71 62.03 371.93 62.03C372.15 62.03 372.32 62.2 372.33 62.42C372.37 62.8 373.41 66.04 376.47 67.94C379.57 69.87 382.06 70.13 382.08 70.13C382.3 70.15 382.46 70.34 382.44 70.56C382.41 70.78 382.21 70.94 382 70.92Z" fill="#86B6E6"/>
<path d="M398.03 74.51C393.46 73.59 389.08 71.9 385.03 69.49C381.69 67.5 379 64.47 375.59 62.79C375.39 62.69 375.31 62.46 375.41 62.26C375.51 62.06 375.74 61.98 375.94 62.08C379.47 63.82 382.14 66.85 385.43 68.81C389.41 71.18 393.7 72.83 398.18 73.73C399.83 74.06 401.78 74.18 403.99 74.09C404.21 74.08 404.39 74.25 404.4 74.47C404.41 74.69 404.24 74.87 404.02 74.88C402.07 74.96 399.96 74.89 398.03 74.51Z" fill="#86B6E6"/>
<path d="M204.4 213.36C204.4 213.36 194.69 196.03 192.33 192.35C189.97 188.67 183.81 174.03 183.59 173.45C183.37 172.87 187.83 165.95 186.83 165.71C185.84 165.47 184.73 169.36 183.67 168.9C182.61 168.44 179.51 159.07 178.9 159.54C177.77 160.41 180.57 165.35 179.97 165.66C179.37 165.97 177.54 160.23 176.35 160.39C175.17 160.56 178.6 165.66 178.27 166.11C177.94 166.56 174.37 161.76 173.72 162.78C173.37 163.34 177 166.97 176.3 167.31C175.6 167.65 172.37 165.3 172.03 165.98C171.69 166.66 175.02 167.58 176.01 169.41C177.01 171.23 178.7 172.02 179.41 175.4C180.11 178.78 181.17 191.01 184.78 197.11C188.39 203.21 196.32 216.71 196.32 216.71L204.4 213.36Z" fill="#FFE3CD"/>
<path d="M247.43 296.99C247.43 296.99 246.64 296 246.4 295.66C246.12 295.25 245.38 293.97 245.38 293.97C245.38 293.97 243.02 289.37 243.37 289.22C243.72 289.07 244.57 289.64 244.82 289.87C245.07 290.1 245.37 290.35 245.62 290.58C245.86 290.81 246.24 290.82 246.55 290.54C246.86 290.26 246.08 289.11 245.74 288.77C244.66 287.71 241.19 285.45 240.84 285.2C240.42 284.9 237.79 276.16 236.65 273.24C234.93 268.4 233.4 263.34 233.22 262.83L232.13 240.86L223.92 238.12C223.92 238.12 224.78 262.52 224.96 263.74C225.05 264.32 229.91 275.23 229.91 275.22C232.64 280.44 235.06 285.03 235.5 285.93C235.5 285.93 236.1 288.96 236.36 290.92C236.63 292.87 237.65 294.56 237.81 295.1C237.83 295.18 238.28 297.06 239.63 299C240.8 300.68 240.46 298.54 240.46 298.54C240.46 298.54 238.86 295.03 239.15 294.95C239.38 294.89 240.14 296.85 241.42 298.72C241.75 299.2 242.07 299.67 242.37 300.11C243.16 301.24 244.09 301.07 243.45 299.75C243.22 299.28 242.83 298.52 242.47 298.01C242.08 297.46 241.9 296.83 241.65 296.32C241.14 295.31 240.76 294.58 240.82 294.58C240.89 294.58 240.93 294.31 241.29 294.81C241.73 295.41 242.37 296.9 243.08 297.73C243.48 298.2 244.26 299.24 244.26 299.24C244.26 299.24 245.71 300.78 245.82 300.72C246.41 300.39 245.68 298.98 245.05 298.41C244.83 297.84 243.98 296.77 243.98 296.77C243.98 296.77 242.74 294.21 243.1 294.03C243.4 293.88 247.55 299.41 248.11 299.03C248.6 298.71 247.43 296.99 247.43 296.99Z" fill="#FFE3CD"/>
<path d="M232.75 211.39C232.95 206.6 232.24 201.86 230.1 197.4C228.25 193.56 223.69 191.38 219.53 191.38C206.31 191.36 204.63 208.83 196.21 215.57C193.64 217.63 190.76 219.31 188.33 221.53C179.35 229.73 183.39 244.9 191.64 252.09C197.37 257.08 206.36 259.91 213.42 256.01C217.1 253.97 219.9 250.59 221.89 246.89C224.72 241.63 226.54 235.56 228.55 229.95C230.69 223.97 232.48 217.76 232.75 211.39Z" fill="#2A2A2A"/>
<path d="M191.42 365.7C191.42 365.7 190.49 372.15 188.89 374.23C188.35 374.93 187.37 375.81 186.72 377.07C185.72 379.03 186.27 381.96 187.01 383.57C187.39 384.4 186.98 384.39 187.85 384.66C190.41 385.45 193.14 384.12 194.23 381.67C194.84 380.3 195.37 378.48 195.48 376.18C195.75 370.33 197.58 367.35 197.58 367.35L191.42 365.7Z" fill="#FFE3CD"/>
<path d="M219.46 368.65C219.46 368.65 220.04 375.92 219.57 378.28C219.32 379.55 217.93 382.15 218.57 383.34C219.21 384.53 219.94 384.83 219.94 384.83L236.49 385.1C237.39 385.11 236.8 384.54 236.07 384C234.88 383.13 233.92 382.55 230.12 380.72C229.87 380.6 228.97 380.03 228.64 379.83C227.81 379.33 226.99 378.54 226.27 377.74C225.08 376.42 224.98 370.02 224.98 370.02L219.46 368.65Z" fill="#FFE3CD"/>
<path d="M232.39 272.01C232.39 272.01 234.47 283.81 233.11 291.55C231.74 299.29 225.17 371.02 225.17 371.02L217.87 371.43C217.87 371.43 216.34 341.47 216.61 337.3C216.88 333.13 219.05 326.16 219.05 326.16L218.32 301.97L227.53 270.19L232.39 272.01Z" fill="#3B3859"/>
<path d="M210.94 269.53C210.94 269.53 205.19 278.16 203.83 285.3C202.46 292.44 204.83 314.4 202.2 323.76C200.78 328.83 195.38 336.65 194.55 343.2C193.73 349.75 190.51 366.9 190.51 366.9L197.8 368.34L214.75 325.5L228.05 286.78L231.46 266.84L210.94 269.53Z" fill="#3A3C63"/>
<path d="M215.59 220.42C215.59 220.42 207.98 219.94 204.97 223.21C201.96 226.48 211.65 252.38 212.19 256.55C212.74 260.72 209.4 271.8 209.4 271.8C209.4 271.8 227.27 275.39 232.38 272.02C232.38 272.02 232.93 242.06 232.38 239.08C231.83 236.1 227.27 224 226.18 222.81C225.09 221.61 215.59 220.42 215.59 220.42Z" fill="#FF818A"/>
<path d="M218.12 210.27C218.12 210.27 218.08 210.49 218.01 210.87C217.67 212.7 216.36 218.75 215.48 220.42C214.41 222.43 219.13 228.85 223.67 228.06C225.02 227.83 222.53 222.16 222.65 221.56C222.88 220.41 223.19 218.85 223.51 217.24C223.69 216.33 223.87 215.41 224.04 214.55C224.53 212.1 224.92 210.09 224.92 210.09L218.12 210.27Z" fill="#FFE3CD"/>
<path d="M218.01 210.87C218.08 210.49 218.12 210.27 218.12 210.27L224.92 210.1C224.92 210.1 224.52 212.11 224.04 214.56C223.87 215.42 223.69 216.33 223.51 217.23C222.46 217.08 221.36 216.57 220.26 215.6C219.06 214.55 218.27 213.29 217.8 211.95C217.89 211.53 217.96 211.16 218.01 210.87Z" fill="#BD916C"/>
<path d="M222.7 194.84C222.7 194.84 219.49 194.47 217.48 197.06C215.47 199.65 213.3 207.68 218.3 212.04C223.29 216.4 228.23 211.46 228.96 206.23C229.69 200.99 229.98 194.65 222.7 194.84Z" fill="#FFE3CD"/>
<path d="M230.44 206.15C229.84 207.31 228.84 207.95 228.2 207.58C227.56 207.21 227.53 205.98 228.12 204.82C228.72 203.66 229.72 203.02 230.35 203.39C231 203.76 231.04 205 230.44 206.15Z" fill="#FFE3CD"/>
<path d="M223.06 193.98C223.06 193.98 218.78 201.61 215.71 201.96C212.65 202.31 212.24 206.37 212.24 206.37C212.24 206.37 213.34 197.03 216.37 195.23C219.41 193.42 223.06 193.98 223.06 193.98Z" fill="#2A2A2A"/>
<path d="M194.73 380.38C190.75 381.1 188.11 378.78 186.73 377.04C185.72 379.01 185.23 381.95 185.97 383.56C186.62 384.98 188.54 384.94 190.04 385C191.63 385.06 192.86 384.18 193.65 382.79C194.03 382.16 194.41 381.35 194.73 380.38Z" fill="#3A3C63"/>
<path d="M228.63 379.82C224.25 380.94 221.02 380.18 219.21 379.45C218.74 380.77 218.12 382.43 218.45 383.38C218.85 384.55 219.42 384.81 219.93 384.83C223.93 384.93 234.57 385.08 237.62 385.12C238.05 385.13 238.28 384.63 238.01 384.3C237.25 383.4 228.95 380.02 228.63 379.82Z" fill="#3A3C63"/>
<path d="M216.52 203.88C216.77 205.24 216.27 206.48 215.4 206.66C214.53 206.84 213.63 205.88 213.38 204.53C213.13 203.17 213.63 201.93 214.5 201.75C215.36 201.57 216.27 202.52 216.52 203.88Z" fill="#FFE3CD"/>
<path d="M201.71 207.75C201.71 207.75 212.45 219.28 214.05 223.92C215.65 228.57 212.49 235.21 208.14 235.5C203.79 235.79 194.09 215.04 194.09 215.04L201.71 207.75Z" fill="#FF818A"/>
<path d="M251.88 0.549994C262.75 2.56999 270.55 9.61999 269.3 16.3C268.68 19.64 265.91 22.25 261.95 23.77L264.53 34.43L256.68 25.05C253.81 25.41 250.65 25.32 247.39 24.72C236.52 22.7 228.72 15.65 229.97 8.96999C231.19 2.28999 241.01 -1.48001 251.88 0.549994Z" fill="#86B6E6"/>
<path d="M256.85 15.21C255.18 18.68 251.02 20.15 247.54 18.48C244.07 16.81 242.61 12.65 244.27 9.16999C245.94 5.69999 250.1 4.22999 253.57 5.89999C257.06 7.56999 258.52 11.74 256.85 15.21Z" fill="#6292CC"/>
<path d="M246.73 11.57C245.84 13.43 246.62 15.65 248.48 16.55C250.34 17.44 252.56 16.66 253.45 14.8L246.73 11.57Z" fill="#EFEEEE"/>
<path d="M410.71 201.12L408.31 201.36L407.49 197.54L403.93 197.46L402.85 194.7L401.45 195.24L402.9 198.94L406.27 199.01L407.12 202.99L410.74 202.62L410.71 201.12Z" fill="#7FC4E2"/>
<path d="M396.85 140.4L391.23 137.94L389.95 141.82L388.09 141.21L390.04 135.28L395.63 137.73L397.06 133.14L402.2 135.28L404.32 130.76L406.09 131.59L403.18 137.81L398.29 135.77L396.85 140.4Z" fill="#FF818A"/>
</svg>
