<svg width="80" height="80" viewBox="0 0 80 80" fill="none" xmlns="http://www.w3.org/2000/svg">
<path d="M1.54348 66.5217V74.4782C1.54348 75.5333 1.96262 76.5452 2.70869 77.2913C3.45475 78.0374 4.46664 78.4565 5.52174 78.4565H42.6522C43.7073 78.4565 44.7192 78.0374 45.4652 77.2913C46.2113 76.5452 46.6304 75.5333 46.6304 74.4782V66.5217H1.54348Z" fill="#7FC4E2"/>
<path d="M1.54348 25.413H46.6304V66.5217H1.54348V25.413Z" fill="#BDFDFF"/>
<path d="M46.6304 21.4348V25.413H1.54348V21.4348C1.54348 20.3797 1.96262 19.3678 2.70869 18.6217C3.45475 17.8757 4.46664 17.4565 5.52174 17.4565H42.6522C43.7073 17.4565 44.7192 17.8757 45.4652 18.6217C46.2113 19.3678 46.6304 20.3797 46.6304 21.4348Z" fill="#7FC4E2"/>
<path d="M46.6304 66.5217V74.4782C46.6304 75.5333 46.2113 76.5452 45.4652 77.2913C44.7192 78.0374 43.7073 78.4565 42.6522 78.4565H36.0217C37.0768 78.4565 38.0887 78.0374 38.8348 77.2913C39.5809 76.5452 40 75.5333 40 74.4782V66.5217H46.6304Z" fill="#86B6E6"/>
<path d="M40 25.413H46.6304V66.5217H40V25.413Z" fill="#46F8FF"/>
<path d="M46.6304 21.4348V25.413H40V21.4348C40 20.3797 39.5809 19.3678 38.8348 18.6217C38.0887 17.8757 37.0768 17.4565 36.0217 17.4565H42.6522C43.7073 17.4565 44.7192 17.8757 45.4652 18.6217C46.2113 19.3678 46.6304 20.3797 46.6304 21.4348Z" fill="#86B6E6"/>
<path d="M66.5217 54.5869C68.8824 54.5852 71.1905 55.284 73.1537 56.595C75.1169 57.9059 76.6469 59.7699 77.55 61.951C78.4531 64.132 78.6886 66.5321 78.2268 68.8471C77.765 71.1621 76.6265 73.288 74.9557 74.9556L58.0878 58.0878C59.193 56.9765 60.5073 56.095 61.9548 55.4942C63.4023 54.8933 64.9545 54.585 66.5217 54.5869Z" fill="#F54E5A"/>
<path d="M58.0878 58.0878L74.9557 74.9557C73.8481 76.0632 72.5332 76.9418 71.0861 77.5412C69.639 78.1406 68.0881 78.4491 66.5217 78.4491C64.9554 78.4491 63.4044 78.1406 61.9573 77.5412C60.5102 76.9418 59.1954 76.0632 58.0878 74.9557C56.9803 73.8481 56.1017 72.5332 55.5023 71.0861C54.9029 69.6391 54.5944 68.0881 54.5944 66.5217C54.5944 64.9554 54.9029 63.4044 55.5023 61.9573C56.1017 60.5102 56.9803 59.1954 58.0878 58.0878Z" fill="#F8E2D1"/>
<path d="M46.6304 39.9735C48.8941 39.2688 51.3286 39.3427 53.5454 40.1834C55.7621 41.024 57.6334 42.583 58.8606 44.6115C60.0878 46.64 60.6001 49.0211 60.3158 51.3748C60.0315 53.7286 58.967 55.9192 57.2922 57.5972L48.8583 66.0444L33.8602 51.0463L42.2941 42.5992C43.5028 41.3821 44.9918 40.4805 46.6304 39.9735Z" fill="#86B6E6"/>
<path d="M60.4085 50.1048C60.4072 51.4972 60.1314 52.8757 59.5966 54.1614C59.0619 55.4471 58.2788 56.6146 57.2922 57.5972L48.8583 66.0444L43.5539 60.74L46.6835 57.5972C47.6712 56.614 48.4549 55.4455 48.9897 54.1586C49.5245 52.8716 49.7998 51.4918 49.7998 50.0982C49.7998 48.7046 49.5245 47.3247 48.9897 46.0378C48.4549 44.7509 47.6712 43.5823 46.6835 42.5991C46.0249 41.9402 45.2799 41.3736 44.4689 40.915C45.1513 40.52 45.8765 40.2041 46.6304 39.9735C48.2194 39.479 49.9023 39.3648 51.5436 39.6401C53.1848 39.9154 54.7383 40.5724 56.079 41.5583C57.4197 42.5441 58.51 43.8312 59.262 45.3157C60.0141 46.8002 60.4068 48.4407 60.4085 50.1048Z" fill="#5474B1"/>
<path d="M22.3365 66.5218C22.4331 63.8696 23.5326 61.353 25.413 59.4802L33.8602 51.0463L48.8583 66.0444L46.6304 68.2589L40.4111 74.4783C38.903 75.992 36.9721 77.014 34.8723 77.4097C32.7725 77.8055 30.6021 77.5566 28.6464 76.6957C26.6908 75.8348 25.0414 74.4022 23.9152 72.5863C22.789 70.7705 22.2386 68.6563 22.3365 66.5218Z" fill="white"/>
<path opacity="0.25" d="M48.8583 66.0443L46.6304 68.2589L40.4111 74.4782C38.4218 76.4663 35.7245 77.583 32.9121 77.583C30.0997 77.583 27.4024 76.4663 25.413 74.4782C24.5035 73.5769 23.7743 72.5102 23.2648 71.3354C25.2246 72.2203 27.4074 72.4875 29.5228 72.1014C31.6382 71.7152 33.5859 70.6941 35.1067 69.1739L41.3261 62.9546L43.5539 60.74L48.8583 66.0443Z" fill="#333333"/>
<path d="M43.9783 1.54347H4.19565C2.7309 1.54347 1.54348 2.73089 1.54348 4.19565V9.49999C1.54348 10.9647 2.7309 12.1522 4.19565 12.1522H43.9783C45.443 12.1522 46.6304 10.9647 46.6304 9.49999V4.19565C46.6304 2.73089 45.443 1.54347 43.9783 1.54347Z" fill="#C6C5CA"/>
<path d="M46.6304 4.19565V9.49999C46.6283 10.2027 46.3482 10.8761 45.8513 11.373C45.3544 11.87 44.681 12.1501 43.9783 12.1522H37.3478C38.0506 12.1501 38.724 11.87 39.2209 11.373C39.7178 10.8761 39.9979 10.2027 40 9.49999V4.19565C39.9979 3.49289 39.7178 2.81952 39.2209 2.32259C38.724 1.82567 38.0506 1.54557 37.3478 1.54347H43.9783C44.681 1.54557 45.3544 1.82567 45.8513 2.32259C46.3482 2.81952 46.6283 3.49289 46.6304 4.19565Z" fill="#ACABB1"/>
<path d="M8.17391 12.1522H40V17.4565H8.17391V12.1522Z" fill="#BDFDFF"/>
<path d="M43.9783 13.4783C45.0324 13.4751 46.0425 13.055 46.7878 12.3096C47.5332 11.5642 47.9534 10.5541 47.9565 9.5V4.19565C47.9534 3.14152 47.5332 2.13146 46.7878 1.38608C46.0425 0.640688 45.0324 0.22054 43.9783 0.217392H4.19565C3.14152 0.22054 2.13146 0.640688 1.38608 1.38608C0.640688 2.13146 0.22054 3.14152 0.217392 4.19565V9.5C0.22054 10.5541 0.640688 11.5642 1.38608 12.3096C2.13146 13.055 3.14152 13.4751 4.19565 13.4783H6.84783V16.1304H5.52174C4.11494 16.1304 2.76576 16.6893 1.771 17.684C0.776241 18.6788 0.217392 20.028 0.217392 21.4348V74.4783C0.217392 75.8851 0.776241 77.2342 1.771 78.229C2.76576 79.2238 4.11494 79.7826 5.52174 79.7826H17.4565C17.8082 79.7826 18.1455 79.6429 18.3942 79.3942C18.6429 79.1455 18.7826 78.8082 18.7826 78.4565C18.7826 78.1048 18.6429 77.7675 18.3942 77.5188C18.1455 77.2701 17.8082 77.1304 17.4565 77.1304H5.52174C4.81898 77.1283 4.14561 76.8482 3.64869 76.3513C3.15176 75.8544 2.87166 75.181 2.86957 74.4783V67.8478H13.4783C13.83 67.8478 14.1673 67.7081 14.4159 67.4594C14.6646 67.2107 14.8043 66.8734 14.8043 66.5217C14.8043 66.17 14.6646 65.8327 14.4159 65.5841C14.1673 65.3354 13.83 65.1956 13.4783 65.1956H2.86957V21.4348C2.87166 20.732 3.15176 20.0587 3.64869 19.5617C4.14561 19.0648 4.81898 18.7847 5.52174 18.7826H42.6522C43.3549 18.7847 44.0283 19.0648 44.5252 19.5617C45.0222 20.0587 45.3022 20.732 45.3044 21.4348V24.087H21.4348C21.0831 24.087 20.7458 24.2267 20.4971 24.4754C20.2484 24.724 20.1087 25.0613 20.1087 25.413C20.1087 25.7647 20.2484 26.102 20.4971 26.3507C20.7458 26.5994 21.0831 26.7391 21.4348 26.7391H45.3044V34.6957C45.3044 35.0474 45.4441 35.3846 45.6927 35.6333C45.9414 35.882 46.2787 36.0217 46.6304 36.0217C46.9821 36.0217 47.3194 35.882 47.5681 35.6333C47.8168 35.3846 47.9565 35.0474 47.9565 34.6957V21.4348C47.9565 20.028 47.3977 18.6788 46.4029 17.684C45.4082 16.6893 44.059 16.1304 42.6522 16.1304H41.3261V13.4783H43.9783ZM38.6739 16.1304H9.5V13.4783H38.6739V16.1304ZM4.19565 10.8261C3.84395 10.8261 3.50666 10.6864 3.25797 10.4377C3.00928 10.189 2.86957 9.8517 2.86957 9.5V4.19565C2.86957 3.84395 3.00928 3.50666 3.25797 3.25797C3.50666 3.00928 3.84395 2.86957 4.19565 2.86957H43.9783C44.33 2.86957 44.6673 3.00928 44.916 3.25797C45.1646 3.50666 45.3044 3.84395 45.3044 4.19565V9.5C45.3044 9.8517 45.1646 10.189 44.916 10.4377C44.6673 10.6864 44.33 10.8261 43.9783 10.8261H4.19565Z" fill="#3A3C63"/>
<path d="M26.3546 48.3411C26.603 48.5915 26.7424 48.9299 26.7424 49.2826C26.7424 49.6353 26.603 49.9738 26.3546 50.2241C26.1032 50.4707 25.7651 50.6088 25.413 50.6088C25.0609 50.6088 24.7229 50.4707 24.4715 50.2241L20.1087 45.848L15.7459 50.2241C15.4945 50.4707 15.1564 50.6088 14.8043 50.6088C14.4523 50.6088 14.1142 50.4707 13.8628 50.2241C13.6144 49.9738 13.475 49.6353 13.475 49.2826C13.475 48.9299 13.6144 48.5915 13.8628 48.3411L18.2389 43.9783L11.2107 36.9633C11.0266 36.7768 10.902 36.54 10.8524 36.2827C10.8029 36.0255 10.8306 35.7593 10.9322 35.5178C11.0297 35.2743 11.1982 35.0657 11.4157 34.9191C11.6333 34.7725 11.8898 34.6947 12.1522 34.6957C13.2073 34.6957 14.2192 34.2765 14.9652 33.5304C15.7113 32.7844 16.1304 31.7725 16.1304 30.7174C16.1304 29.6623 15.7113 28.6504 14.9652 27.9043C14.2192 27.1583 13.2073 26.7391 12.1522 26.7391H8.17391V41.3261C8.17391 41.6778 8.0342 42.0151 7.78551 42.2638C7.53682 42.5125 7.19953 42.6522 6.84783 42.6522C6.49613 42.6522 6.15883 42.5125 5.91014 42.2638C5.66145 42.0151 5.52174 41.6778 5.52174 41.3261V25.413C5.52174 25.0613 5.66145 24.7241 5.91014 24.4754C6.15883 24.2267 6.49613 24.087 6.84783 24.087H12.1522C13.6741 24.0888 15.149 24.614 16.3294 25.5746C17.5098 26.5352 18.3239 27.8726 18.6349 29.3624C18.9459 30.8521 18.7349 32.4035 18.0375 33.7562C17.34 35.1088 16.1984 36.1803 14.8043 36.7909L20.1087 42.1085L24.4715 37.7324C24.7212 37.4827 25.0599 37.3424 25.413 37.3424C25.7662 37.3424 26.1049 37.4827 26.3546 37.7324C26.6043 37.9821 26.7446 38.3208 26.7446 38.6739C26.7446 39.0271 26.6043 39.3657 26.3546 39.6154L21.9785 43.9783L26.3546 48.3411Z" fill="#3A3C63"/>
<path d="M9.5 8.17391V5.52174C9.5 5.17003 9.36029 4.83274 9.1116 4.58405C8.86291 4.33536 8.52561 4.19565 8.17391 4.19565C7.82221 4.19565 7.48492 4.33536 7.23623 4.58405C6.98754 4.83274 6.84783 5.17003 6.84783 5.52174V8.17391C6.84783 8.52561 6.98754 8.8629 7.23623 9.11159C7.48492 9.36028 7.82221 9.5 8.17391 9.5C8.52561 9.5 8.86291 9.36028 9.1116 9.11159C9.36029 8.8629 9.5 8.52561 9.5 8.17391Z" fill="#3A3C63"/>
<path d="M40 9.5C40.3517 9.5 40.689 9.36028 40.9377 9.11159C41.1864 8.8629 41.3261 8.52561 41.3261 8.17391V5.52174C41.3261 5.17003 41.1864 4.83274 40.9377 4.58405C40.689 4.33536 40.3517 4.19565 40 4.19565C39.6483 4.19565 39.311 4.33536 39.0623 4.58405C38.8136 4.83274 38.6739 5.17003 38.6739 5.52174V8.17391C38.6739 8.52561 38.8136 8.8629 39.0623 9.11159C39.311 9.36028 39.6483 9.5 40 9.5Z" fill="#3A3C63"/>
<path d="M34.6957 9.5C35.0474 9.5 35.3846 9.36028 35.6333 9.11159C35.882 8.8629 36.0217 8.52561 36.0217 8.17391V5.52174C36.0217 5.17003 35.882 4.83274 35.6333 4.58405C35.3846 4.33536 35.0474 4.19565 34.6957 4.19565C34.344 4.19565 34.0067 4.33536 33.758 4.58405C33.5093 4.83274 33.3696 5.17003 33.3696 5.52174V8.17391C33.3696 8.52561 33.5093 8.8629 33.758 9.11159C34.0067 9.36028 34.344 9.5 34.6957 9.5Z" fill="#3A3C63"/>
<path d="M29.3913 9.5C29.743 9.5 30.0803 9.36028 30.329 9.11159C30.5777 8.8629 30.7174 8.52561 30.7174 8.17391V5.52174C30.7174 5.17003 30.5777 4.83274 30.329 4.58405C30.0803 4.33536 29.743 4.19565 29.3913 4.19565C29.0396 4.19565 28.7023 4.33536 28.4536 4.58405C28.2049 4.83274 28.0652 5.17003 28.0652 5.52174V8.17391C28.0652 8.52561 28.2049 8.8629 28.4536 9.11159C28.7023 9.36028 29.0396 9.5 29.3913 9.5Z" fill="#3A3C63"/>
<path d="M24.087 9.5C24.4387 9.5 24.776 9.36028 25.0246 9.11159C25.2733 8.8629 25.413 8.52561 25.413 8.17391V5.52174C25.413 5.17003 25.2733 4.83274 25.0246 4.58405C24.776 4.33536 24.4387 4.19565 24.087 4.19565C23.7353 4.19565 23.398 4.33536 23.1493 4.58405C22.9006 4.83274 22.7609 5.17003 22.7609 5.52174V8.17391C22.7609 8.52561 22.9006 8.8629 23.1493 9.11159C23.398 9.36028 23.7353 9.5 24.087 9.5Z" fill="#3A3C63"/>
<path d="M18.7826 9.5C19.1343 9.5 19.4716 9.36028 19.7203 9.11159C19.969 8.8629 20.1087 8.52561 20.1087 8.17391V5.52174C20.1087 5.17003 19.969 4.83274 19.7203 4.58405C19.4716 4.33536 19.1343 4.19565 18.7826 4.19565C18.4309 4.19565 18.0936 4.33536 17.8449 4.58405C17.5962 4.83274 17.4565 5.17003 17.4565 5.52174V8.17391C17.4565 8.52561 17.5962 8.8629 17.8449 9.11159C18.0936 9.36028 18.4309 9.5 18.7826 9.5Z" fill="#3A3C63"/>
<path d="M13.4783 9.5C13.83 9.5 14.1673 9.36028 14.4159 9.11159C14.6646 8.8629 14.8043 8.52561 14.8043 8.17391V5.52174C14.8043 5.17003 14.6646 4.83274 14.4159 4.58405C14.1673 4.33536 13.83 4.19565 13.4783 4.19565C13.1266 4.19565 12.7893 4.33536 12.5406 4.58405C12.2919 4.83274 12.1522 5.17003 12.1522 5.52174V8.17391C12.1522 8.52561 12.2919 8.8629 12.5406 9.11159C12.7893 9.36028 13.1266 9.5 13.4783 9.5Z" fill="#3A3C63"/>
<path d="M66.5217 53.2609C64.5618 53.2603 62.6267 53.6998 60.8593 54.5472C61.8816 51.9963 61.9923 49.1709 61.1727 46.5479C60.3531 43.9249 58.6534 41.6651 56.3606 40.1501C54.0679 38.6351 51.3226 37.9578 48.5883 38.2324C45.854 38.5071 43.2982 39.7169 41.3526 41.6576L24.4715 58.5387C22.2329 60.7773 20.9753 63.8134 20.9753 66.9792C20.9753 70.145 22.2329 73.1812 24.4715 75.4198C26.7101 77.6583 29.7462 78.916 32.9121 78.916C36.0779 78.916 39.114 77.6583 41.3526 75.4198L53.7383 63.0209C53.0059 65.6965 53.1311 68.5345 54.0962 71.1353C55.0614 73.7361 56.8179 75.9688 59.1184 77.519C61.419 79.0691 64.1478 79.8588 66.9207 79.7768C69.6936 79.6948 72.3709 78.7452 74.5759 77.0618C76.7808 75.3784 78.4023 73.0458 79.212 70.3925C80.0218 67.7393 79.979 64.8988 79.0898 62.2711C78.2006 59.6434 76.5097 57.3607 74.2551 55.7443C72.0006 54.128 69.2958 53.2594 66.5217 53.2609ZM39.4828 73.5367C37.7419 75.2776 35.3807 76.2557 32.9187 76.2557C30.4567 76.2557 28.0955 75.2776 26.3546 73.5367C24.6136 71.7958 23.6356 69.4346 23.6356 66.9726C23.6356 64.5106 24.6136 62.1494 26.3546 60.4085L33.847 52.9161L46.9752 66.0443L39.4828 73.5367ZM48.8583 64.1613L35.73 51.033L43.2224 43.5406C44.9633 41.7997 47.3245 40.8217 49.7865 40.8217C52.2485 40.8217 54.6097 41.7997 56.3507 43.5406C58.0916 45.2816 59.0696 47.6427 59.0696 50.1048C59.0696 52.5668 58.0916 54.928 56.3507 56.6689L48.8583 64.1613ZM66.5217 77.1304C63.7093 77.1266 61.0132 76.0076 59.0245 74.0189C57.0358 72.0303 55.9169 69.3341 55.913 66.5217C55.9105 64.1658 56.6998 61.8774 58.1541 60.0239L73.0196 74.8893C71.1661 76.3437 68.8777 77.1329 66.5217 77.1304ZM74.8893 73.0196L60.0239 58.1541C61.8774 56.6998 64.1658 55.9105 66.5217 55.913C69.3342 55.9169 72.0303 57.0358 74.019 59.0245C76.0076 61.0132 77.1266 63.7093 77.1304 66.5217C77.1329 68.8777 76.3437 71.1661 74.8893 73.0196Z" fill="#3A3C63"/>
</svg>
