<svg width="80" height="80" viewBox="0 0 80 80" fill="none" xmlns="http://www.w3.org/2000/svg">
<path d="M78.6665 41.32V51.5867C78.667 52.9858 78.3917 54.3712 77.8563 55.6639C77.3209 56.9565 76.5361 58.1309 75.5465 59.12L57.5599 77.1067C57.0642 77.6018 56.4759 77.9944 55.8284 78.2621C55.181 78.5297 54.4871 78.6672 53.7865 78.6667H43.9999V64.96C43.9998 64.3371 44.2166 63.7337 44.6132 63.2533L55.4665 50.24C55.7041 49.9558 55.9983 49.7243 56.3303 49.5601C56.6624 49.3959 57.025 49.3027 57.395 49.2864C57.7651 49.2701 58.1344 49.331 58.4796 49.4654C58.8248 49.5997 59.1382 49.8045 59.3999 50.0667L59.7865 50.4533C60.2213 50.8889 60.492 51.4615 60.5527 52.0739C60.6135 52.6863 60.4606 53.3008 60.1199 53.8133L53.3332 64L68.7199 56.8C70.0982 56.1538 71.2641 55.1285 72.081 53.844C72.898 52.5595 73.3323 51.069 73.3332 49.5467V41.32C73.3332 40.6151 73.6123 39.9388 74.1095 39.4391C74.6068 38.9394 75.2816 38.6569 75.9865 38.6534H76.0132C76.7181 38.6569 77.393 38.9394 77.8902 39.4391C78.3874 39.9388 78.6665 40.6151 78.6665 41.32Z" fill="#FFE3CD"/>
<path d="M39.9999 52C15.9999 42.6667 17.3332 32 17.3332 32V15.12C19.6734 14.5674 21.7587 13.2413 23.2517 11.3564C24.7446 9.47145 25.5579 7.13789 25.5599 4.73333L39.9999 1.33333L54.4399 4.73333C54.4419 7.13789 55.2551 9.47145 56.7481 11.3564C58.241 13.2413 60.3263 14.5674 62.6665 15.12V32C62.6665 32 63.9999 42.6667 39.9999 52Z" fill="#BDFDFF"/>
<path d="M39.9999 52C39.0666 51.64 38.1866 51.28 37.3333 50.92C58.5599 41.8533 57.3333 32 57.3333 32V15.12C54.993 14.5674 52.9077 13.2413 51.4148 11.3564C49.9218 9.47145 49.1086 7.13789 49.1066 4.73333L37.3333 1.95999L39.9999 1.33333L54.4399 4.73333C54.4419 7.13789 55.2552 9.47145 56.7481 11.3564C58.2411 13.2413 60.3264 14.5674 62.6666 15.12V32C62.6666 32 63.9999 42.6667 39.9999 52Z" fill="#7FC4E2"/>
<path d="M39.9999 37.3333C49.5728 37.3333 57.3332 31.9607 57.3332 25.3333C57.3332 18.7059 49.5728 13.3333 39.9999 13.3333C30.427 13.3333 22.6666 18.7059 22.6666 25.3333C22.6666 31.9607 30.427 37.3333 39.9999 37.3333Z" fill="white"/>
<path opacity="0.25" d="M57.3332 25.3333C55.9461 28.8176 53.5613 31.815 50.4779 33.9497C47.3944 36.0844 43.7495 37.2614 39.9999 37.3333C39.1028 37.334 38.2069 37.2672 37.3199 37.1333C40.573 36.5895 43.6317 35.2186 46.2024 33.1523C48.7731 31.0859 50.7695 28.3934 51.9999 25.3333C50.7695 22.2732 48.7731 19.5807 46.2024 17.5143C43.6317 15.448 40.573 14.0771 37.3199 13.5333C38.2069 13.3994 39.1028 13.3326 39.9999 13.3333C43.7495 13.4052 47.3944 14.5822 50.4779 16.7169C53.5613 18.8516 55.9461 21.849 57.3332 25.3333Z" fill="#333333"/>
<path d="M39.9999 32C43.6818 32 46.6666 29.0152 46.6666 25.3333C46.6666 21.6514 43.6818 18.6667 39.9999 18.6667C36.318 18.6667 33.3333 21.6514 33.3333 25.3333C33.3333 29.0152 36.318 32 39.9999 32Z" fill="#F54E5A"/>
<path opacity="0.25" d="M46.6666 25.3333C46.6666 27.1014 45.9642 28.7971 44.714 30.0474C43.4637 31.2976 41.768 32 39.9999 32C39.0833 31.9991 38.1763 31.8132 37.3333 31.4533C38.5227 30.9323 39.5345 30.076 40.245 28.9891C40.9556 27.9022 41.3339 26.6318 41.3339 25.3333C41.3339 24.0348 40.9556 22.7644 40.245 21.6775C39.5345 20.5906 38.5227 19.7343 37.3333 19.2133C38.1763 18.8534 39.0833 18.6675 39.9999 18.6667C41.768 18.6667 43.4637 19.369 44.714 20.6193C45.9642 21.8695 46.6666 23.5652 46.6666 25.3333Z" fill="white"/>
<path d="M39.9999 26.6667C40.7363 26.6667 41.3332 26.0697 41.3332 25.3333C41.3332 24.597 40.7363 24 39.9999 24C39.2635 24 38.6666 24.597 38.6666 25.3333C38.6666 26.0697 39.2635 26.6667 39.9999 26.6667Z" fill="#3E3D42"/>
<path d="M35.9999 64.96V78.6667H26.2132C25.5127 78.6672 24.8188 78.5297 24.1714 78.2621C23.5239 77.9944 22.9356 77.6018 22.4399 77.1067L4.45325 59.12C3.46372 58.1309 2.67884 56.9565 2.14349 55.6639C1.60814 54.3712 1.33281 52.9858 1.33325 51.5867V41.32C1.33324 40.6151 1.61236 39.9388 2.10958 39.4391C2.6068 38.9394 3.28165 38.6569 3.98659 38.6534H4.01325C4.71818 38.6569 5.39304 38.9394 5.89026 39.4391C6.38747 39.9388 6.66659 40.6151 6.66658 41.32V49.5467C6.66747 51.069 7.1018 52.5595 7.91877 53.844C8.73574 55.1285 9.90158 56.1538 11.2799 56.8L26.6666 64L19.8799 53.8133C19.5392 53.3008 19.3863 52.6863 19.4471 52.0739C19.5078 51.4615 19.7785 50.8889 20.2132 50.4533L20.5999 50.0667C20.8616 49.8045 21.175 49.5997 21.5202 49.4654C21.8654 49.331 22.2347 49.2701 22.6048 49.2864C22.9748 49.3027 23.3374 49.3959 23.6695 49.5601C24.0015 49.7243 24.2957 49.9558 24.5332 50.24L35.3866 63.2533C35.7831 63.7337 36 64.3371 35.9999 64.96Z" fill="#FFE3CD"/>
<path d="M39.9999 17.3333C38.4176 17.3333 36.8709 17.8025 35.5553 18.6816C34.2397 19.5606 33.2143 20.8101 32.6088 22.2719C32.0033 23.7337 31.8449 25.3422 32.1536 26.8941C32.4623 28.4459 33.2242 29.8714 34.343 30.9902C35.4619 32.109 36.8873 32.8709 38.4392 33.1796C39.991 33.4883 41.5996 33.3299 43.0614 32.7244C44.5232 32.1189 45.7726 31.0935 46.6517 29.7779C47.5307 28.4623 47.9999 26.9156 47.9999 25.3333C47.9978 23.2122 47.1542 21.1786 45.6544 19.6788C44.1546 18.179 42.121 17.3354 39.9999 17.3333ZM39.9999 30.6667C38.9451 30.6667 37.9139 30.3539 37.0368 29.7678C36.1598 29.1818 35.4762 28.3488 35.0725 27.3743C34.6689 26.3998 34.5632 25.3274 34.769 24.2928C34.9748 23.2583 35.4828 22.308 36.2287 21.5621C36.9745 20.8162 37.9248 20.3083 38.9594 20.1025C39.994 19.8967 41.0663 20.0023 42.0409 20.406C43.0154 20.8096 43.8484 21.4932 44.4344 22.3703C45.0204 23.2474 45.3332 24.2785 45.3332 25.3333C45.3332 26.7478 44.7713 28.1044 43.7711 29.1046C42.7709 30.1048 41.4144 30.6667 39.9999 30.6667Z" fill="#3A3C63"/>
<path d="M39.9999 28C41.4727 28 42.6666 26.8061 42.6666 25.3333C42.6666 23.8606 41.4727 22.6667 39.9999 22.6667C38.5272 22.6667 37.3333 23.8606 37.3333 25.3333C37.3333 26.8061 38.5272 28 39.9999 28Z" fill="#3A3C63"/>
<path d="M39.9999 12C35.9693 12.0159 32.038 13.2514 28.7229 15.5439C25.4078 17.8363 22.8641 21.0785 21.4265 24.844C21.3025 25.1584 21.3025 25.5082 21.4265 25.8227C22.8641 29.5881 25.4078 32.8303 28.7229 35.1228C32.038 37.4153 35.9693 38.6507 39.9999 38.6667C44.0129 38.5887 47.9141 37.3304 51.2163 35.0488C54.5185 32.7672 57.0754 29.5633 58.5679 25.8373C58.6985 25.514 58.6985 25.1526 58.5679 24.8293C57.0754 21.1033 54.5185 17.8995 51.2163 15.6179C47.9141 13.3362 44.0129 12.0779 39.9999 12ZM39.9999 36C36.595 35.9843 33.2705 34.9637 30.4434 33.0661C27.6162 31.1686 25.4123 28.4785 24.1079 25.3333C25.4123 22.1882 27.6162 19.4981 30.4434 17.6005C33.2705 15.703 36.595 14.6823 39.9999 14.6667C43.3909 14.737 46.6904 15.7796 49.5062 17.6705C52.322 19.5614 54.5356 22.2211 55.8839 25.3333C54.5356 28.4456 52.322 31.1053 49.5062 32.9962C46.6904 34.8871 43.3909 35.9297 39.9999 36Z" fill="#3A3C63"/>
<path d="M63.9998 31.9467V15.12C64.0002 14.8186 63.8992 14.5258 63.7129 14.2888C63.5267 14.0517 63.2661 13.8843 62.9732 13.8133C60.9226 13.338 59.0939 12.1811 57.7861 10.5318C56.4783 8.88248 55.7686 6.83826 55.7732 4.73333C55.7754 4.43295 55.6747 4.14087 55.4879 3.9056C55.3012 3.67033 55.0396 3.50603 54.7465 3.44L40.3065 0.0399993C40.1055 -0.0131297 39.8942 -0.0131297 39.6932 0.0399993L25.2532 3.44C24.9602 3.50603 24.6985 3.67033 24.5118 3.9056C24.325 4.14087 24.2244 4.43295 24.2265 4.73333C24.2311 6.83826 23.5215 8.88248 22.2136 10.5318C20.9058 12.1811 19.0771 13.338 17.0265 13.8133C16.7336 13.8843 16.473 14.0517 16.2868 14.2888C16.1005 14.5258 15.9995 14.8186 15.9999 15.12V31.9467C15.9065 33.2 15.7999 44.0133 39.5199 53.24C39.8278 53.3644 40.172 53.3644 40.4799 53.24C64.1998 44.0133 64.0932 33.2 63.9998 31.9467ZM39.9999 50.5733C17.9999 41.8667 18.6532 32.24 18.6532 32.16C18.6643 32.1074 18.6687 32.0537 18.6665 32V16.12C20.892 15.3929 22.8539 14.0263 24.3075 12.191C25.7611 10.3557 26.6418 8.13283 26.8399 5.8L39.9999 2.70667L53.1599 5.8C53.3579 8.13283 54.2386 10.3557 55.6922 12.191C57.1458 14.0263 59.1077 15.3929 61.3332 16.12V32C61.331 32.0493 61.3355 32.0986 61.3465 32.1467C61.3465 32.24 61.9998 41.8667 39.9999 50.5733Z" fill="#3A3C63"/>
<path d="M36.3999 62.4L25.5599 49.3866C25.2019 48.9613 24.7604 48.614 24.2627 48.3663C23.765 48.1186 23.2217 47.9758 22.6666 47.9466C22.1125 47.9236 21.5597 48.016 21.0432 48.218C20.5268 48.42 20.058 48.7271 19.6666 49.12L19.2666 49.5066C18.6147 50.1631 18.2095 51.0246 18.1196 51.9454C18.0297 52.8662 18.2606 53.7898 18.7732 54.56L22.9066 60.7733L11.8399 55.5866C10.6941 55.0461 9.72509 54.1917 9.04538 53.1226C8.36568 52.0535 8.00316 50.8135 7.9999 49.5466V41.32C8.00201 40.7941 7.89999 40.273 7.69973 39.7867C7.49946 39.3005 7.2049 38.8587 6.83304 38.4868C6.46119 38.115 6.01939 37.8204 5.53313 37.6201C5.04687 37.4199 4.52578 37.3179 3.9999 37.32H3.98656C2.92877 37.326 1.9162 37.7497 1.16946 38.499C0.422729 39.2482 0.00234298 40.2622 -0.000102606 41.32V51.5866C-0.00295018 53.1626 0.306676 54.7235 0.910869 56.1791C1.51506 57.6346 2.40183 58.956 3.5199 60.0666L21.4932 78.0533C22.1132 78.6723 22.8493 79.163 23.6592 79.497C24.4692 79.831 25.3371 80.002 26.2132 80H35.9999C36.3535 80 36.6927 79.8595 36.9427 79.6094C37.1928 79.3594 37.3332 79.0203 37.3332 78.6666V64.96C37.3313 64.0237 37.001 63.1178 36.3999 62.4ZM34.6666 77.3333H26.2132C25.6876 77.3361 25.1668 77.2337 24.6814 77.0322C24.1959 76.8307 23.7557 76.5341 23.3866 76.16L5.3999 58.1866C4.53188 57.3209 3.84354 56.2921 3.37446 55.1595C2.90538 54.0268 2.6648 52.8126 2.66656 51.5866V41.32C2.66656 40.9664 2.80704 40.6272 3.05709 40.3772C3.30714 40.1271 3.64627 39.9866 3.9999 39.9866C4.17549 39.9849 4.34967 40.0181 4.51224 40.0845C4.67482 40.1509 4.82251 40.249 4.94668 40.3732C5.07085 40.4974 5.16899 40.6451 5.23537 40.8076C5.30174 40.9702 5.33501 41.1444 5.33323 41.32V49.5466C5.33643 51.3199 5.84314 53.0558 6.79439 54.5523C7.74565 56.0488 9.10233 57.2444 10.7066 58L26.1066 65.2133C26.3698 65.3333 26.6649 65.3645 26.9474 65.3021C27.2299 65.2397 27.4845 65.0871 27.6726 64.8673C27.8608 64.6475 27.9724 64.3725 27.9905 64.0838C28.0087 63.795 27.9324 63.5082 27.7732 63.2666L20.9866 53.08C20.8171 52.823 20.7417 52.5153 20.7733 52.209C20.8049 51.9028 20.9415 51.6169 21.1599 51.4L21.5466 51C21.6774 50.8698 21.8339 50.7683 22.006 50.7017C22.1781 50.6351 22.3622 50.605 22.5466 50.6133C22.7313 50.6216 22.9122 50.6686 23.0775 50.7513C23.2429 50.834 23.3891 50.9505 23.5066 51.0933L34.3599 64.1066C34.5587 64.3465 34.6672 64.6484 34.6666 64.96V77.3333Z" fill="#3A3C63"/>
<path d="M76.0132 37.32C75.4862 37.3161 74.9637 37.4169 74.4759 37.6163C73.9881 37.8158 73.5447 38.1101 73.1714 38.4821C72.7982 38.8542 72.5024 39.2965 72.3013 39.7837C72.1002 40.2708 71.9978 40.793 71.9999 41.32V49.5467C71.9966 50.8136 71.6341 52.0536 70.9544 53.1227C70.2747 54.1918 69.3057 55.0462 68.1599 55.5867L57.0932 60.7734L61.2266 54.56C61.7392 53.7898 61.9701 52.8663 61.8802 51.9455C61.7903 51.0247 61.3851 50.1632 60.7332 49.5067L60.3332 49.12C59.9412 48.728 59.4723 48.4213 58.956 48.2194C58.4397 48.0174 57.8872 47.9246 57.3332 47.9467C56.7781 47.9758 56.2348 48.1187 55.7371 48.3664C55.2394 48.6141 54.7979 48.9614 54.4399 49.3867L43.5999 62.4C42.9988 63.1178 42.6685 64.0238 42.6666 64.96V78.6667C42.6666 79.0203 42.807 79.3594 43.0571 79.6095C43.3071 79.8595 43.6463 80 43.9999 80H53.7866C54.6627 80.002 55.5306 79.8311 56.3406 79.4971C57.1505 79.163 57.8866 78.6724 58.5066 78.0534L76.4799 60.0667C77.598 58.956 78.4847 57.6347 79.0889 56.1791C79.6931 54.7236 80.0027 53.1627 79.9999 51.5867V41.32C79.9974 40.2622 79.5771 39.2482 78.8303 38.499C78.0836 37.7498 77.071 37.326 76.0132 37.32ZM77.3332 51.5867C77.335 52.8126 77.0944 54.0268 76.6253 55.1595C76.1562 56.2922 75.4679 57.3209 74.5999 58.1867L56.6132 76.16C56.2441 76.5342 55.8039 76.8308 55.3184 77.0323C54.833 77.2338 54.3122 77.3361 53.7866 77.3334H45.3332V64.96C45.3326 64.6485 45.4411 64.3466 45.6399 64.1067L56.4932 51.0934C56.6109 50.951 56.7571 50.8348 56.9223 50.7522C57.0875 50.6695 57.2681 50.6223 57.4526 50.6135C57.6371 50.6047 57.8214 50.6346 57.9937 50.7011C58.166 50.7677 58.3225 50.8695 58.4532 51L58.8399 51.4C59.0583 51.617 59.1949 51.9029 59.2265 52.2091C59.2581 52.5153 59.1827 52.823 59.0132 53.08L52.2266 63.2667C52.0674 63.5083 51.9911 63.7951 52.0093 64.0838C52.0274 64.3726 52.139 64.6476 52.3272 64.8674C52.5153 65.0871 52.7699 65.2397 53.0524 65.3022C53.3349 65.3646 53.63 65.3334 53.8932 65.2134L69.2932 58C70.8975 57.2445 72.2541 56.0489 73.2054 54.5523C74.1566 53.0558 74.6634 51.3199 74.6666 49.5467V41.32C74.6648 41.1444 74.6981 40.9702 74.7644 40.8077C74.8308 40.6451 74.9289 40.4974 75.0531 40.3732C75.1773 40.2491 75.325 40.1509 75.4875 40.0846C75.6501 40.0182 75.8243 39.9849 75.9999 39.9867C76.3535 39.9867 76.6927 40.1272 76.9427 40.3772C77.1928 40.6273 77.3332 40.9664 77.3332 41.32V51.5867Z" fill="#3A3C63"/>
</svg>
