<svg width="80" height="80" viewBox="0 0 80 80" fill="none" xmlns="http://www.w3.org/2000/svg">
<path d="M76.25 41.2375V50.8625C76.2504 52.1741 75.9923 53.473 75.4904 54.6849C74.9885 55.8967 74.2527 56.9977 73.325 57.925L56.4625 74.7875C55.9978 75.2517 55.4462 75.6197 54.8392 75.8707C54.2323 76.1216 53.5818 76.2505 52.925 76.25H43.75V63.4C43.7499 62.8161 43.9532 62.2503 44.325 61.8L54.5 49.6C54.7227 49.3336 54.9985 49.1165 55.3098 48.9626C55.6211 48.8086 55.961 48.7212 56.3079 48.7059C56.6549 48.6907 57.0012 48.7478 57.3248 48.8738C57.6484 48.9997 57.9422 49.1917 58.1875 49.4375L58.55 49.8C58.9576 50.2084 59.2113 50.7451 59.2683 51.3192C59.3253 51.8934 59.1819 52.4695 58.8625 52.95L52.5 62.5L66.925 55.75C68.2172 55.1442 69.3102 54.183 70.0761 52.9788C70.842 51.7745 71.2492 50.3771 71.25 48.95V41.2375C71.25 40.5766 71.5117 39.9426 71.9778 39.4741C72.4439 39.0056 73.0766 38.7408 73.7375 38.7375H73.7625C74.4234 38.7408 75.0561 39.0056 75.5222 39.4741C75.9883 39.9426 76.25 40.5766 76.25 41.2375Z" fill="#FFE3CD"/>
<path d="M40 46.25C51.736 46.25 61.25 36.736 61.25 25C61.25 13.2639 51.736 3.75 40 3.75C28.2639 3.75 18.75 13.2639 18.75 25C18.75 36.736 28.2639 46.25 40 46.25Z" fill="#BDFDFF"/>
<path d="M61.25 25C61.25 30.6358 59.0112 36.0409 55.026 40.026C51.0409 44.0112 45.6359 46.25 40 46.25C39.1644 46.251 38.3295 46.2009 37.5 46.1C42.6627 45.4833 47.4201 42.9952 50.8717 39.1068C54.3234 35.2184 56.2296 30.1994 56.2296 25C56.2296 19.8006 54.3234 14.7816 50.8717 10.8932C47.4201 7.00475 42.6627 4.51669 37.5 3.9C38.3295 3.79909 39.1644 3.749 40 3.75C45.6359 3.75 51.0409 5.98883 55.026 9.97398C59.0112 13.9591 61.25 19.3641 61.25 25Z" fill="#7FC4E2"/>
<path d="M53.75 20V30H45V38.75H35V30H26.25V20H35V11.25H45V20H53.75Z" fill="#F54E5A"/>
<path d="M53.75 20V30H45V38.75H40V11.25H45V20H53.75Z" fill="white" fill-opacity="0.25"/>
<path d="M36.25 63.4V76.25H27.075C26.4182 76.2505 25.7677 76.1216 25.1608 75.8707C24.5538 75.6197 24.0022 75.2517 23.5375 74.7875L6.675 57.925C5.74732 56.9977 5.01149 55.8967 4.5096 54.6849C4.00771 53.473 3.74959 52.1741 3.75 50.8625V41.2375C3.74999 40.5766 4.01167 39.9426 4.47781 39.4741C4.94395 39.0056 5.57663 38.7408 6.2375 38.7375H6.2625C6.92337 38.7408 7.55605 39.0056 8.02219 39.4741C8.48833 39.9426 8.75001 40.5766 8.75 41.2375V48.95C8.75083 50.3771 9.15801 51.7745 9.92392 52.9788C10.6898 54.183 11.7828 55.1442 13.075 55.75L27.5 62.5L21.1375 52.95C20.8181 52.4695 20.6747 51.8934 20.7317 51.3192C20.7887 50.7451 21.0424 50.2084 21.45 49.8L21.8125 49.4375C22.0578 49.1917 22.3516 48.9997 22.6752 48.8738C22.9988 48.7478 23.3451 48.6907 23.6921 48.7059C24.039 48.7212 24.3789 48.8086 24.6902 48.9626C25.0015 49.1165 25.2773 49.3336 25.5 49.6L35.675 61.8C36.0468 62.2503 36.2501 62.8161 36.25 63.4Z" fill="#FFE3CD"/>
<path d="M53.75 18.75H46.25V11.25C46.25 10.9185 46.1183 10.6005 45.8839 10.3661C45.6495 10.1317 45.3315 10 45 10H35C34.6685 10 34.3505 10.1317 34.1161 10.3661C33.8817 10.6005 33.75 10.9185 33.75 11.25V18.75H26.25C25.9185 18.75 25.6005 18.8817 25.3661 19.1161C25.1317 19.3505 25 19.6685 25 20V30C25 30.3315 25.1317 30.6495 25.3661 30.8839C25.6005 31.1183 25.9185 31.25 26.25 31.25H33.75V38.75C33.75 39.0815 33.8817 39.3995 34.1161 39.6339C34.3505 39.8683 34.6685 40 35 40H45C45.3315 40 45.6495 39.8683 45.8839 39.6339C46.1183 39.3995 46.25 39.0815 46.25 38.75V31.25H53.75C54.0815 31.25 54.3995 31.1183 54.6339 30.8839C54.8683 30.6495 55 30.3315 55 30V20C55 19.6685 54.8683 19.3505 54.6339 19.1161C54.3995 18.8817 54.0815 18.75 53.75 18.75ZM52.5 28.75H45C44.6685 28.75 44.3505 28.8817 44.1161 29.1161C43.8817 29.3505 43.75 29.6685 43.75 30V37.5H36.25V30C36.25 29.6685 36.1183 29.3505 35.8839 29.1161C35.6495 28.8817 35.3315 28.75 35 28.75H27.5V21.25H35C35.3315 21.25 35.6495 21.1183 35.8839 20.8839C36.1183 20.6495 36.25 20.3315 36.25 20V12.5H43.75V20C43.75 20.3315 43.8817 20.6495 44.1161 20.8839C44.3505 21.1183 44.6685 21.25 45 21.25H52.5V28.75Z" fill="#3A3C63"/>
<path d="M62.5 25C62.5 20.5499 61.1804 16.1998 58.7081 12.4997C56.2357 8.79956 52.7217 5.91568 48.6104 4.21271C44.4991 2.50973 39.975 2.06416 35.6105 2.93233C31.2459 3.80049 27.2368 5.94341 24.0901 9.09009C20.9434 12.2368 18.8005 16.2459 17.9323 20.6105C17.0642 24.975 17.5097 29.499 19.2127 33.6104C20.9157 37.7217 23.7996 41.2357 27.4997 43.7081C31.1998 46.1804 35.5499 47.5 40 47.5C45.9652 47.493 51.6842 45.1203 55.9022 40.9022C60.1203 36.6842 62.4931 30.9652 62.5 25ZM40 45C36.0444 45 32.1776 43.827 28.8886 41.6294C25.5996 39.4318 23.0362 36.3082 21.5224 32.6537C20.0087 28.9991 19.6126 24.9778 20.3843 21.0982C21.156 17.2186 23.0608 13.6549 25.8579 10.8579C28.6549 8.06081 32.2186 6.15599 36.0982 5.38429C39.9778 4.61258 43.9992 5.00865 47.6537 6.5224C51.3082 8.03616 54.4318 10.5996 56.6294 13.8886C58.827 17.1776 60 21.0444 60 25C59.9931 30.3022 57.8837 35.3852 54.1345 39.1345C50.3853 42.8837 45.3022 44.993 40 45Z" fill="#3A3C63"/>
<path d="M26.65 49.025C25.9892 48.2383 25.0523 47.7345 24.0317 47.617C23.011 47.4994 21.9841 47.7772 21.1618 48.3931C20.3396 49.009 19.7843 49.9164 19.6101 50.9289C19.4358 51.9414 19.6559 52.9821 20.225 53.8375L23.975 59.475L13.6 54.6125C12.5258 54.1058 11.6174 53.3048 10.9802 52.3025C10.3429 51.3002 10.0031 50.1377 10 48.95V41.2375C10.0012 40.7431 9.90467 40.2533 9.71589 39.7964C9.5271 39.3395 9.24983 38.9244 8.90002 38.575C8.18167 37.8893 7.23049 37.5008 6.23752 37.4875C5.24584 37.4931 4.29655 37.8904 3.59649 38.5928C2.89642 39.2952 2.50231 40.2458 2.50002 41.2375V50.8625C2.49735 52.34 2.78762 53.8033 3.35405 55.1679C3.92049 56.5325 4.75183 57.7712 5.80002 58.8125L22.65 75.675C23.2313 76.2553 23.9213 76.7153 24.6807 77.0284C25.44 77.3416 26.2536 77.5019 27.075 77.5H36.25C36.5815 77.5 36.8995 77.3683 37.1339 77.1339C37.3683 76.8994 37.5 76.5815 37.5 76.25V63.4C37.4982 62.5222 37.1886 61.6729 36.625 61L26.65 49.025ZM35 75H27.075C26.0808 74.9991 25.1276 74.6034 24.425 73.9L7.56252 57.05C6.74875 56.2384 6.10343 55.2739 5.66367 54.212C5.22391 53.1501 4.99837 52.0118 5.00002 50.8625V41.2375C5.00002 40.906 5.13171 40.588 5.36614 40.3536C5.60056 40.1192 5.9185 39.9875 6.25002 39.9875C6.41464 39.9858 6.57793 40.017 6.73034 40.0792C6.88276 40.1415 7.02122 40.2335 7.13763 40.3499C7.25403 40.4663 7.34605 40.6047 7.40827 40.7572C7.4705 40.9096 7.50169 41.0729 7.50002 41.2375V48.95C7.50302 50.6124 7.97806 52.2398 8.86986 53.6428C9.76166 55.0458 11.0336 56.1666 12.5375 56.875L26.975 63.6375C27.2218 63.75 27.4985 63.7792 27.7633 63.7207C28.0282 63.6622 28.2668 63.5192 28.4432 63.3131C28.6196 63.1071 28.7242 62.8493 28.7412 62.5786C28.7582 62.3079 28.6867 62.039 28.5375 61.8125L22.3 52.45C22.1053 52.1564 22.0176 51.8048 22.0517 51.4542C22.0859 51.1036 22.2398 50.7754 22.4875 50.525C22.6385 50.3774 22.8182 50.2624 23.0154 50.1871C23.2127 50.1117 23.4233 50.0777 23.6342 50.0871C23.8451 50.0965 24.0519 50.149 24.2417 50.2416C24.4315 50.3341 24.6002 50.4646 24.7375 50.625L34.7125 62.6C34.8989 62.8249 35.0006 63.1079 35 63.4V75Z" fill="#3A3C63"/>
<path d="M73.775 37.4875H73.75C73.257 37.4855 72.7685 37.5811 72.3126 37.7689C71.8567 37.9567 71.4425 38.2328 71.0939 38.5814C70.7453 38.93 70.4692 39.3442 70.2814 39.8001C70.0937 40.2559 69.998 40.7445 70 41.2375V48.95C69.9969 50.1377 69.6571 51.3002 69.0199 52.3025C68.3826 53.3048 67.4742 54.1058 66.4 54.6125L56.025 59.475L59.775 53.8375C60.3441 52.9821 60.5642 51.9414 60.3899 50.9289C60.2157 49.9164 59.6605 49.009 58.8382 48.3931C58.0159 47.7772 56.989 47.4994 55.9683 47.617C54.9477 47.7345 54.0108 48.2383 53.35 49.025L43.3625 61C42.8081 61.6773 42.5036 62.5247 42.5 63.4V76.25C42.5 76.5815 42.6317 76.8995 42.8661 77.1339C43.1005 77.3683 43.4185 77.5 43.75 77.5H52.925C53.7464 77.5019 54.56 77.3416 55.3194 77.0285C56.0787 76.7153 56.7688 76.2553 57.35 75.675L74.2 58.8125C75.2482 57.7712 76.0795 56.5325 76.646 55.1679C77.2124 53.8033 77.5027 52.34 77.5 50.8625V41.2375C77.5 40.2472 77.1084 39.2972 76.4105 38.5946C75.7126 37.8921 74.7652 37.4941 73.775 37.4875ZM75 50.8625C75.0016 52.0118 74.7761 53.1501 74.3363 54.212C73.8966 55.2739 73.2513 56.2384 72.4375 57.05L55.575 73.9C54.8724 74.6035 53.9192 74.9991 52.925 75H45V63.4C44.9994 63.1079 45.1011 62.8249 45.2875 62.6L55.2625 50.625C55.3989 50.4644 55.567 50.3338 55.7563 50.2413C55.9456 50.1488 56.152 50.0964 56.3625 50.0875C56.5742 50.075 56.7862 50.1075 56.9844 50.1829C57.1827 50.2583 57.3626 50.3749 57.5125 50.525C57.7602 50.7754 57.9141 51.1036 57.9483 51.4542C57.9824 51.8048 57.8948 52.1565 57.7 52.45L51.4625 61.8125C51.3133 62.039 51.2418 62.3079 51.2588 62.5786C51.2758 62.8493 51.3804 63.1071 51.5568 63.3131C51.7332 63.5192 51.9718 63.6622 52.2367 63.7207C52.5015 63.7793 52.7782 63.75 53.025 63.6375L67.4625 56.875C68.9665 56.1666 70.2384 55.0458 71.1302 53.6428C72.022 52.2398 72.497 50.6124 72.5 48.95V41.2375C72.4983 41.0729 72.5295 40.9096 72.5917 40.7572C72.654 40.6048 72.746 40.4663 72.8624 40.3499C72.9788 40.2335 73.1173 40.1415 73.2697 40.0792C73.4221 40.017 73.5854 39.9858 73.75 39.9875H73.7625C74.0918 39.9908 74.4066 40.1239 74.6383 40.358C74.87 40.5921 75 40.9081 75 41.2375V50.8625Z" fill="#3A3C63"/>
</svg>
