<svg width="80" height="80" viewBox="0 0 80 80" fill="none" xmlns="http://www.w3.org/2000/svg">
<path d="M36.2264 9.33333H4.02516C2.54314 9.33333 1.34172 10.5272 1.34172 12V76C1.34172 77.4728 2.54314 78.6667 4.02516 78.6667H36.2264C37.7084 78.6667 38.9099 77.4728 38.9099 76V12C38.9099 10.5272 37.7084 9.33333 36.2264 9.33333Z" fill="#BDFDFF"/>
<path d="M38.9099 12V76C38.9077 76.7066 38.6243 77.3836 38.1215 77.8833C37.6188 78.3829 36.9375 78.6646 36.2264 78.6667H29.5178C30.2289 78.6646 30.9102 78.3829 31.413 77.8833C31.9157 77.3836 32.1991 76.7066 32.2013 76V12C32.1991 11.2934 31.9157 10.6163 31.413 10.1167C30.9102 9.61707 30.2289 9.33544 29.5178 9.33333H36.2264C36.9375 9.33544 37.6188 9.61707 38.1215 10.1167C38.6243 10.6163 38.9077 11.2934 38.9099 12Z" fill="#7FC4E2"/>
<path d="M38.9098 53.3333C41.8739 53.3333 44.2767 50.9455 44.2767 48C44.2767 45.0545 41.8739 42.6667 38.9098 42.6667C35.9458 42.6667 33.543 45.0545 33.543 48C33.543 50.9455 35.9458 53.3333 38.9098 53.3333Z" fill="white"/>
<path opacity="0.25" d="M44.2767 48C44.2782 48.9366 44.031 49.8571 43.5602 50.6686C43.0893 51.48 42.4115 52.1537 41.5949 52.6216C40.7784 53.0895 39.8521 53.3352 38.9095 53.3337C37.967 53.3322 37.0415 53.0837 36.2264 52.6133C37.0421 52.1464 37.7196 51.4741 38.1906 50.6642C38.6617 49.8543 38.9097 48.9354 38.9097 48C38.9097 47.0645 38.6617 46.1456 38.1906 45.3357C37.7196 44.5258 37.0421 43.8536 36.2264 43.3866C37.0415 42.9162 37.967 42.6677 38.9095 42.6662C39.8521 42.6648 40.7784 42.9104 41.5949 43.3783C42.4115 43.8462 43.0893 44.5199 43.5602 45.3314C44.031 46.1428 44.2782 47.0633 44.2767 48Z" fill="#333333"/>
<path d="M30.8595 9.33333V14.6667C30.8574 15.3733 30.574 16.0503 30.0712 16.5499C29.5684 17.0496 28.8871 17.3312 28.1761 17.3333H12.0755C11.3644 17.3312 10.6831 17.0496 10.1803 16.5499C9.67755 16.0503 9.39415 15.3733 9.39203 14.6667V9.33333H30.8595Z" fill="#F8E2D1"/>
<path opacity="0.25" d="M30.8596 9.33333V14.6667C30.8574 15.3733 30.574 16.0503 30.0712 16.5499C29.5685 17.0496 28.8872 17.3312 28.1761 17.3333H22.8092C23.5203 17.3312 24.2016 17.0496 24.7044 16.5499C25.2072 16.0503 25.4906 15.3733 25.4927 14.6667V9.33333H30.8596Z" fill="#333333"/>
<path d="M22.8092 62.6667V68H17.4423V73.3333H12.0755V68H6.70859V62.6667H12.0755V57.3333H17.4423V62.6667H22.8092Z" fill="#F54E5A"/>
<path opacity="0.25" d="M22.8092 62.6667V68H17.4423V73.3333H14.7589V57.3333H17.4423V62.6667H22.8092Z" fill="white"/>
<path d="M38.9098 38.6667C39.2657 38.6667 39.607 38.5262 39.8586 38.2761C40.1102 38.0261 40.2516 37.687 40.2516 37.3333V12C40.2484 10.9401 39.8233 9.92453 39.0691 9.17507C38.3149 8.42561 37.293 8.00317 36.2264 8H28.1761V6.66667C28.1761 5.79119 28.0026 4.92428 27.6654 4.11544C27.3283 3.30661 26.8341 2.57168 26.2112 1.95262C25.5882 1.33356 24.8487 0.842501 24.0348 0.50747C23.2208 0.172438 22.3485 0 21.4675 0H18.7841C17.0048 0 15.2985 0.702379 14.0404 1.95262C12.7823 3.20286 12.0755 4.89856 12.0755 6.66667V8H4.02516C2.9586 8.00317 1.93663 8.42561 1.18246 9.17507C0.428286 9.92453 0.00318536 10.9401 0 12V76C0.00318536 77.0599 0.428286 78.0755 1.18246 78.8249C1.93663 79.5744 2.9586 79.9968 4.02516 80H36.2264C37.293 79.9968 38.3149 79.5744 39.0691 78.8249C39.8233 78.0755 40.2484 77.0599 40.2516 76V58.6667C40.2516 58.313 40.1102 57.9739 39.8586 57.7239C39.607 57.4738 39.2657 57.3333 38.9098 57.3333C38.554 57.3333 38.2127 57.4738 37.9611 57.7239C37.7095 57.9739 37.5681 58.313 37.5681 58.6667V76C37.5681 76.3536 37.4268 76.6928 37.1751 76.9428C36.9235 77.1929 36.5822 77.3333 36.2264 77.3333H4.02516C3.66931 77.3333 3.32804 77.1929 3.07642 76.9428C2.8248 76.6928 2.68344 76.3536 2.68344 76V12C2.68344 11.6464 2.8248 11.3072 3.07642 11.0572C3.32804 10.8071 3.66931 10.6667 4.02516 10.6667H8.05031V14.6667C8.0535 15.7266 8.4786 16.7421 9.23277 17.4916C9.98695 18.2411 11.0089 18.6635 12.0755 18.6667H28.1761C29.2427 18.6635 30.2646 18.2411 31.0188 17.4916C31.773 16.7421 32.1981 15.7266 32.2012 14.6667V10.6667H36.2264C36.5822 10.6667 36.9235 10.8071 37.1751 11.0572C37.4268 11.3072 37.5681 11.6464 37.5681 12V37.3333C37.5681 37.687 37.7095 38.0261 37.9611 38.2761C38.2127 38.5262 38.554 38.6667 38.9098 38.6667ZM14.7589 6.66667C14.7621 5.60677 15.1872 4.5912 15.9414 3.84174C16.6955 3.09228 17.7175 2.66983 18.7841 2.66667H21.4675C22.5341 2.66983 23.556 3.09228 24.3102 3.84174C25.0644 4.5912 25.4895 5.60677 25.4927 6.66667V8H14.7589V6.66667ZM29.5178 14.6667C29.5178 15.0203 29.3765 15.3594 29.1248 15.6095C28.8732 15.8595 28.5319 16 28.1761 16H12.0755C11.7196 16 11.3784 15.8595 11.1267 15.6095C10.8751 15.3594 10.7337 15.0203 10.7337 14.6667V10.6667H29.5178V14.6667Z" fill="#3A3C63"/>
<path d="M22.8092 61.3333H18.7841V57.3333C18.7841 56.9797 18.6427 56.6406 18.3911 56.3905C18.1395 56.1405 17.7982 56 17.4424 56H12.0755C11.7196 56 11.3784 56.1405 11.1267 56.3905C10.8751 56.6406 10.7338 56.9797 10.7338 57.3333V61.3333H6.7086C6.35276 61.3333 6.01148 61.4738 5.75986 61.7239C5.50824 61.9739 5.36688 62.313 5.36688 62.6667V68C5.36688 68.3536 5.50824 68.6928 5.75986 68.9428C6.01148 69.1929 6.35276 69.3333 6.7086 69.3333H10.7338V73.3333C10.7338 73.687 10.8751 74.0261 11.1267 74.2761C11.3784 74.5262 11.7196 74.6667 12.0755 74.6667H17.4424C17.7982 74.6667 18.1395 74.5262 18.3911 74.2761C18.6427 74.0261 18.7841 73.687 18.7841 73.3333V69.3333H22.8092C23.1651 69.3333 23.5063 69.1929 23.758 68.9428C24.0096 68.6928 24.1509 68.3536 24.1509 68V62.6667C24.1509 62.313 24.0096 61.9739 23.758 61.7239C23.5063 61.4738 23.1651 61.3333 22.8092 61.3333ZM21.4675 66.6667H17.4424C17.0865 66.6667 16.7452 66.8071 16.4936 67.0572C16.242 67.3072 16.1006 67.6464 16.1006 68V72H13.4172V68C13.4172 67.6464 13.2758 67.3072 13.0242 67.0572C12.7726 66.8071 12.4313 66.6667 12.0755 66.6667H8.05032V64H12.0755C12.4313 64 12.7726 63.8595 13.0242 63.6095C13.2758 63.3594 13.4172 63.0203 13.4172 62.6667V58.6667H16.1006V62.6667C16.1006 63.0203 16.242 63.3594 16.4936 63.6095C16.7452 63.8595 17.0865 64 17.4424 64H21.4675V66.6667Z" fill="#3A3C63"/>
<path d="M30.6314 23.4L25.2646 31.4C25.1571 31.5666 25.0132 31.7071 24.8437 31.811C24.6741 31.9149 24.4832 31.9795 24.2851 32H24.1509C23.7945 32.001 23.4521 31.862 23.1983 31.6133L20.5149 28.9467C20.2622 28.6956 20.1203 28.3551 20.1203 28C20.1203 27.6449 20.2622 27.3044 20.5149 27.0533C20.7675 26.8023 21.1102 26.6612 21.4675 26.6612C21.8248 26.6612 22.1675 26.8023 22.4201 27.0533L23.9363 28.5733L28.4042 21.9333C28.6139 21.6746 28.9133 21.503 29.2436 21.4521C29.574 21.4013 29.9116 21.4748 30.1902 21.6583C30.4689 21.8418 30.6686 22.1221 30.7502 22.4442C30.8318 22.7664 30.7895 23.1072 30.6314 23.4Z" fill="#3A3C63"/>
<path d="M30.6314 34.0667L25.2646 42.0667C25.1571 42.2333 25.0132 42.3738 24.8437 42.4776C24.6741 42.5815 24.4832 42.6461 24.2851 42.6667H24.1509C23.7945 42.6677 23.4521 42.5287 23.1983 42.28L20.5149 39.6133C20.2622 39.3623 20.1203 39.0217 20.1203 38.6667C20.1203 38.3116 20.2622 37.9711 20.5149 37.72C20.7675 37.4689 21.1102 37.3279 21.4675 37.3279C21.8248 37.3279 22.1675 37.4689 22.4201 37.72L23.9363 39.24L28.4042 32.6C28.6139 32.3413 28.9133 32.1697 29.2436 32.1188C29.574 32.0679 29.9116 32.1414 30.1902 32.3249C30.4689 32.5084 30.6686 32.7887 30.7502 33.1109C30.8318 33.4331 30.7895 33.7739 30.6314 34.0667Z" fill="#3A3C63"/>
<path d="M30.6314 44.7333L25.2646 52.7333C25.1571 52.9 25.0132 53.0405 24.8437 53.1443C24.6741 53.2482 24.4832 53.3128 24.2851 53.3333H24.1509C23.7945 53.3344 23.4521 53.1954 23.1983 52.9467L20.5149 50.28C20.2622 50.0289 20.1203 49.6884 20.1203 49.3333C20.1203 48.9783 20.2622 48.6378 20.5149 48.3867C20.7675 48.1356 21.1102 47.9946 21.4675 47.9946C21.8248 47.9946 22.1675 48.1356 22.4201 48.3867L23.9363 49.9067L28.4042 43.2667C28.6139 43.008 28.9133 42.8364 29.2436 42.7855C29.574 42.7346 29.9116 42.8081 30.1902 42.9916C30.4689 43.1751 30.6686 43.4554 30.7502 43.7776C30.8318 44.0997 30.7895 44.4406 30.6314 44.7333Z" fill="#3A3C63"/>
<path d="M79.0407 9.44001C78.6636 8.98684 78.19 8.62257 77.654 8.37354C77.118 8.1245 76.533 7.99692 75.9413 8.00001H72.4528C72.4528 7.64638 72.3115 7.30724 72.0599 7.0572C71.8082 6.80715 71.467 6.66667 71.1111 6.66667C70.7553 6.66667 70.414 6.80715 70.1624 7.0572C69.9108 7.30724 69.7694 7.64638 69.7694 8.00001V10.6667C69.7694 11.0203 69.9108 11.3594 70.1624 11.6095C70.414 11.8595 70.7553 12 71.1111 12C71.467 12 71.8082 11.8595 72.0599 11.6095C72.3115 11.3594 72.4528 11.0203 72.4528 10.6667H75.9413C76.1389 10.6631 76.3348 10.7045 76.5138 10.7877C76.6929 10.8709 76.8505 10.9937 76.9744 11.1467C77.1013 11.2962 77.1936 11.4717 77.2446 11.6607C77.2956 11.8496 77.3041 12.0474 77.2696 12.24L72.8688 36.24C72.8124 36.5461 72.6501 36.8229 72.41 37.0226C72.1698 37.2223 71.867 37.3322 71.5539 37.3333H59.9346C59.6215 37.3322 59.3186 37.2223 59.0785 37.0226C58.8384 36.8229 58.6761 36.5461 58.6197 36.24L54.2189 12.24C54.1843 12.0474 54.1929 11.8496 54.2439 11.6607C54.2949 11.4717 54.3871 11.2962 54.5141 11.1467C54.638 10.9937 54.7956 10.8709 54.9746 10.7877C55.1537 10.7045 55.3495 10.6631 55.5472 10.6667H59.0356C59.0356 11.0203 59.177 11.3594 59.4286 11.6095C59.6802 11.8595 60.0215 12 60.3774 12C60.7332 12 61.0745 11.8595 61.3261 11.6095C61.5777 11.3594 61.7191 11.0203 61.7191 10.6667V8.00001C61.7191 7.64638 61.5777 7.30724 61.3261 7.0572C61.0745 6.80715 60.7332 6.66667 60.3774 6.66667C60.0215 6.66667 59.6802 6.80715 59.4286 7.0572C59.177 7.30724 59.0356 7.64638 59.0356 8.00001H55.5472C54.9555 7.99692 54.3705 8.1245 53.8345 8.37354C53.2985 8.62257 52.8248 8.98684 52.4478 9.44001C52.0717 9.89111 51.7988 10.4182 51.6482 10.9846C51.4976 11.551 51.4729 12.1431 51.5757 12.72L55.9765 36.72C56.146 37.6405 56.6349 38.4727 57.3581 39.072C58.0812 39.6713 58.993 39.9997 59.9346 40H64.4025V73.3333C64.4025 74.3942 63.9784 75.4116 63.2236 76.1618C62.4687 76.9119 61.4449 77.3333 60.3774 77.3333C59.3098 77.3333 58.286 76.9119 57.5311 76.1618C56.7763 75.4116 56.3522 74.3942 56.3522 73.3333V53.3333C56.3522 52.4579 56.1787 51.591 55.8415 50.7821C55.5044 49.9733 55.0103 49.2383 54.3873 48.6193C53.7644 48.0002 53.0248 47.5092 52.2109 47.1741C51.397 46.8391 50.5246 46.6667 49.6436 46.6667H45.4843C45.1518 45.048 44.2263 43.6096 42.8873 42.6304C41.5482 41.6512 39.891 41.201 38.237 41.3671C36.5829 41.5331 35.0498 42.3036 33.9349 43.5291C32.8199 44.7547 32.2026 46.3479 32.2026 48C32.2026 49.6521 32.8199 51.2454 33.9349 52.4709C35.0498 53.6964 36.5829 54.4669 38.237 54.6329C39.891 54.799 41.5482 54.3488 42.8873 53.3696C44.2263 52.3904 45.1518 50.9521 45.4843 49.3333H49.6436C50.7102 49.3365 51.7321 49.7589 52.4863 50.5084C53.2405 51.2579 53.6656 52.2734 53.6688 53.3333V73.3333C53.6688 75.1014 54.3756 76.7971 55.6337 78.0474C56.8918 79.2976 58.5981 80 60.3774 80C62.1566 80 63.8629 79.2976 65.1211 78.0474C66.3792 76.7971 67.086 75.1014 67.086 73.3333V40H71.5539C72.4955 39.9997 73.4072 39.6713 74.1304 39.072C74.8536 38.4727 75.3425 37.6405 75.5119 36.72L79.9128 12.72C80.0156 12.1431 79.9908 11.551 79.8402 10.9846C79.6896 10.4182 79.4168 9.89111 79.0407 9.44001ZM38.9099 52C38.1138 52 37.3355 51.7654 36.6736 51.3259C36.0117 50.8864 35.4958 50.2616 35.1911 49.5307C34.8864 48.7998 34.8067 47.9956 34.962 47.2196C35.1174 46.4437 35.5007 45.731 36.0636 45.1716C36.6266 44.6122 37.3438 44.2312 38.1246 44.0769C38.9054 43.9225 39.7147 44.0017 40.4502 44.3045C41.1857 44.6072 41.8144 45.1199 42.2567 45.7777C42.6989 46.4355 42.935 47.2089 42.935 48C42.9318 49.0599 42.5067 50.0755 41.7526 50.8249C40.9984 51.5744 39.9764 51.9968 38.9099 52Z" fill="#3A3C63"/>
</svg>
