<svg width="80" height="80" viewBox="0 0 80 80" fill="none" xmlns="http://www.w3.org/2000/svg">
<path d="M41.4196 33.3333C41.2172 36.639 40.2031 39.8442 38.4668 42.6667C32.8952 52.7067 21.3779 62.6667 21.3779 62.6667C21.3779 62.6667 1.33612 45.3333 1.33612 33.3333C1.33612 30.5044 2.46227 27.7912 4.46684 25.7909C6.4714 23.7905 9.19017 22.6667 12.0251 22.6667C13.9207 22.6336 15.7901 23.1116 17.4362 24.0503C19.0823 24.9889 20.444 26.3535 21.3779 28C22.3117 26.3535 23.6735 24.9889 25.3196 24.0503C26.9657 23.1116 28.8351 22.6336 30.7307 22.6667C33.5656 22.6667 36.2844 23.7905 38.2889 25.7909C40.2935 27.7912 41.4196 30.5044 41.4196 33.3333Z" fill="#F54E5A"/>
<path opacity="0.25" d="M41.4196 33.3333C41.2171 36.639 40.2031 39.8442 38.4668 42.6667C32.8952 52.7067 21.3779 62.6667 21.3779 62.6667C21.3779 62.6667 20.0284 61.5067 18.0376 59.5733C21.8722 55.8533 28.1119 49.28 31.7862 42.6667C33.5225 39.8442 34.5366 36.639 34.739 33.3333C34.7417 31.0776 34.0262 28.8793 32.6958 27.0557C31.3654 25.232 29.4889 23.8772 27.3369 23.1867C28.4339 22.837 29.5791 22.6616 30.7307 22.6667C33.5656 22.6667 36.2843 23.7905 38.2889 25.7909C40.2935 27.7913 41.4196 30.5044 41.4196 33.3333Z" fill="white"/>
<path d="M28.0585 48C31.0101 48 33.4029 45.6122 33.4029 42.6667C33.4029 39.7212 31.0101 37.3333 28.0585 37.3333C25.1068 37.3333 22.714 39.7212 22.714 42.6667C22.714 45.6122 25.1068 48 28.0585 48Z" fill="#BDFDFF"/>
<path opacity="0.25" d="M33.4029 42.6667C33.4044 43.6034 33.1583 44.5239 32.6894 45.3353C32.2205 46.1468 31.5455 46.8204 30.7323 47.2884C29.9192 47.7563 28.9968 48.0019 28.0582 48.0004C27.1195 47.999 26.1979 47.7505 25.3862 47.28C26.1985 46.8131 26.8731 46.1409 27.3422 45.331C27.8113 44.5211 28.0583 43.6021 28.0583 42.6667C28.0583 41.7313 27.8113 40.8123 27.3422 40.0024C26.8731 39.1925 26.1985 38.5203 25.3862 38.0534C26.1979 37.5829 27.1195 37.3344 28.0582 37.333C28.9968 37.3315 29.9192 37.5771 30.7323 38.045C31.5455 38.513 32.2205 39.1866 32.6894 39.9981C33.1583 40.8095 33.4044 41.73 33.4029 42.6667Z" fill="#7FC4E2"/>
<path d="M28.0585 52C25.5779 52 23.199 51.0167 21.445 49.2663C19.691 47.516 18.7057 45.142 18.7057 42.6667C18.7057 40.1913 19.691 37.8173 21.445 36.067C23.199 34.3167 25.5779 33.3333 28.0585 33.3333C28.4128 33.3333 28.7527 33.1928 29.0032 32.9428C29.2538 32.6928 29.3946 32.3536 29.3946 32C29.3946 31.6464 29.2538 31.3072 29.0032 31.0572C28.7527 30.8071 28.4128 30.6667 28.0585 30.6667C24.8692 30.6667 21.8106 31.9309 19.5555 34.1814C17.3003 36.4318 16.0334 39.4841 16.0334 42.6667C16.0334 45.8493 17.3003 48.9015 19.5555 51.1519C21.8106 53.4024 24.8692 54.6667 28.0585 54.6667C28.4128 54.6667 28.7527 54.5262 29.0032 54.2761C29.2538 54.0261 29.3946 53.6869 29.3946 53.3333C29.3946 52.9797 29.2538 52.6406 29.0032 52.3905C28.7527 52.1405 28.4128 52 28.0585 52Z" fill="#3A3C63"/>
<path d="M78.8443 4C78.4677 3.57986 78.0064 3.24389 77.4906 3.01411C76.9749 2.78433 76.4162 2.66593 75.8514 2.66667H72.1503V1.33333C72.1503 0.979711 72.0096 0.640573 71.759 0.390524C71.5084 0.140476 71.1686 0 70.8142 0C70.4599 0 70.12 0.140476 69.8694 0.390524C69.6189 0.640573 69.4781 0.979711 69.4781 1.33333V6.66667C69.4781 7.02029 69.6189 7.35943 69.8694 7.60948C70.12 7.85952 70.4599 8 70.8142 8C71.1686 8 71.5084 7.85952 71.759 7.60948C72.0096 7.35943 72.1503 7.02029 72.1503 6.66667V5.33333H75.8514C76.0399 5.33219 76.2266 5.37088 76.3991 5.44687C76.5716 5.52285 76.726 5.6344 76.8522 5.7742C76.9784 5.91399 77.0735 6.07885 77.1313 6.25795C77.1891 6.43705 77.2082 6.62632 77.1875 6.81333L73.7537 38.8133C73.7156 39.1403 73.5585 39.4418 73.3121 39.6606C73.0658 39.8795 72.7474 40.0002 72.4176 40H58.5219C58.1921 40.0002 57.8737 39.8795 57.6274 39.6606C57.381 39.4418 57.2239 39.1403 57.1858 38.8133L53.752 6.81333C53.7313 6.62632 53.7504 6.43705 53.8082 6.25795C53.866 6.07885 53.9611 5.91399 54.0873 5.7742C54.2135 5.6344 54.3679 5.52285 54.5404 5.44687C54.7129 5.37088 54.8996 5.33219 55.0881 5.33333H58.7892V6.66667C58.7892 7.02029 58.9299 7.35943 59.1805 7.60948C59.4311 7.85952 59.7709 8 60.1253 8C60.4796 8 60.8195 7.85952 61.0701 7.60948C61.3206 7.35943 61.4614 7.02029 61.4614 6.66667V1.33333C61.4614 0.979711 61.3206 0.640573 61.0701 0.390524C60.8195 0.140476 60.4796 0 60.1253 0C59.7709 0 59.4311 0.140476 59.1805 0.390524C58.9299 0.640573 58.7892 0.979711 58.7892 1.33333V2.66667H55.0881C54.5249 2.66533 53.9677 2.78248 53.4528 3.01046C52.938 3.23844 52.4771 3.57214 52.1001 3.98981C51.7232 4.40747 51.4387 4.89973 51.2652 5.43447C51.0917 5.96922 51.033 6.53446 51.0931 7.09333L54.527 39.0933C54.6326 40.0763 55.0993 40.9854 55.8371 41.6453C56.5748 42.3052 57.5312 42.669 58.5219 42.6667H64.1336V68C64.1336 70.4754 63.1483 72.8493 61.3943 74.5997C59.6403 76.35 57.2613 77.3333 54.7808 77.3333C52.3003 77.3333 49.9214 76.35 48.1674 74.5997C46.4134 72.8493 45.428 70.4754 45.428 68V48C45.428 46.2319 44.7241 44.5362 43.4713 43.286C42.2184 42.0357 40.5192 41.3333 38.7474 41.3333H34.6054C34.2743 39.7146 33.3527 38.2762 32.0193 37.2971C30.6858 36.3179 29.0355 35.8677 27.3884 36.0338C25.7412 36.1998 24.2145 36.9703 23.1042 38.1958C21.994 39.4213 21.3792 41.0146 21.3792 42.6667C21.3792 44.3188 21.994 45.912 23.1042 47.1375C24.2145 48.3631 25.7412 49.1335 27.3884 49.2996C29.0355 49.4656 30.6858 49.0154 32.0193 48.0363C33.3527 47.0571 34.2743 45.6187 34.6054 44H38.7474C39.8095 44.0032 40.8272 44.4256 41.5782 45.1751C42.3293 45.9245 42.7526 46.9401 42.7558 48V68C42.7558 71.1826 44.0227 74.2348 46.2778 76.4853C48.5329 78.7357 51.5916 80 54.7808 80C57.9701 80 61.0287 78.7357 63.2838 76.4853C65.5389 74.2348 66.8059 71.1826 66.8059 68V42.6667H72.4176C73.4083 42.669 74.3647 42.3052 75.1024 41.6453C75.8402 40.9854 76.3069 40.0763 76.4125 39.0933L79.8464 7.09333C79.9042 6.53653 79.845 5.9738 79.6724 5.44115C79.4999 4.9085 79.2178 4.41765 78.8443 4ZM28.0585 46.6667C27.2657 46.6667 26.4907 46.4321 25.8315 45.9925C25.1724 45.553 24.6586 44.9283 24.3552 44.1974C24.0518 43.4665 23.9725 42.6622 24.1271 41.8863C24.2818 41.1104 24.6636 40.3977 25.2241 39.8382C25.7847 39.2788 26.4989 38.8979 27.2765 38.7435C28.054 38.5892 28.86 38.6684 29.5924 38.9711C30.3248 39.2739 30.9508 39.7866 31.3913 40.4444C31.8317 41.1022 32.0668 41.8755 32.0668 42.6667C32.0636 43.7266 31.6403 44.7421 30.8893 45.4916C30.1383 46.2411 29.1206 46.6635 28.0585 46.6667Z" fill="#3A3C63"/>
<path d="M23.346 59.0386C22.5443 59.8053 21.8762 60.4306 21.3792 60.876C17.5753 57.4107 2.67223 43.2 2.67223 33.3333C2.67506 30.8588 3.66136 28.4865 5.41474 26.7368C7.16812 24.987 9.5454 24.0028 12.0251 24C13.6828 23.9633 15.3194 24.376 16.7606 25.1943C18.2018 26.0126 19.3935 27.2058 20.2088 28.6467C20.3348 28.8418 20.5078 29.0022 20.7121 29.1134C20.9163 29.2245 21.1452 29.2827 21.3779 29.2827C21.6105 29.2827 21.8394 29.2245 22.0437 29.1134C22.2479 29.0022 22.4209 28.8418 22.547 28.6467C23.3622 27.2058 24.5539 26.0126 25.9951 25.1943C27.4363 24.376 29.073 23.9633 30.7307 24C33.2103 24.0028 35.5876 24.987 37.341 26.7368C39.0944 28.4865 40.0807 30.8588 40.0835 33.3333C40.0835 33.6869 40.2243 34.0261 40.4748 34.2761C40.7254 34.5262 41.0653 34.6667 41.4196 34.6667C41.774 34.6667 42.1138 34.5262 42.3644 34.2761C42.615 34.0261 42.7557 33.6869 42.7557 33.3333C42.7519 30.1519 41.4837 27.1019 39.2294 24.8523C36.9751 22.6027 33.9187 21.3372 30.7307 21.3333C28.949 21.3058 27.1838 21.6774 25.5652 22.4209C23.9465 23.1644 22.5156 24.2608 21.3779 25.6293C20.2401 24.2608 18.8092 23.1644 17.1906 22.4209C15.5719 21.6774 13.8067 21.3058 12.0251 21.3333C8.837 21.3372 5.78064 22.6027 3.52635 24.8523C1.27206 27.1019 0.00388938 30.1519 0 33.3333C0 45.7987 19.6663 62.9506 20.5027 63.6746C20.7456 63.8848 21.0564 64.0005 21.3779 64.0005C21.6994 64.0005 22.0101 63.8848 22.253 63.6746C22.3011 63.6333 23.4462 62.64 25.1925 60.9613C25.324 60.8413 25.4302 60.6962 25.5047 60.5347C25.5792 60.3731 25.6205 60.1983 25.6263 60.0205C25.6321 59.8428 25.6022 59.6657 25.5383 59.4996C25.4745 59.3336 25.378 59.182 25.2545 59.0537C25.1311 58.9254 24.9831 58.8231 24.8194 58.7527C24.6558 58.6824 24.4796 58.6454 24.3014 58.644C24.1232 58.6426 23.9465 58.6768 23.7817 58.7446C23.617 58.8124 23.4674 58.9123 23.342 59.0386H23.346Z" fill="#3A3C63"/>
</svg>
