<svg width="50" height="61" viewBox="0 0 50 61" fill="none" xmlns="http://www.w3.org/2000/svg">
<path d="M39.2857 17.5942H46.4286C47.744 17.5942 48.8096 18.8728 48.8096 20.4514V50.4514C48.8096 53.6071 46.6774 56.1657 44.0476 56.1657C41.4179 56.1657 39.2857 53.6071 39.2857 50.4514V17.5942Z" fill="#F3F8FD"/>
<path d="M40 6H2V55H40V6Z" fill="white"/>
<path d="M46.4286 16.1656H40.4763V7.59414C40.4763 5.22695 38.8774 3.30847 36.9049 3.30847H3.57139C1.59883 3.30847 0 5.22707 0 7.59414V50.4512C0 54.3955 2.66543 57.5941 5.95234 57.5941H44.0476C47.3345 57.5941 49.9999 54.3955 49.9999 50.4512V20.4512C50 18.0842 48.4012 16.1656 46.4286 16.1656ZM2.38096 50.4514V7.59414C2.38096 6.80558 2.91426 6.16562 3.57139 6.16562H36.9047C37.5618 6.16562 38.0951 6.80558 38.0951 7.59414V50.4512C38.0951 51.9969 38.513 53.5013 39.2855 54.7369H5.95234C3.97979 54.737 2.38096 52.8184 2.38096 50.4514ZM47.619 50.4514C47.619 52.8185 46.0202 54.737 44.0477 54.737C42.075 54.737 40.4763 52.8184 40.4763 50.4514V19.0228H46.4286C47.0857 19.0228 47.619 19.6628 47.619 20.4514V50.4514Z" fill="#3A3C63"/>
<path d="M32.1429 13.3085H8.3333V26.1656H32.1429V13.3085Z" fill="#F54E5A"/>
<path d="M33.3333 31.8798H7.14287V34.737H33.3333V31.8798Z" fill="#3A3C63"/>
<path d="M33.3333 39.0228H7.14287V41.88H33.3333V39.0228Z" fill="#3A3C63"/>
<path d="M20.2381 46.1656H7.14287V49.0228H20.2381V46.1656Z" fill="#3A3C63"/>
</svg>
