<svg width="60" height="60" viewBox="0 0 60 60" fill="none" xmlns="http://www.w3.org/2000/svg">
<path d="M56.8246 54.5491C55.95 53.101 55.95 51.289 56.8246 49.8409C63.0166 39.7738 59.8764 26.5923 49.8094 20.4003C47.5837 19.0306 45.1255 18.0804 42.5574 17.5968C41.7299 13.1111 39.4899 9.00644 36.1656 5.88333C31.7727 1.6802 25.7875 -0.434254 19.7296 0.0765759C7.94629 0.99968 -0.856655 11.2993 0.0664485 23.0826C0.33329 26.4968 1.41612 29.7967 3.22378 32.7058C4.09836 34.154 4.09836 35.966 3.22378 37.4141L1.24057 40.7241C0.838261 41.4018 1.06221 42.2778 1.73992 42.6787C1.95965 42.8085 2.21079 42.8784 2.46755 42.8784H17.648C19.8879 52.8954 28.785 60.012 39.0489 59.9991H57.5394C58.3269 59.9991 58.9662 59.36 58.9662 58.5723C58.9662 58.317 58.8977 58.0644 58.7665 57.8447L56.8246 54.5491ZM4.96299 40.0251L5.64785 38.8694C7.0717 36.5139 7.0717 33.5634 5.64785 31.2079C0.279031 22.4834 2.99983 11.0595 11.7228 5.69079C20.4459 0.322088 31.8712 3.04136 37.24 11.7658C39.0862 14.7648 40.0392 18.2274 39.9893 21.7486C39.6482 32.0154 31.172 40.132 20.8996 40.0251H4.96299ZM39.1047 57.1458C30.3859 57.1957 22.7458 51.319 20.5572 42.8785H20.8996C32.7272 42.9769 42.4718 33.6148 42.8427 21.7914C42.8427 21.3776 42.8427 20.9639 42.8427 20.5501C52.8156 22.8913 59.0019 32.8727 56.6606 42.8456C56.2054 44.7831 55.4421 46.6335 54.3992 48.3285C52.9753 50.6841 52.9753 53.6345 54.3992 55.9901L55.084 57.1457H39.1047V57.1458Z" fill="#3A3C63"/>
<path d="M23.0255 18.0387C23.0255 19.4655 21.6843 20.3785 18.2459 20.5212L18.1033 20.6638L18.731 25.0867H21.5845L21.8842 23.4175C24.7947 22.9038 27.1488 21.4771 27.1488 17.9816C27.1488 14.3577 24.4808 12.2747 20.543 12.2747C17.9877 12.2133 15.5395 13.2962 13.8659 15.228L16.3769 17.9816C17.4199 16.8103 18.9037 16.1268 20.4717 16.0984C22.098 16.0984 23.0255 16.8117 23.0255 18.0387Z" fill="#F54E5A"/>
<path d="M22.2549 27.2497H17.8321V31.6155H22.2549V27.2497Z" fill="#F54E5A"/>
</svg>
