<svg width="60" height="60" viewBox="0 0 60 60" fill="none" xmlns="http://www.w3.org/2000/svg">
<path d="M57.1428 37.4654H2.85712V46.424H57.1428V37.4654Z" fill="#F3F8FD"/>
<path d="M57.4074 2H2.87036V37H57.4074V2Z" fill="white"/>
<path d="M55.7143 0.138184H4.28566C1.91859 0.138184 0 2.14342 0 4.61752V44.9309C0 47.405 1.91859 49.4101 4.28566 49.4101H18.5714V56.8755H14.2857C13.4972 56.8755 12.8572 57.5444 12.8572 58.3685C12.8572 59.1927 13.4972 59.8616 14.2857 59.8616H45.7143C46.5028 59.8616 47.1428 59.1927 47.1428 58.3685C47.1428 57.5444 46.5028 56.8755 45.7143 56.8755H41.4286V49.4101H55.7143C58.0815 49.4101 60 47.4049 60 44.9309V4.61752C60 2.14342 58.0814 0.138184 55.7143 0.138184ZM4.28566 3.12436H55.7142C56.5028 3.12436 57.1427 3.79323 57.1427 4.61739V35.9722H2.85715V4.61739C2.85715 3.79335 3.49711 3.12436 4.28566 3.12436ZM38.5714 56.8756H21.4286V49.4102H38.5714V56.8756ZM55.7143 46.4239H4.28566C3.49711 46.4239 2.85715 45.7551 2.85715 44.9309V38.9585H57.1428V44.9309C57.1428 45.7551 56.5029 46.4239 55.7143 46.4239Z" fill="#3A3C63"/>
<path d="M25.7143 27.0139L21.4285 12.0829L35.7143 16.5623L25.7143 27.0139Z" fill="white"/>
<path d="M36.7429 25.9688L32.8572 21.7284L36.7857 17.6224C37.3657 17.0625 37.4 16.1173 36.8644 15.5127C36.6673 15.2902 36.4116 15.1364 36.1287 15.0692L21.8428 10.5899C21.1057 10.2973 20.28 10.684 19.9999 11.4559C19.8756 11.7978 19.8756 12.1756 19.9999 12.5159L24.2856 27.4469C24.5085 28.2382 25.3042 28.689 26.0599 28.4562C26.2914 28.3846 26.5014 28.2531 26.6714 28.074L30.7286 23.8336L34.6429 28.0441C35.1914 28.6383 36.0957 28.6548 36.6643 28.0814C37.2329 27.5081 37.2486 26.5629 36.7001 25.9686H36.7429V25.9688ZM26.4 24.192L23.5429 14.3077L33 17.2939L26.4 24.192Z" fill="#F54E5A"/>
</svg>
