<svg width="60" height="80" viewBox="0 0 60 80" fill="none" xmlns="http://www.w3.org/2000/svg">
<path d="M28.0645 41.561C27.6774 41.3659 27.0968 41.1707 26.9032 41.1707L26.5161 40.9756V40.7805H26.7097C27.0968 40.7805 27.2903 40.5854 27.4839 40.5854C26.9032 40.3903 26.129 40.1951 25.9355 40V39.8049H26.3226C25.9355 39.8049 25.7419 39.4146 25.5484 39.2195C25.1613 38.8293 24.9678 38.6342 24.1936 38.8293L24 38.6342V38.439C24 38.2439 24 38.2439 24.3871 38.2439C24.5807 38.2439 24.7742 38.0488 24.9678 38.0488C24.5807 38.0488 24.5807 37.8537 24.3871 37.6585C24.1936 37.4634 24 37.4634 23.0323 37.8537H22.8387C23.6129 37.2683 24 36.6829 24 36.4878C23.8065 36.4878 23.8065 36.6829 23.6129 36.6829C23.4194 36.8781 22.6452 36.8781 22.4516 36.6829C22.2581 36.6829 22.2581 36.2927 22.2581 36.0976C22.0645 36.0976 21.6774 36.4878 21.4839 36.6829L21.2903 36.8781L20.7097 36.2927L19.7419 37.0732H19.1613L19.5484 37.8537H19.3549C19.1613 37.6585 18.7742 37.6585 18.5807 37.8537C19.3549 38.2439 19.1613 38.2439 19.1613 38.439C19.1613 38.439 19.1613 38.6342 18.9678 38.6342C18.7742 38.6342 18.5807 38.8293 18.3871 38.8293C18.1936 39.0244 18.1936 39.0244 17.8065 39.0244C18 39.2195 18.3871 39.4146 18.7742 39.4146H19.5484V39.6098V39.4146C19.5484 39.4146 19.3549 39.6098 18.7742 39.6098C18.1936 39.6098 17.8065 39.4146 17.6129 39.0244V38.8293C17.8065 38.8293 18 38.6342 18.1936 38.6342C18.3871 38.439 18.3871 38.439 18.7742 38.439C18.5807 38.2439 18.3871 38.2439 18.3871 38.0488C18.3871 37.8537 18.3871 37.8537 18.5807 37.8537C18.7742 37.6585 19.1613 37.6585 19.3549 37.8537L18.9678 37.2683H19.7419L20.3226 36.6829L20.9032 37.2683C21.0968 37.0732 21.4839 36.4878 21.871 36.6829H22.0645V36.8781C22.0645 37.0732 22.0645 37.2683 22.2581 37.2683H23.2258C23.4194 37.0732 23.6129 37.0732 23.6129 36.8781V36.6829L23.8065 36.8781C23.8065 36.8781 24 37.2683 23.4194 38.0488C24 37.8537 24.1936 38.0488 24.3871 38.2439C24.5807 38.439 24.7742 38.439 25.1613 38.6342V38.8293C25.1613 39.0244 25.1613 39.0244 24.5807 39.2195C24.9678 39.2195 25.3549 39.6098 25.5484 39.8049C25.7419 40 25.9355 40.3903 26.3226 40.3903C26.5161 40.3903 26.7097 40.5854 26.7097 40.5854L26.3226 40.9756C26.7097 41.1707 27.2903 41.3659 27.6774 41.3659H27.871V41.7561C27.6774 40.7805 27.4839 40.9756 27.0968 40.9756C27.871 41.1707 28.0645 41.1707 28.0645 41.561C28.0645 41.3659 28.0645 41.3659 28.0645 41.561Z" fill="#F54E5A"/>
<path d="M29.8065 73.1707L29.2258 70.8292C29.2258 70.6341 28.8387 68.878 27.0968 68.878H16.6452C13.9355 68.878 12 66.9268 12 64.3902V27.9024H47.6129V64.5853C47.6129 67.1219 45.4839 68.878 42.7742 68.878H32.5161C30.7742 68.878 30.3871 70.8292 30.3871 70.8292L29.8065 73.1707ZM13.1613 29.0731V64.3902C13.1613 66.3414 14.7097 67.9024 16.6452 67.9024H27.0968C28.4516 67.9024 29.2258 68.6829 29.8065 69.4634C30.3871 68.6829 31.1613 67.9024 32.5161 67.9024H42.7742C45.0968 67.9024 46.6452 66.5366 46.6452 64.5853V29.0731H13.1613Z" fill="#F54E5A"/>
<path d="M21.4838 49.9512L20.9032 48.3902C20.3225 48 19.3548 47.4146 18.7742 47.0244C18.3871 46.8293 18 46.439 17.8064 46.0488H17.6129C17.2258 46.0488 17.0322 46.2439 16.8387 46.2439L16.258 48C16.0645 48.5854 15.8709 48.9756 15.6774 49.1707C15.4838 49.561 15.0967 50.1463 15.4838 50.3415V51.1219C15.2903 51.3171 15.2903 51.5122 15.2903 51.7073V52.0976C15.2903 52.4878 15.2903 52.6829 15.4838 52.878V53.0732H15.6774C16.0645 52.878 16.258 52.6829 16.4516 52.2927C16.6451 52.0976 16.6451 51.9024 16.8387 51.9024V51.7073C17.0322 51.5122 16.8387 51.3171 16.6451 51.1219C16.6451 51.1219 16.4516 50.9268 16.8387 50.3415V50.1463C16.6451 49.561 17.0322 48.7805 17.4193 48.1951C17.4193 48 17.6129 48 17.6129 47.8049C17.8064 47.6098 17.8064 47.4146 18 47.4146C18.5806 48.3902 19.1612 49.1707 20.129 49.7561C20.129 49.7561 20.3225 49.9512 20.5161 49.9512C20.7096 50.1463 21.4838 49.9512 21.4838 49.9512C21.6774 49.9512 21.6774 49.9512 21.4838 49.9512C21.6774 49.9512 21.6774 49.9512 21.4838 49.9512ZM24.9677 35.1219H25.1612C25.3548 35.1219 25.5483 35.1219 25.5483 35.3171C25.5483 35.3171 25.5483 35.5122 25.3548 35.5122H24.9677H25.3548C25.3548 35.5122 25.5483 35.5122 25.5483 35.7073C25.5483 35.7073 25.5483 35.9024 25.3548 35.9024H24.9677H25.3548C25.3548 35.9024 25.5483 35.9024 25.5483 36.0976C25.5483 36.2927 25.3548 36.2927 25.1612 36.2927H24.9677H25.1612C25.3548 36.2927 25.5483 36.2927 25.5483 36.4878C25.5483 36.6829 25.3548 36.6829 25.1612 36.6829H24.9677C24.9677 36.6829 25.1613 36.878 25.3548 36.878V37.0732C24.9677 36.878 24.7742 36.6829 24.7742 36.0976C24.7742 35.5122 24.7742 35.3171 24.9677 35.1219Z" fill="#F54E5A"/>
<path d="M27.2903 38.439C27.0968 38.439 26.9032 38.439 26.9032 38.2439C26.7097 37.8537 26.5161 37.4634 26.3226 37.2683C25.9355 36.6829 25.9355 36.4878 25.9355 36.2927V35.5122C25.9355 35.3171 25.742 35.3171 25.5484 35.3171L25.3549 35.1219H25.5484C25.742 35.1219 25.9355 35.5122 25.9355 35.5122C26.1291 35.9024 26.1291 36.2927 26.1291 36.2927C26.1291 36.4878 26.3226 36.878 26.5161 37.0732L27.0968 38.2439C27.2903 38.439 27.4839 38.439 27.871 38.2439H28.0645C28.2581 38.0488 28.4516 37.8537 28.4516 37.6585C29.0323 37.2683 29.6129 37.2683 29.6129 37.2683V37.6585H29.4194V37.4634V37.6585C29.4194 37.6585 29.0323 37.6585 28.4516 38.0488C28.2581 38.0488 28.0645 38.2439 28.0645 38.439H27.871C27.6774 38.2439 27.4839 38.439 27.2903 38.439Z" fill="#F54E5A"/>
<path d="M26.9032 39.6097C26.3226 39.6097 25.7419 38.8292 25.3548 36.878V36.4878C25.7419 38.0488 26.5161 39.4146 26.9032 39.4146H27.4839C27.871 39.4146 28.2581 39.4146 28.4516 39.2195L28.6452 39.4146C28.4516 39.6097 27.871 39.4146 27.4839 39.4146C27.2903 39.6097 27.0968 39.6097 26.9032 39.6097ZM28.8387 41.1707C28.6452 40.3902 28.6452 39.8048 28.6452 38.8292C28.8387 38.439 29.0323 37.8536 29.2258 37.6585L29.4193 37.2683H29.6129C29.8064 37.4634 30 37.6585 30.3871 37.4634L30.1935 37.6585C29.8064 37.8536 29.6129 37.6585 29.4193 37.4634L29.2258 37.6585C29.2258 37.8536 28.8387 38.439 28.8387 38.8292C28.6452 39.6097 28.8387 40.3902 29.0323 40.9756L28.8387 41.1707ZM30 43.5122L28.6452 42.5366L28.8387 42.3414L30.1935 43.317L31.5484 42.7317L31.7419 42.9268L30 43.5122ZM27.871 44.2927L29.0323 42.9268L29.2258 43.1219L27.871 44.2927ZM29.4193 48.9756C28.8387 48.3902 28.2581 48.3902 27.871 48.3902C27.871 48.3902 27.4839 48 27.0968 48.3902H26.9032C27.2903 48 27.6774 48.1951 27.6774 48.1951C28.4516 48 29.0322 48.1951 29.4193 48.5853V48.9756ZM27.6774 53.0731C27.4839 53.0731 27.4839 53.0731 27.2903 52.878V52.4878L27.4839 52.2927C27.6774 52.0975 27.871 52.0975 27.871 51.7073H28.0645C27.871 52.0975 27.6774 52.2927 27.4839 52.4878V52.6829L27.6774 52.878C27.871 52.878 28.0645 52.6829 28.2581 52.6829C28.4516 52.6829 28.6452 52.4878 28.6452 52.2927C28.8387 52.0975 29.0323 51.9024 29.2258 51.9024C29.4193 51.9024 29.6129 51.7073 29.8064 51.5122C29.8064 51.317 29.6129 51.1219 29.6129 50.9268H30C30 51.317 30.3871 51.317 30.1935 51.7073C30.1935 51.9024 29.6129 52.0975 29.4193 52.0975C29.2258 52.0975 29.0322 52.2927 28.8387 52.4878C28.6452 52.6829 28.4516 52.6829 28.2581 52.878C28.2581 52.878 27.871 52.878 27.6774 53.0731ZM38.9032 45.0731L39.2903 44.6829C39.6774 44.4878 40.4516 42.7317 42.1935 43.1219C44.3226 43.5122 44.3226 45.6585 43.5484 47.4146L42.5806 49.3658C42.3871 49.9512 42.3871 50.3414 42.7742 50.9268C41.0322 50.7317 41.4193 48.5853 42 46.2439C42.3871 44.4878 40.2581 44.6829 39.2903 45.2683L38.9032 45.0731ZM25.3548 35.1219H25.1613L24.9677 32.5853L24.3871 32L24.5806 31.8048L24.9677 32.1951V31.6097L24.1935 31.8048V31.6097H24.9677V31.2195H24.5806V31.0244H24.9677V30.439H25.1613V31.0244H25.5484V31.2195H25.1613H25.9355V31.4146H24.9677V32.3902L25.5484 33.1707L25.3548 33.3658L24.9677 32.7805L25.3548 35.1219Z" fill="#F54E5A"/>
<path d="M25.1613 36.4878L25.3549 40L25.742 40.1951L25.5484 36.4878H25.1613ZM26.5162 56L26.1291 51.7073H26.5162L26.7097 56L27.0968 56.1952L26.7097 57.3659L26.3226 56.1952L26.5162 56ZM35.0323 58.5366C35.4194 58.5366 35.4194 58.3415 35.4194 57.9513C35.6129 56.7805 36 56.1952 36.3871 56C36.1936 55.4147 36 54.6342 36 53.6586C36 53.4634 34.4516 52.683 33.871 51.122L33.0968 51.5122C32.7097 51.7073 32.3226 51.7073 32.3226 51.7073L32.5162 52.2927C32.7097 52.683 32.9033 53.2683 33.2903 53.4634C33.6774 53.8537 34.2581 54.0488 34.6452 54.6342C34.8387 54.8293 34.8387 54.8293 34.8387 55.0244C35.2258 55.6098 35.2258 56.3903 34.8387 57.1708C34.6452 57.561 34.4516 57.561 34.2581 58.3415C34.0645 58.3415 34.8387 58.5366 35.0323 58.5366ZM29.6129 33.3659L29.8065 33.1708C30 32.7805 29.6129 32.9756 29.4194 32.5854C30.3871 32.3903 31.1613 32.3903 31.742 33.1708C32.1291 33.7561 32.1291 33.9512 31.9355 34.7317C31.9355 35.5122 32.3226 35.7073 32.7097 35.3171C32.9032 35.122 32.9033 34.9269 33.0968 34.7317C33.4839 34.5366 33.6774 34.7317 33.871 34.9269C34.0645 35.3171 34.0645 35.5122 34.4516 35.3171C34.4516 35.5122 34.2581 35.7073 33.871 35.5122C33.6774 35.5122 33.6774 35.3171 33.6774 35.3171C33.2903 34.9269 33.0968 35.5122 32.9033 35.7073C32.5162 36.2927 31.742 36.2927 31.3549 35.7073C31.1613 35.3171 31.5484 34.9269 31.1613 34.7317" fill="#F54E5A"/>
<path d="M28.4516 35.122C29.0322 35.3171 29.6129 34.9268 30.1935 34.7317C30.3871 35.5122 30.3871 36.0976 31.1613 36.2927C30.9677 35.9025 30.9677 35.3171 30.9677 34.7317C30.9677 33.7561 30.5806 33.1707 29.8064 33.1707C28.8387 33.3659 28.4516 34.1464 28.4516 35.122Z" fill="#F54E5A"/>
<path d="M31.1613 36.4878C30.3871 36.4878 30.3871 35.7073 30.1935 35.1219C29.8064 35.317 29.4193 35.5122 28.8387 35.5122H28.4516C28.4516 35.5122 28.2581 35.5122 28.2581 35.317C28.2581 34.1463 28.6452 33.3658 29.6129 33.3658C30.3871 33.3658 31.1613 34.1463 31.1613 35.1219C31.3548 35.5122 31.1613 35.9024 31.1613 36.4878C31.3548 36.2926 31.3548 36.2926 31.1613 36.4878Z" fill="#F54E5A"/>
<path d="M29.6129 37.2683H29.2258C29.0322 37.0732 29.0322 36.8781 29.0322 36.6829C29.0322 36.4878 28.8387 36.2927 28.6451 36.0976C28.4516 35.7073 28.4516 35.5122 28.4516 35.3171H28.6451C28.6451 35.5122 28.8387 35.9025 28.8387 36.0976C29.0322 36.2927 29.0322 36.4878 29.2258 36.6829C29.2258 36.8781 29.4193 37.0732 29.4193 37.0732C29.6129 37.2683 30 37.2683 30.5806 36.2927L30.9677 36.4878C30.5806 36.8781 30 37.2683 29.6129 37.2683ZM21.6774 26.5366H37.7419V27.9025H21.6774V26.5366ZM29.6129 25.561L27.2903 24.1951L29.6129 22.8293L31.9354 24.1951L29.6129 25.561ZM34.0645 25.1707C33.6774 25.1707 33.4838 24.7805 33.4838 24.5854C33.4838 24.1951 33.8709 24 34.0645 24C34.4516 24 34.6451 24.3903 34.6451 24.5854C34.8387 24.7805 34.4516 25.1707 34.0645 25.1707ZM36.7742 25.1707C36.5806 25.1707 36.3871 25.1707 36.3871 24.9756C36.1935 24.7805 36.1935 24.5854 36.1935 24.5854C36.1935 24.1951 36.5806 24 36.7742 24C36.9677 24 37.3548 24.3903 37.3548 24.5854C37.3548 24.7805 37.1612 25.1707 36.7742 25.1707ZM23.0322 25.1707C22.6451 25.1707 22.4516 24.7805 22.4516 24.5854C22.4516 24.1951 22.8387 24 23.0322 24C23.4193 24 23.6129 24.3903 23.6129 24.5854C23.6129 24.7805 23.2258 25.1707 23.0322 25.1707ZM25.5483 25.1707C25.3548 25.1707 25.1612 25.1707 25.1612 24.9756C24.9677 24.7805 24.9677 24.5854 24.9677 24.5854C24.9677 24.1951 25.3548 24 25.5483 24C25.9354 24 26.129 24.3903 26.129 24.5854C26.129 24.7805 25.9354 25.1707 25.5483 25.1707ZM24.1935 64.7805C24.1935 64.7805 27.4838 65.3659 29.4193 64.5854C32.129 63.6098 32.3225 62.6342 32.3225 62.6342C32.5161 62.6342 32.5161 63.0244 33.6774 63.4146C34.258 63.6098 35.0322 63.8049 35.4193 63.6098C36 63.6098 36.3871 63.6098 36.3871 64C36.3871 64.3903 36 64.5854 35.6129 64.5854C35.2258 64.5854 34.6451 64 34.0645 64.5854L34.6451 64.7805C34.6451 64.7805 34.0645 64.9756 33.8709 65.1707C33.8709 65.1707 34.4516 64.9756 34.6451 64.9756C34.6451 64.9756 34.258 65.1707 34.258 65.3659H34.8387C35.0322 65.3659 35.4193 65.561 36 65.7561C36.3871 65.7561 37.3548 65.3659 37.7419 64.1951C37.7419 64.1951 37.1612 63.6098 37.1612 63.4146C37.1612 63.4146 36.9677 62.6342 37.3548 62.8293C38.129 63.2195 39.0967 63.4146 39.8709 63.4146C42.1935 63.4146 44.3225 61.6586 42.7742 58.9268C42.3871 58.1464 41.6129 56.9756 41.6129 56C41.6129 55.0244 42.3871 54.6342 42.9677 54.6342C43.5483 54.6342 43.7419 55.0244 43.7419 55.2195C43.7419 55.2195 43.1612 55.0244 42.9677 55.8049C42.9677 56.1951 43.5483 56.3903 43.7419 57.1707C43.7419 57.1707 44.129 56.5854 44.3225 56.1951C44.5161 55.8049 44.5161 55.2195 44.5161 55.0244C44.5161 54.8293 44.129 54.0488 43.5483 53.8537C43.1612 53.6586 42.5806 53.6586 42.1935 53.6586C41.2258 53.8537 40.6451 54.6342 40.6451 55.6098C40.4516 56.1951 40.8387 56.9756 41.0322 57.561C41.6129 59.122 42 59.9025 41.4193 60.6829C40.8387 61.6586 38.9032 61.0732 37.1612 59.9025C35.4193 58.7317 34.0645 58.3415 32.3225 58.7317C29.4193 59.3171 29.6129 60.8781 27.0967 61.2683C25.7419 61.2683 23.2258 61.4634 24.7742 58.5366C24.7742 58.5366 23.6129 57.9512 23.0322 57.7561C21.8709 57.561 20.7096 58.5366 20.5161 59.7073C20.3225 61.2683 20.9032 63.0244 21.8709 63.0244C21.8709 63.0244 21.8709 63.4146 21.6774 63.8049C21.6774 63.8049 20.9032 63.6098 20.3225 63.6098C19.7419 63.6098 18.9677 63.8049 18.7742 63.8049C18.5806 63.8049 18.1935 63.4146 17.0322 63.4146C16.0645 63.4146 15.4838 64 15.4838 64L16.258 64.1951C16.258 64.1951 15.4838 64.3903 15.2903 64.7805C15.2903 64.7805 15.8709 64.5854 16.258 64.5854C16.258 64.5854 15.6774 64.9756 15.6774 65.3659C15.6774 65.3659 16.0645 64.9756 16.4516 64.9756C16.8387 64.9756 17.6129 65.3659 17.8064 65.3659C18.3871 65.3659 18.5806 64.9756 18.5806 64.9756C18.7742 64.9756 19.3548 65.3659 20.7096 65.561C22.0645 65.561 22.258 65.3659 22.8387 65.3659C23.2258 65.3659 23.8064 65.561 23.8064 65.561C24 65.561 24.1935 64.9756 24.1935 64" fill="#F54E5A"/>
<path d="M21.2903 61.8536C21.2903 61.8536 19.5484 60.878 19.3548 60.6829C19.1613 60.4878 18.5806 60.4878 17.6129 60.4878C16.8387 60.6829 16.4516 60.878 16.2581 61.0731H16.6452C16.6452 61.0731 16.2581 61.2683 16.2581 61.6585C16.2581 61.6585 16.8387 61.2683 17.2258 61.2683L17.0323 61.6585C17.0323 61.6585 17.2258 61.4634 17.6129 61.6585C18 61.8536 18.3871 62.0488 18.5806 62.0488C18.7742 62.0488 18.7742 61.8536 18.9677 61.8536C19.1613 61.8536 19.3548 62.0488 19.5484 62.2439C19.7419 62.439 20.9032 63.6097 21.2903 63.6097C21.6774 63.6097 22.0645 63.4146 22.0645 63.4146L21.2903 61.8536ZM31.3548 64C31.1613 64.3902 31.3548 64.9756 31.5484 65.1707C31.7419 65.561 31.9355 65.561 32.129 65.7561C32.3226 65.9512 32.3226 66.1463 31.7419 66.3414C31.3548 66.5366 30.7742 66.5366 30.1935 66.5366C29.6129 66.5366 29.0323 66.5366 28.4516 67.1219C28.4516 67.1219 28.6452 66.5366 29.0323 66.1463C29.0323 66.1463 28.4516 66.3414 28.0645 66.5366L28.6452 65.9512C29.0323 65.7561 29.2258 65.7561 29.6129 65.5609C30 65.5609 30.1935 65.561 30.5806 65.7561C30.5806 65.7561 30.3871 65.1707 30 64.7805C30 64.7805 30.3871 64.5853 30.9677 64.3902L31.3548 64ZM29.4193 36.6829C29.6129 36.4878 29.6129 36.6829 29.6129 36.6829C29.6129 36.878 29.4193 36.878 29.4193 36.6829C29.4193 36.878 29.4193 36.6829 29.4193 36.6829ZM29.2258 36.6829C29.4193 36.6829 29.6129 36.4878 29.6129 36.4878H29.4193L29.2258 36.6829C29.2258 36.4878 29.2258 36.6829 29.2258 36.6829ZM28.6452 35.5122H29.0323C29.2258 35.5122 29.2258 35.5122 29.0323 35.7073V35.9024C29.0323 36.2927 29.0323 36.2927 28.8387 35.9024H28.6452C28.6452 35.9024 28.6452 35.7073 28.8387 35.7073L28.6452 35.5122C28.6452 35.7073 28.6452 35.5122 28.6452 35.5122ZM30 35.317C29.8064 35.317 29.6129 35.5122 29.6129 35.5122V35.7073C29.6129 35.7073 29.6129 35.9024 29.8064 35.9024C29.8064 35.9024 30 35.7073 30.1935 35.7073C30.1935 35.7073 30.1935 35.5122 30 35.5122H29.8064C29.6129 35.5122 29.8064 35.5122 30 35.317ZM31.1613 37.0731C30.9677 36.878 30.7742 36.4878 30.7742 36.2927H30.9677C30.9677 36.4878 30.7742 36.878 31.5484 36.878L31.1613 37.0731ZM19.7419 39.0244C19.5484 38.6341 18.9677 38.439 18.9677 38.439V38.0488C18.9677 38.0488 19.3548 38.439 19.7419 39.0244ZM19.9355 38.8292C19.5484 37.8536 19.1613 37.8536 19.1613 37.8536V37.6585C19.3548 37.6585 19.7419 37.6585 19.9355 38.8292ZM20.3226 38.6341C20.3226 38.6341 19.5484 37.6585 19.5484 37.0731L19.7419 36.878C19.9355 37.4634 20.5161 38.439 20.3226 38.6341ZM40.0645 38.6341L37.3548 37.8536L37.5484 37.6585L40.4516 38.2439L40.0645 38.6341ZM27.2903 56.7805L27.871 56.1951V56.9756L27.6774 56.7805C27.6774 56.7805 27.4839 57.9512 25.9355 58.5366L26.129 58.1463C26.129 58.1463 27.0968 57.9512 27.4839 56.7805H27.2903Z" fill="#F54E5A"/>
<path d="M30.3871 57.7561C30.3871 57.7561 30.1935 57.3659 30 57.3659C29.8064 57.1708 29.4193 57.3659 29.4193 57.3659C29.4193 57.3659 29.2258 56.9756 28.8387 56.9756C28.6451 56.9756 26.9032 57.9513 26.129 58.1464C26.3226 57.7561 26.129 57.3659 25.5484 57.1708C25.5484 57.1708 26.129 58.1464 24.5806 58.7317C24 58.9269 24.3871 58.7317 24.1935 59.3171C24 59.9025 23.6129 60.2927 23.6129 60.4878C23.6129 60.8781 24 61.2683 24.5806 61.0732V61.2683C24.9677 61.0732 25.9355 61.6586 26.3226 61.2683H26.5161C26.5161 61.2683 27.0967 61.2683 27.6774 61.0732L27.2903 60.4878C27.2903 60.4878 27.8709 60.683 28.0645 60.0976C28.0645 60.0976 27.8709 59.9025 27.8709 59.7074C27.8709 59.5122 28.258 59.122 28.4516 59.122C28.6451 58.9269 29.4193 58.3415 30.3871 57.7561ZM26.9032 59.7074C26.7097 59.9025 26.3226 59.9025 25.9355 59.9025L26.5161 59.3171C26.7097 59.3171 26.9032 59.3171 27.0967 59.122C27.2903 59.122 27.4838 58.9269 27.6774 58.9269C27.4838 58.9269 27.0967 59.7074 26.9032 59.7074ZM22.6451 44.4878C21.2903 44.2927 20.9032 42.9269 20.9032 42.9269H21.0967C21.0967 42.9269 21.6774 44.0976 22.8387 44.2927L22.6451 44.4878ZM25.3548 43.5122C25.1613 43.5122 24.9677 43.5122 24.9677 43.3171C24.7742 43.3171 24.7742 43.122 24.7742 42.9269V41.9513C24.7742 41.7561 24.9677 41.7561 25.1613 41.7561H25.7419V41.1708C25.9355 41.1708 26.129 41.561 26.3226 41.7561H26.7097C27.2903 41.3659 28.0645 40.9756 28.8387 40.5854H29.0322L29.6129 39.0244L29.8064 39.2195L29.2258 40.9756L28.8387 41.1708L26.9032 42.1464L26.129 42.3415C26.129 42.1464 26.3226 41.9513 25.9355 41.9513C25.9355 42.1464 25.9355 42.1464 25.7419 42.3415H24.9677C24.9677 42.5366 25.1613 42.5366 25.1613 42.5366H24.9677V42.7317H25.1613C25.1613 42.7317 24.9677 42.7317 24.9677 42.9269C24.9677 43.122 25.1613 43.122 25.1613 43.122V43.3171C25.1613 43.3171 25.1613 43.5122 25.3548 43.5122C25.5484 43.7073 25.9355 43.5122 26.129 43.5122H26.3226C26.7097 43.3171 26.7097 43.3171 26.7097 43.122C26.9032 43.122 28.0645 43.122 28.8387 42.7317C29.0322 42.7317 29.0322 42.5366 29.2258 42.5366C29.4193 42.3415 29.6129 42.3415 29.8064 42.3415C30 42.1464 30 41.9513 30.1935 41.7561C30.3871 41.561 30.3871 41.561 30.3871 41.3659C30.5806 41.1708 30.7742 40.7805 30.7742 40.1952L31.1613 40.3903C31.1613 40.9756 30.7742 41.561 30.5806 41.7561C30.3871 41.9513 30.3871 41.9513 30.1935 41.9513C30 42.1464 29.8064 42.3415 29.8064 42.5366L30 42.7317C29.8064 42.7317 29.6129 42.9269 29.4193 42.9269C29.2258 43.122 29.2258 43.122 29.0322 43.122C28.258 43.5122 27.4838 43.5122 26.7097 43.3171L26.5161 43.5122C26.5161 43.7073 26.3226 43.7074 26.3226 43.7074H26.129C25.9355 43.5122 25.5484 43.5122 25.3548 43.5122ZM21.6774 38.2439C21.4838 38.0488 21.4838 38.0488 21.6774 37.8537C21.8709 37.4634 22.0645 36.8781 22.8387 36.8781L23.0322 37.0732C22.0645 37.0732 21.6774 37.8537 21.6774 38.2439C21.6774 38.2439 21.4838 38.2439 21.6774 38.2439Z" fill="#F54E5A"/>
<path d="M28.6452 39.6098C28.6452 39.6098 27.6774 39.6098 28.0645 38.0488H28.2581C27.871 39.2195 28.8387 39.0244 28.8387 39.0244L28.6452 39.6098ZM29.4194 4.68296C29.2258 4.48784 29.2258 4.48784 29.2258 4.29272C29.2258 4.0976 29.2258 3.90248 29.4194 3.90248C29.6129 3.70735 29.6129 3.70735 29.8065 3.70735C30 3.70735 30.1936 3.70735 30.1936 3.90248C30.1936 3.90248 30.3871 3.90248 30.3871 4.0976C30.3871 4.29272 30.3871 4.48784 30.1936 4.48784C30 4.68296 30 4.68296 29.8065 4.68296C29.6129 4.87809 29.4194 4.68296 29.4194 4.68296ZM29.4194 3.70735L27.4839 3.31711V4.87808L29.4194 4.48784L29.0323 6.43906H30.5807L30.1936 4.48784L32.1291 4.87808V3.31711L30.1936 3.70735L30.5807 1.75613H29.0323L29.4194 3.70735ZM29.8065 21.0732C27.0968 17.561 24.5807 13.2683 27.0968 9.36589H27.2903C28.4516 9.95126 28.6452 12.4878 29.2258 13.8537C29.2258 13.2683 29.0323 10.1464 30 9.36589H30.1936C30.9678 9.75613 31.1613 13.2683 31.1613 13.8537C31.5484 12.683 31.742 10.3415 32.9032 9.36589H33.0968C35.0323 13.2683 32.5161 17.1708 29.8065 21.0732Z" fill="#F54E5A"/>
<path d="M28.8387 22.0488H22.0645C22.0645 22.0488 19.1613 19.7073 19.1613 15.8049C19.1613 11.3171 23.2258 9.56098 24.9678 9.56098H25.3549V9.7561C25.3549 9.7561 24 11.3171 24.9678 15.0244C25.5484 18.1463 29.0323 21.8537 28.8387 22.0488C29.0323 21.8537 29.0323 21.8537 28.8387 22.0488C29.0323 22.0488 29.0323 22.0488 28.8387 22.0488ZM37.5484 22.0488H30.5807V21.8537C30.5807 21.8537 34.0645 18.1463 34.8387 14.8293C35.6129 11.3171 34.4516 9.7561 34.4516 9.7561V9.56098H34.8387C36.5807 9.56098 40.6452 11.3171 40.6452 15.8049C40.4516 19.7073 37.5484 22.0488 37.5484 22.0488ZM29.8065 8.78049C29.4194 8.78049 29.0323 8.39024 29.0323 8C29.0323 7.60976 29.4194 7.21951 29.8065 7.21951C30.1936 7.21951 30.5807 7.60976 30.5807 8C30.5807 8.39024 30.1936 8.78049 29.8065 8.78049ZM38.1291 40.7805C36 40.7805 33.2903 39.4146 32.1291 38.6341C31.9355 39.2195 31.9355 40.1951 31.9355 40.1951C32.5162 40.5854 36.7742 42.7317 36.9678 42.3415C36.9678 42.1463 36.7742 41.561 37.1613 41.561C37.3549 41.561 37.5484 41.7561 37.9355 41.561C38.3226 41.3658 38.5162 40.9756 38.3226 40.9756C38.3226 40.7805 38.1291 40.7805 38.1291 40.7805ZM35.0323 38.0488C35.6129 37.2683 36.3871 36.6829 37.1613 36.2927C36.5807 36.4878 35.4194 36.4878 34.0645 36.6829L31.3549 37.0732L31.5484 37.2683C33.6774 37.6585 34.8387 37.8537 35.0323 38.0488Z" fill="#F54E5A"/>
<path d="M39.871 38.2439C39.2903 38.439 37.5484 38.8292 37.3549 38.439C37.1613 37.8536 37.742 37.2683 37.9355 37.0731C38.3226 36.6829 38.3226 36.2927 38.1291 36.2927H37.9355C37.1613 36.2927 35.6129 37.6585 35.0323 38.6341C35.0323 38.6341 34.2581 38.0488 31.5484 37.4634C31.7419 37.8536 32.129 38.2439 32.129 38.6341C33.2903 39.2195 35.8065 40.5853 37.9355 40.5853C37.9355 40.3902 37.9355 40.3902 38.1291 40.1951C38.5162 39.8049 38.9032 39.8049 39.2903 39.8049C39.6774 39.6097 39.871 39.6097 40.2581 39.2195C40.8387 38.6341 40.4516 37.8536 39.871 38.2439Z" fill="#F54E5A"/>
<path d="M31.1613 40.1951H30.7742C30.7742 40.1951 30.1936 39.6097 29.8065 39.6097H29.6129C29.6129 39.6097 29.2258 39.6097 29.4194 38.8292C29.4194 38.439 30 37.8536 30 37.8536L30.3871 37.4634C30.3871 37.4634 30.9678 37.2682 31.1613 37.2682C31.5484 37.4634 31.742 37.4634 31.742 37.4634C31.9355 37.6585 32.5162 38.439 32.3226 38.8292C32.3226 39.2195 32.1291 39.8048 31.742 40C31.5484 40.1951 31.3549 40.1951 31.1613 40.1951ZM30.9678 40H31.1613C31.3549 40 31.5484 40 31.5484 39.8048C31.9355 39.6097 32.1291 39.6097 31.9355 39.0243C31.9355 38.6341 31.5484 37.8536 31.3549 37.4634C31.3549 37.4634 31.1613 37.2682 30.9678 37.2682C30.7742 37.2682 30.3871 37.4634 30.1936 37.4634L30 37.6585C29.8065 37.8536 29.4194 38.2439 29.4194 38.8292C29.4194 39.0243 29.6129 39.2195 29.6129 39.2195H29.8065C30.3871 39.4146 30.9678 40 30.9678 40ZM30 42.9268L29.2258 42.3414L29.4194 42.1463L30.1936 42.7317L31.3549 42.1463V42.3414L30 42.9268Z" fill="#F54E5A"/>
<path d="M30.5806 41.1707L30.7742 42.5366H30.5806L30.3871 41.1707H30.5806ZM30.9677 36.0976C30.9677 36.0976 31.1613 36.8781 31.7419 37.0732C31.9355 37.0732 30.9677 37.4634 30.9677 37.4634C30.7742 37.2683 30.3871 37.0732 30.3871 36.8781C30.1935 36.6829 30.9677 36.0976 30.9677 36.0976Z" fill="#F54E5A"/>
<path d="M30.3871 37.6585V37.4634C30.5807 37.4634 30.9678 37.2683 30.9678 37.2683V37.0732C31.1613 37.0732 31.1613 37.2683 31.1613 37.2683C31.1613 37.4634 30.5807 37.6585 30.3871 37.6585ZM30 46.6342C29.2258 46.439 27.4839 45.2683 27.4839 45.2683L27.6774 45.0732C27.6774 45.0732 29.2258 46.0488 30 46.2439V46.6342ZM27.2903 41.9512C26.9032 41.561 26.129 41.561 26.129 41.561V41.3659C26.129 41.3659 27.0968 41.1707 27.4839 41.561L27.2903 41.9512ZM25.5484 40.1951C25.5484 40 25.9355 39.8049 26.3226 40V40.1951H25.5484ZM25.9355 40.9756C26.129 40.5854 26.5161 40.7805 26.7097 40.7805V40.9756H25.9355ZM28.8387 42.5366L27.4839 43.7073L27.2903 43.5122L28.8387 42.5366Z" fill="#F54E5A"/>
<path d="M27.871 44.0976L27.0968 42.9268C26.7097 43.1219 26.7097 42.9268 26.5161 42.9268C26.3226 43.1219 26.3226 43.1219 26.129 43.1219C25.9355 43.1219 25.9355 43.3171 25.7419 43.3171C25.7419 43.3171 25.7419 43.7073 25.9355 44.4878C26.5161 44.2927 27.0968 44.2927 27.871 44.0976Z" fill="#F54E5A"/>
<path d="M27.871 44.0975C27.0968 44.4878 26.7097 44.4878 26.129 44.6829C26.3226 45.6585 26.3226 46.8292 26.3226 47.4146C26.5161 47.4146 26.7097 47.2195 27.0968 47.2195C27.0968 47.0244 26.9032 46.8292 26.9032 46.6341C26.9032 46.2439 28.2581 44.6829 28.2581 44.6829L27.871 44.0975ZM28.0645 50.3414C27.871 49.9512 27.2903 48.5853 27.0968 47.8048C27.0968 47.6097 26.9032 47.4146 26.9032 47.4146C26.7097 47.6097 26.5161 47.6097 26.129 47.6097V47.8048C26.3226 48.7805 26.5161 51.7073 26.5161 51.7073L27.871 51.9024C27.871 51.9024 28.2581 51.317 28.2581 51.1219C28.4516 51.1219 28.2581 50.5366 28.0645 50.3414ZM22.6452 44.4878C22.6452 44.6829 22.4516 45.2683 22.0645 45.6585C21.6774 46.0488 21.6774 46.2439 21.4839 46.6341C21.871 47.0244 23.6129 47.8048 25.742 47.4146L25.5484 44.6829H24.5807C23.4194 44.878 22.8387 44.4878 22.6452 44.4878Z" fill="#F54E5A"/>
<path d="M24.3871 47.8049C22.8387 47.8049 21.6774 47.2195 21.2903 47.2195C21.0968 47.6098 20.9032 48 20.9032 48.1951C20.7097 48.5854 20.7097 49.561 21.2903 50.5366C21.4839 50.9268 20.5161 50.9268 20.129 50.9268C19.742 51.122 19.1613 51.122 18.7742 51.122C18.1936 50.9268 18 51.3171 18 51.7073C17.6129 52.6829 17.2258 53.4634 16.6452 54.2439C16.4516 54.439 16.2581 54.8293 16.0645 55.0244L15.871 55.2195C15.871 55.2195 15.871 55.4146 16.0645 55.4146C16.2581 55.6098 15.871 55.6098 15.871 55.8049C15.6774 56.1951 15.6774 56.7805 15.4839 57.1707V58.1464C15.4839 58.1464 16.8387 57.9512 16.8387 57.7561C16.8387 57.561 16.6452 57.1707 16.6452 57.1707V56.3903C16.6452 56.1951 16.6452 56 16.8387 56C17.2258 56 17.4194 55.6098 17.4194 55.0244C17.4194 54.6342 17.6129 54.439 18 54.0488L18.5807 52.8781C18.7742 52.8781 18.9678 52.6829 19.1613 52.4878C19.3549 52.2927 19.5484 52.2927 19.742 52.4878C21.0968 52.8781 22.8387 53.0732 24.3871 52.8781C24.7742 53.0732 24.5807 52.2927 24.7742 52.0976C24.9678 51.9025 25.742 51.9025 26.129 51.9025L25.742 47.8049H24.3871ZM19.1613 44.2927V44.6829C19.3549 44.8781 19.3549 44.8781 19.742 44.8781C19.9355 44.8781 20.3226 44.6829 20.5161 44.6829H20.7097C20.9032 44.6829 20.9032 44.4878 20.9032 44.2927L21.0968 44.0976C20.9032 43.7073 20.9032 43.3171 21.0968 43.122C21.0968 43.122 21.6774 42.5366 22.0645 42.3415C23.0323 41.561 22.6452 41.561 22.8387 41.3659C23.0323 40.9756 23.0323 43.7073 22.8387 44.2927C22.8387 44.2927 24 44.6829 25.5484 44.4878L25.3549 43.3171C25.1613 43.3171 24.7742 43.3171 24.7742 43.122C24.7742 43.122 24.7742 41.9512 24.9678 41.9512L25.5484 42.1464L25.3549 40C25.3549 40 24.5807 39.2195 24.1936 39.0244C23.8065 38.8293 22.8387 38.439 22.6452 38.2439C22.4516 38.2439 21.4839 38.0488 21.4839 38.0488C21.4839 38.0488 22.0645 37.0732 21.871 36.4878C21.871 36.2927 20.7097 36.4878 20.7097 37.4634C20.7097 37.8537 20.5161 38.439 20.5161 38.439C20.5161 38.439 19.742 38.8293 19.5484 39.2195C19.3549 39.6098 18.9678 40.1951 18.9678 40.7805C18.9678 40.9756 19.1613 41.1707 19.1613 41.3659C18.9678 42.3415 18.7742 43.7073 18.7742 44.0976L19.1613 44.2927ZM19.742 40.9756V40.7805L19.9355 40.9756H19.742V40.7805V40.9756ZM22.8387 44.4878C22.8387 44.2927 22.8387 44.4878 22.8387 44.4878V44.4878ZM30.5807 45.8537V43.7073L30.3871 43.9025L29.8065 45.8537L28.8387 45.2683L29.6129 43.7073H29.4194L28.4516 44.8781L27.871 44.0976L27.4839 43.7073L27.6774 43.5122L28.0645 44.0976L28.4516 44.4878L29.4194 43.3171L29.8065 43.5122L29.0323 45.0732L29.6129 45.4634L30.1936 43.7073L30.7742 43.5122V45.6586L31.1613 45.4634L30.9678 43.5122L31.3549 43.3171L32.3226 45.6586L33.0968 44.8781L33.2903 45.0732L32.129 45.8537L30.9678 43.7073L31.3549 45.6586L30.5807 45.8537Z" fill="#F54E5A"/>
<path d="M39.0968 51.122C40.2581 48 40.0645 45.8537 38.5161 44.6829C36.9677 43.5122 34.8387 44.2927 34.2581 44.4878H34.0645C34.0645 44.4878 33.871 44.4878 33.6774 44.6829L31.9355 46.2439L31.7419 45.6586L30.1935 46.439V45.8537L30 45.6586C29.6129 46.0488 29.0323 46.0488 28.8387 46.2439C28.8387 46.2439 29.6129 46.8293 29.4194 48.3903C29.2258 49.561 29.6129 49.7561 29.6129 50.1464C29.6129 50.1464 29.8065 50.5366 30 50.7317C30.1935 50.9268 30.1935 51.3171 30.1935 51.3171C32.129 51.5122 34.2581 50.3415 34.2581 50.3415C35.0323 52.2927 36.3871 53.0732 36.3871 53.0732C38.7097 54.0488 38.3226 55.2195 38.129 56.5854C37.9355 57.561 36.7742 58.5366 36.7742 58.5366L37.9355 59.122L38.129 58.7317L38.7097 58.5366C38.9032 56 39.4839 55.2195 39.871 54.8293C40.2581 54.439 39.871 54.439 39.871 54.439C39.871 54.439 38.129 53.2683 39.0968 51.122ZM34.8387 45.2683C34.8387 45.4634 34.8387 45.6586 34.6452 45.8537C34.8387 45.8537 35.4194 45.6586 35.4194 45.6586V46.0488L34.4516 46.2439C34.4516 46.439 34.4516 46.439 34.2581 46.6342H35.2258V46.8293L35.0323 47.0244C34.8387 47.0244 34.4516 46.8293 34.2581 46.8293C34.0645 47.0244 34.0645 47.2195 34.0645 47.4146H34.8387V47.6098L34.6452 47.8049L34.0645 47.6098C33.871 47.8049 33.871 48 33.6774 48L34.4516 48.3903L34.0645 48.5854L33.871 48.7805L33.2903 48.1951L32.9032 48.5854L33.4839 48.9756L33.0968 49.1708L32.9032 49.3659L32.5161 48.9756C32.3226 49.1707 32.129 49.1708 32.129 49.1708H31.9355L32.129 49.561V49.7561L31.9355 49.9512L31.7419 49.7561L31.5484 49.3659C31.3548 49.3659 31.1613 49.561 30.9677 49.561C31.1613 49.7561 31.3548 49.7561 31.3548 49.7561V49.9512H31.1613C30.9677 49.7561 30.9677 49.7561 30.9677 49.561C30.7742 49.561 30.5806 49.561 30.3871 49.7561L30.5806 49.9512L30.3871 50.1464H30C30 50.1464 29.8064 49.9512 29.8064 49.7561C29.6129 49.7561 29.4194 49.9512 29.4194 49.9512C29.4194 50.1464 29.6129 50.1464 29.6129 50.1464H29.4194L29.2258 49.9512C29.2258 49.7561 29.0323 49.7561 29.0323 49.7561H28.8387V49.561C28.8387 49.561 30.1935 49.7561 31.5484 49.1708C32.7097 48.5854 33.871 47.0244 33.871 45.2683H34.0645C34.2581 45.0732 34.4516 45.2683 34.6452 45.0732L34.8387 45.2683V45.4634C35.4194 45.2683 35.0323 45.2683 34.8387 45.2683ZM28.8387 52.0976C28.6452 51.5122 28.0645 51.3171 28.0645 51.3171V51.122C28.0645 51.122 28.8387 51.122 29.0323 51.7073L28.8387 52.0976ZM32.3226 41.561C32.3226 40.9756 32.5161 39.8049 32.5161 39.2195C32.5161 39.2195 31.9355 39.8049 31.3548 40C30.9677 40.1951 30.9677 40 30.9677 40L31.1613 42.1464L32.3226 41.561ZM31.5484 42.7317L32.5161 42.3415C32.5161 42.1464 32.5161 42.1464 32.3226 41.9512V41.7561L31.3548 42.3415V42.1464C31.3548 42.3415 31.3548 42.5366 31.5484 42.7317ZM26.3226 42.1464H26.7097C26.7097 42.1464 26.3226 41.561 26.129 41.1707L25.5484 40.1951L25.7419 41.9512C25.9355 41.7561 26.129 41.561 26.3226 42.1464ZM19.5484 39.4147C19.1613 38.6342 18.1935 38.8293 18.1935 38.8293V38.6342C18.1935 38.6342 19.1613 38.439 19.5484 39.4147ZM20.7097 38.2439C20.129 38.0488 19.9355 36.6829 19.9355 36.4878L20.3226 36.6829C20.3226 37.2683 20.5161 38.2439 20.7097 38.2439ZM21.871 38.2439C21.871 37.6586 23.2258 37.2683 23.2258 37.2683V37.4634C22.8387 37.4634 22.0645 37.8537 21.871 38.2439ZM23.2258 38.439C23.2258 38.2439 23.6129 38.0488 24.5806 38.0488L24.7742 38.2439C23.8064 38.0488 23.2258 38.439 23.2258 38.439ZM25.3548 39.6098C24.9677 39.4146 24.1935 39.2195 24.1935 39.4147V39.2195C24.1935 39.2195 24.9677 39.0244 25.3548 39.2195V39.6098Z" fill="#F54E5A"/>
<path d="M33.871 44.4879C33.6774 44.2927 33.2903 43.9025 33.2903 43.7074C33.2903 43.7074 33.0968 43.5122 32.7097 42.5366L31.7419 42.9269C31.9355 43.3171 32.3226 43.5122 32.5161 43.9025C32.5161 43.9025 32.9032 44.4879 33.4839 44.8781L33.871 44.4879ZM28.6452 66.1464H28.2581C28.2581 66.1464 28.8387 65.7561 29.4194 65.7561C29.8065 65.7561 28.6452 66.1464 28.6452 66.1464ZM5.03226 46.8293C5.03226 46.8293 6.19355 46.2439 7.16129 47.8049C7.74194 48.5854 8.70968 50.9269 9.48387 51.3171C9.67742 51.5122 10.6452 51.5122 11.0323 49.7561C11.6129 47.0244 11.2258 45.4635 9.48387 42.7318C6.58065 38.0488 3.67742 35.9025 4.06452 33.1708L1.54839 38.8293C1.54839 38.8293 0.967744 40.5854 2.90323 43.9025C4.06452 45.6586 5.03226 46.8293 5.03226 46.8293ZM4.64516 31.6098C4.64516 31.6098 5.80645 30.0488 6.96774 32C7.54839 32.9757 7.54839 35.5122 9.29032 35.9025C10.0645 36.2927 10.6452 35.5122 10.6452 35.122C10.8387 34.3415 10.8387 32.3903 9.67742 30.6342C8.90323 29.4635 7.93549 28.8781 7.93549 28.683C7.93549 28.683 5.41936 26.7318 4.64516 26.5366C3.87097 26.3415 2.32258 26.1464 1.93549 26.9269C1.74194 27.5122 1.74194 28.683 3.09678 30.0488L4.64516 31.6098ZM9.87097 23.2196C12.5806 25.561 12.3871 25.7561 13.7419 26.9269C15.2903 28.2927 17.0323 28.683 17.0323 28.683C17.6129 28.8781 23.0323 28.683 23.0323 28.683C23.0323 28.683 18.5806 28.4878 15.4839 23.4147C13.5484 20.4878 12.3871 20.2927 12 20.2927L6.96774 21.6586C6.96774 21.6586 7.93549 21.4635 9.87097 23.2196Z" fill="#F54E5A"/>
<path d="M9.87098 36.878C9.67743 37.0731 9.48388 36.878 8.90324 36.6829C7.35485 36.0975 7.1613 33.756 6.38711 32.1951C6.00001 31.2195 5.22582 31.6097 5.03227 32.3902C4.64517 34.5365 8.51614 39.0243 8.51614 39.0243L9.87098 36.878C10.0645 36.6829 10.0645 36.878 9.87098 36.878ZM7.35485 49.756C6.19356 47.4146 5.61291 47.0243 5.22582 47.8048C5.03227 48 5.41937 49.756 6.7742 51.317C7.93549 52.6829 9.09678 53.2682 9.09678 53.2682C9.09678 53.4634 9.87098 52.6829 10.0645 52.0975V51.9024C9.29033 52.2926 8.32259 51.5121 7.35485 49.756ZM3.09678 55.8048C4.83872 57.3658 4.83872 58.3414 4.64517 59.5121C4.06453 61.4634 2.51614 62.0487 2.70969 62.2439C2.90324 62.6341 3.87098 63.4146 5.03227 62.2439C6.19356 61.0731 6.58066 60.4878 7.1613 59.9024C8.12904 58.9268 9.29033 59.1219 9.67743 59.9024C9.67743 59.9024 9.87098 58.3414 9.48388 57.1707C9.09679 55.0243 8.12904 54.439 6.7742 53.0731C3.87098 49.9512 4.25807 48.5853 4.25807 47.8048L1.93549 52.2926C1.93549 52.2926 1.35485 54.439 3.09678 55.8048Z" fill="#F54E5A"/>
<path d="M7.35487 60.6829C6.58068 61.4634 5.80649 62.8293 4.64519 63.4147C3.4839 63.8049 2.90326 63.2195 2.90326 63.2195L4.64519 66.3415C4.64519 66.3415 7.16132 64.9756 8.32261 63.2195C9.4839 61.6586 9.09681 60.8781 9.09681 60.8781C9.09681 59.9025 8.12907 59.9025 7.35487 60.6829Z" fill="#F54E5A"/>
<path d="M7.93548 71.6097C10.0645 69.8536 11.2258 67.7073 11.2258 67.7073L9.87097 61.4634C9.87097 61.4634 9.67742 62.2439 9.29032 63.2195C8.51613 64.7805 6.58065 66.3414 4.45161 67.7073C2.12903 69.0731 1.93549 71.0244 1.93549 71.0244L2.12903 78.0487C2.70968 75.9024 5.80645 73.1707 7.93548 71.6097ZM8.70968 25.7561C10.0645 26.5365 9.87097 27.5122 9.87097 27.5122L11.6129 26.3414C8.90323 23.2195 6.96774 22.439 6.3871 22.2439C6 22.2439 5.61291 21.8536 5.61291 22.8292C5.80645 24 7.35484 24.9756 8.70968 25.7561Z" fill="#F54E5A"/>
<path d="M9.29033 27.7073C9.87098 27.7073 9.29033 26.7317 8.32259 26.1464C7.74195 25.7561 6.19356 24.7805 6.19356 24.7805L4.45162 25.561C6.58065 25.561 7.93549 27.7073 9.29033 27.7073ZM7.5484 76.4878C6.96775 76.2927 6.7742 75.9025 6.7742 75.9025L3.67743 77.6586C4.64517 77.4634 5.41936 77.4634 6.00001 77.8537C6.96775 78.439 7.1613 78.8293 7.93549 79.0244C8.90323 79.2195 9.29033 78.6342 9.29033 78.2439C9.67743 77.2683 8.51614 76.8781 7.5484 76.4878Z" fill="#F54E5A"/>
<path d="M7.54843 73.561C7.54843 73.561 6.77424 74.5366 7.74198 75.1219C8.70972 75.7073 10.0646 76.2927 10.4517 76.878C11.0323 77.6585 10.6452 78.2439 9.87101 79.0244L12.7742 76.878C12.7742 76.878 11.2259 73.3658 7.54843 73.561Z" fill="#F54E5A"/>
<path d="M16.4516 76.0976C14.7097 75.1219 14.5161 74.5366 14.3226 73.9512C14.129 72.7805 15.871 72.1951 15.871 72.1951C12.7742 70.2439 12.1935 70.8293 12.1935 70.8293L8.12903 72.5854C8.12903 72.5854 8.51613 72.5854 9.29032 72.7805C10.6452 73.1707 12.7742 74.1463 13.5484 76.4878C14.3226 78.8293 17.4194 79.4146 17.4194 79.4146C17.4194 79.4146 18.1935 78.8293 18.1935 78.2439C18.3871 78.0488 18.5806 77.2683 16.4516 76.0976Z" fill="#F54E5A"/>
<path d="M16.0645 73.1708C15.871 73.1708 15.4839 73.3659 15.6774 73.7561C15.871 74.7318 17.4194 75.3171 18.3871 75.9025C19.3549 76.4879 19.5484 77.2683 19.3549 77.8537C19.1613 78.244 19.1613 78.4391 19.1613 78.4391L21.2903 76.683C21.0968 76.683 18.1936 73.3659 16.0645 73.1708ZM50.1291 42.7318C48.3871 45.4635 48 47.0244 48.5807 49.7561C48.9678 51.5122 49.9355 51.5122 50.1291 51.3171C50.9033 50.9269 51.871 48.5854 52.4516 47.8049C53.6129 46.2439 54.5807 46.8293 54.5807 46.8293C54.5807 46.8293 55.5484 45.6586 56.7097 43.9025C58.8387 40.5854 58.0645 38.8293 58.0645 38.8293L55.5484 33.1708C55.9355 35.9025 53.0323 38.0488 50.1291 42.7318ZM51.6774 28.8781C51.4839 29.0732 50.5162 29.6586 49.9355 30.8293C48.7742 32.5854 48.7742 34.5366 48.9678 35.3171C48.9678 35.7074 49.5484 36.4879 50.3226 36.0976C52.0645 35.5122 52.0645 33.1708 52.6452 32.1952C53.8065 30.2439 54.9678 31.8049 54.9678 31.8049C54.9678 31.8049 55.3549 31.2196 56.5162 30.2439C57.871 28.8781 57.871 27.7074 57.6774 27.122C57.2903 26.3415 55.742 26.5366 54.9678 26.7318C54.1936 26.9269 51.6774 28.8781 51.6774 28.8781ZM42.3871 28.683C42.3871 28.683 44.1291 28.4878 45.6774 26.9269C47.0323 25.561 47.0323 25.3659 49.5484 23.2196C51.4839 21.4635 52.4516 21.6586 52.4516 21.6586L47.4194 20.2927C47.0323 20.2927 45.871 20.4878 43.9355 23.4147C40.8387 28.4878 36.3871 28.683 36.3871 28.683H42.3871Z" fill="#F54E5A"/>
<path d="M54.5806 32.3902C54.3871 31.6097 53.8064 31.2195 53.2258 32.1951C52.4516 33.756 52.258 36.0975 50.7097 36.6829C50.129 36.878 49.9355 36.878 49.7419 36.878C49.7419 36.878 49.5484 36.878 49.5484 37.0731L51.0967 39.2195C51.0967 39.0243 55.1613 34.5365 54.5806 32.3902ZM52.258 49.756C51.4838 51.5121 50.3226 52.2926 49.5484 52.0975C49.5484 52.0975 49.3548 52.0975 49.5484 52.2926C49.9355 52.6829 50.5161 53.6585 50.5161 53.4634C50.5161 53.2682 51.6774 52.6829 52.8387 51.5121C54.1935 49.9512 54.5806 47.9999 54.3871 47.9999C54 47.0243 53.4193 47.4146 52.258 49.756ZM55.3548 47.9999C55.5484 48.5853 55.9355 50.1463 52.8387 53.2682C51.4838 54.6341 50.5161 55.2195 50.129 57.3658C49.9355 58.5365 49.9355 60.0975 49.9355 60.0975C50.3226 59.317 51.2903 59.1219 52.4516 60.0975C53.0322 60.6829 53.6129 61.2682 54.5806 62.439C55.7419 63.6097 56.7096 62.8292 56.9032 62.439C57.0967 62.2438 55.5484 61.4634 54.9677 59.7073C54.5806 58.5365 54.7742 57.5609 56.5161 55.9999C58.258 54.439 57.6774 52.2926 57.6774 52.2926L55.3548 47.9999Z" fill="#F54E5A"/>
<path d="M55.1613 66.3414L56.9032 63.0243C56.9032 63.0243 56.3226 63.8048 55.1613 63.2195C54 62.6341 53.2258 61.2682 52.4516 60.4878C51.6774 59.7073 50.7097 59.7073 50.5161 60.6829C50.5161 60.6829 50.3226 61.2682 51.2903 63.0243C52.4516 64.9756 55.1613 66.3414 55.1613 66.3414Z" fill="#F54E5A"/>
<path d="M55.1613 67.7073C53.0323 66.3414 50.9032 64.7804 50.3226 63.2195C49.9355 62.439 49.7419 61.4634 49.7419 61.4634L48.3871 67.7073C48.3871 67.7073 49.5484 70.0487 51.6774 71.6097C53.8065 73.3658 56.9032 75.9024 57.4839 78.0487L57.6774 71.0243C57.6774 71.0243 57.4839 69.0731 55.1613 67.7073ZM48 26.3414L49.7419 27.5122C49.7419 27.5122 49.5484 26.5365 50.9032 25.7561C52.2581 24.9756 53.8065 24 53.8065 22.8292C53.8065 21.8536 53.4194 22.2439 53.0323 22.2439C52.6452 22.439 50.7097 23.2195 48 26.3414ZM51.2903 26.1463C50.3226 26.7317 49.7419 27.7073 50.3226 27.7073C51.6774 27.7073 53.0323 25.3658 55.1613 25.5609C55.3548 25.5609 53.4194 24.7804 53.4194 24.7804C53.4194 24.7804 51.871 25.9512 51.2903 26.1463ZM52.0645 76.4878C51.2903 76.878 50.129 77.4634 50.129 78.2438C50.129 78.6341 50.5161 79.2195 51.4839 79.0243C52.2581 78.8292 52.4516 78.439 53.4194 77.8536C54 77.4634 54.9677 77.4634 55.7419 77.6585L52.6452 75.9024C52.8387 75.7073 52.6452 76.0975 52.0645 76.4878Z" fill="#F54E5A"/>
<path d="M49.3548 76.6829C49.7419 76.0976 51.0967 75.5122 52.0645 74.9268C53.0322 74.3415 52.258 73.3658 52.258 73.3658C48.5806 73.1707 47.0322 76.878 47.0322 76.878L49.9355 79.0244C49.1613 78.2439 48.7742 77.4634 49.3548 76.6829Z" fill="#F54E5A"/>
<path d="M50.3225 72.9756C51.0967 72.7805 51.4838 72.7805 51.4838 72.7805L47.4193 71.0244C47.4193 71.0244 46.8387 70.439 43.7419 72.3902C43.7419 72.3902 45.4838 72.9756 45.0967 74.1463C44.9032 74.7317 44.7096 75.317 42.9677 76.2927C40.8387 77.4634 41.2258 78.2439 41.2258 78.439C41.2258 78.8292 42 79.6097 42 79.6097C42 79.6097 45.0967 79.0244 45.8709 76.6829C46.8387 74.1463 48.9677 73.1707 50.3225 72.9756Z" fill="#F54E5A"/>
<path d="M43.9355 73.7561C44.129 73.1707 43.7419 73.1707 43.5484 73.1707C41.6129 73.3658 38.5161 76.878 38.5161 76.878L40.6452 78.6341C40.6452 78.6341 40.4516 78.439 40.4516 78.0488C40.2581 77.4634 40.4516 76.6829 41.4194 76.0975C42.3871 75.317 43.7419 74.7317 43.9355 73.7561ZM43.5484 72.1951C43.5484 72.1951 39.4839 70.8292 38.5161 70.6341C37.5484 70.439 36.3871 70.8292 34.4516 72.5853C32.129 74.9268 30 74.7317 29.8064 74.7317C29.6129 74.7317 27.4839 74.9268 25.1613 72.5853C23.2258 70.6341 22.0645 70.439 21.0968 70.6341C20.3226 70.8292 16.2581 72.1951 16.2581 72.1951C16.2581 72.1951 18.1935 72.5853 20.3226 74.5366C22.4516 76.6829 24.7742 79.8049 30 79.8049C35.2258 79.8049 37.3548 76.6829 39.6774 74.5366C41.6129 72.5853 43.5484 72.1951 43.5484 72.1951Z" fill="#F54E5A"/>
</svg>
